<?xml version="1.0" encoding="utf-8"?>
<!-- Generator: Adobe Illustrator 25.2.1, SVG Export Plug-In . SVG Version: 6.00 Build 0)  -->
<svg version="1.1" id="Layer_1" xmlns="http://www.w3.org/2000/svg" xmlns:xlink="http://www.w3.org/1999/xlink" x="0px" y="0px"
	 viewBox="0 0 226 61" style="enable-background:new 0 0 226 61;" xml:space="preserve">
<style type="text/css">
	.st0{fill:none;}
	.st1{fill:#FADF5F;}
	.st2{fill:#94E044;}
	.st3{fill:#306EF6;}
</style>
<g>
	<g>
		<g>
			<path d="M70.5,20.1h13V24h-8.3v4.8h7.1v3.9h-7.1v8h-4.6L70.5,20.1L70.5,20.1z"/>
			<path d="M86.9,31.1v-11h4.6v11.5c0,4,1.3,5.4,3.6,5.4c2.3,0,3.6-1.4,3.6-5.4V20.1h4.5v11c0,6.9-2.8,9.9-8.1,9.9
				S86.9,38,86.9,31.1z"/>
			<path d="M107.9,20.1h4.8l5.4,10.2l2,4.5h0.1c-0.2-2.2-0.6-5-0.6-7.5V20h4.4v20.5h-4.8l-5.4-10.2l-2-4.5h-0.1
				c0.2,2.3,0.6,5,0.6,7.4v7.3h-4.4V20.1z"/>
			<path d="M128.9,20.1h5.8c6.3,0,10.3,3.1,10.3,10.2s-4,10.4-10.1,10.4h-6.1V20.1H128.9z M134.4,36.9c3.5,0,5.8-1.7,5.8-6.6
				s-2.4-6.4-5.8-6.4h-0.9V37L134.4,36.9L134.4,36.9z"/>
			<path d="M148.8,31.1v-11h4.6v11.5c0,4,1.3,5.4,3.6,5.4s3.6-1.4,3.6-5.4V20.1h4.5v11c0,6.9-2.8,9.9-8.1,9.9
				C151.7,41,148.8,38,148.8,31.1z"/>
			<path d="M168.2,38.1l2.7-3.2c1.5,1.3,3.4,2.1,5,2.1c1.9,0,2.9-0.8,2.9-2c0-1.3-1.2-1.7-3-2.4l-2.7-1.1c-2.1-0.9-4.1-2.6-4.1-5.6
				c0-3.4,3-6.1,7.3-6.1c2.4,0,4.8,0.9,6.6,2.7l-2.3,2.9c-1.4-1-2.6-1.6-4.3-1.6c-1.6,0-2.6,0.7-2.6,1.8c0,1.3,1.3,1.7,3.1,2.4
				l2.6,1.1c2.5,1,4.1,2.7,4.1,5.6c0,3.4-2.8,6.4-7.7,6.4C173.1,41,170.3,40,168.2,38.1z"/>
			<path d="M186.1,30.3c0-6.7,3.8-10.6,9.3-10.6s9.3,3.9,9.3,10.6S200.9,41,195.4,41C189.8,41,186.1,37,186.1,30.3z M200,30.3
				c0-4.1-1.8-6.5-4.6-6.5s-4.6,2.4-4.6,6.5s1.8,6.7,4.6,6.7S200,34.4,200,30.3z"/>
			<path d="M208.6,20.1h4.6v16.6h8.1v3.9h-12.7L208.6,20.1L208.6,20.1z"/>
		</g>
	</g>
	<g>
		<g>
			<circle class="st0" cx="30.3" cy="30.6" r="25.2"/>
			<g>
				<path class="st0" d="M30.3,5.4c-3.6,0-7,0.8-10.1,2.1c0.5,1,0.7,2.2,0.7,3.4c0,4.5-3.7,8.2-8.2,8.2c-1.5,0-3-0.4-4.2-1.2
					c-2.2,3.7-3.4,8-3.4,12.7c0,13.9,11.3,25.2,25.2,25.2s25.2-11.3,25.2-25.2S44.2,5.4,30.3,5.4z"/>
				<path class="st1" d="M20.9,10.9c0-1.2-0.3-2.4-0.7-3.4c-4.9,2.1-9,5.8-11.6,10.4c1.2,0.7,2.7,1.2,4.2,1.2
					C17.3,19.1,20.9,15.4,20.9,10.9z"/>
			</g>
			<g>
				<path class="st0" d="M16,51.2c10.5-9,24-14.5,38.7-15c0.4-1.8,0.7-3.8,0.7-5.7c0-13.9-11.3-25.2-25.2-25.2S5,16.6,5,30.5
					C5,39.1,9.4,46.7,16,51.2z"/>
				<path class="st2" d="M30.3,55.7c11.9,0,21.9-8.3,24.5-19.4c-14.8,0.5-28.2,6-38.7,15C20.1,54.1,25,55.7,30.3,55.7z"/>
			</g>
		</g>
		<polygon class="st3" points="41.8,26.5 17.6,26.5 22.2,17.7 46.5,17.7 		"/>
		<polygon class="st3" points="32,38.2 17.6,38.2 22.2,29.4 36.7,29.4 		"/>
	</g>
</g>
</svg>
