<svg xmlns="http://www.w3.org/2000/svg" width="539.495" height="353.748" viewBox="0 0 539.495 353.748"><g transform="translate(0.673)"><text transform="translate(248.327 177.017)" font-size="6" font-family="SourceSansPro-Bold, Source Sans Pro" font-weight="700"><tspan x="0" y="0">Panel rotation</tspan></text><g transform="translate(0 106.437)"><path d="M-1260.01,5663.484l43.942-146.328h-106.74" transform="translate(1366.707 -5517.156)" fill="none" stroke="#262626" stroke-width="1"/><path d="M-1278.866,5517.156l-43.943,146.328h106.741" transform="translate(1322.809 -5517.156)" fill="none" stroke="#262626" stroke-width="1"/></g><text transform="translate(51.539 120.792)" font-size="6" font-family="SourceSansPro-Bold, Source Sans Pro" font-weight="700"><tspan x="0" y="0">Geographical data</tspan></text><text transform="translate(44.511 144.22)" font-size="6" font-family="SourceSansPro-Bold, Source Sans Pro" font-weight="700"><tspan x="0" y="0">System/mod. data</tspan></text><text transform="translate(37.483 165.304)" font-size="6" font-family="SourceSansPro-Bold, Source Sans Pro" font-weight="700"><tspan x="0" y="0">Plant species data</tspan></text><text transform="translate(30.455 188.731)" font-size="6" font-family="SourceSansPro-Bold, Source Sans Pro" font-weight="700"><tspan x="0" y="0">Temporal data</tspan></text><text transform="translate(23.427 212.158)" font-size="6" font-family="SourceSansPro-Bold, Source Sans Pro" font-weight="700"><tspan x="0" y="0">Simulation args.</tspan></text><text transform="translate(16.399 233.242)" font-size="6" font-family="SourceSansPro-Bold, Source Sans Pro" font-weight="700"><tspan x="0" y="0">Weather/solar data</tspan></text><g transform="translate(172.281 174.841) rotate(90)"><path d="M0,6.382,6.382,0l6.382,6.382" transform="translate(0 0)" fill="none" stroke="#262626" stroke-width="1"/><path d="M0,44.059V0" transform="translate(6.382 0)" fill="none" stroke="#262626" stroke-width="1"/></g><g transform="translate(171.017 0)" fill="none" stroke="#262626" stroke-width="1"><rect width="215.529" height="353.748" stroke="none"/><rect x="0.5" y="0.5" width="214.529" height="352.748" fill="none"/></g><line x2="214.79" transform="translate(172.308 30.516)" fill="none" stroke="#262626" stroke-width="1"/><text transform="translate(187.416 14.371)" font-size="5" font-family="SourceSansPro-Bold, Source Sans Pro" font-weight="700"><tspan x="0" y="0">3D spatial representation</tspan></text><g transform="translate(266.696 63.439) rotate(135)"><path d="M0,6.382,6.382,0l6.382,6.382" transform="translate(0 0)" fill="none" stroke="#262626" stroke-width="1"/><path d="M0,52.555V0" transform="translate(6.382 0)" fill="none" stroke="#262626" stroke-width="1"/></g><g transform="translate(301.584 72.465) rotate(-135)"><path d="M0,6.382,6.382,0l6.382,6.382" transform="translate(0 0)" fill="none" stroke="#262626" stroke-width="1"/><path d="M0,52.965V0" transform="translate(6.382 0)" fill="none" stroke="#262626" stroke-width="1"/></g><g transform="translate(279.51 51.184) rotate(45)" fill="none" stroke="#262626" stroke-width="1"><rect width="48.764" height="48.764" stroke="none"/><rect x="0.5" y="0.5" width="47.764" height="47.764" fill="none"/></g><text transform="translate(257.697 83.309)" font-size="6" font-family="SourceSansPro-Bold, Source Sans Pro" font-weight="700"><tspan x="0" y="0">Panel tilt°</tspan></text><text transform="translate(196.787 132.506)" font-size="6" font-family="SourceSansPro-Bold, Source Sans Pro" font-weight="700"><tspan x="0" y="0">Backtracking</tspan></text><g transform="translate(224.9 220.214)" fill="none" stroke="#262626" stroke-width="1"><path d="M0,0H102.764a5,5,0,0,1,5,5V30.455a0,0,0,0,1,0,0H0a0,0,0,0,1,0,0V0A0,0,0,0,1,0,0Z" stroke="none"/><path d="M.5.5H102.764a4.5,4.5,0,0,1,4.5,4.5V29.955a0,0,0,0,1,0,0H.5a0,0,0,0,1,0,0V.5A0,0,0,0,1,.5.5Z" fill="none"/></g><text transform="translate(238.956 232.242)" font-size="5" font-family="SourceSansPro-Regular, Source Sans Pro"><tspan x="0" y="0">Planar projections</tspan></text><g transform="translate(285.891 163.733) rotate(180)"><path d="M0,6.382,6.382,0l6.382,6.382" transform="translate(0 0)" fill="none" stroke="#262626" stroke-width="1"/><path d="M0,44.91V0" transform="translate(6.382 0)" fill="none" stroke="#262626" stroke-width="1"/></g><g transform="translate(431.864 173.907) rotate(90)"><path d="M0,6.382,6.382,0l6.382,6.382" transform="translate(0 0)" fill="none" stroke="#262626" stroke-width="1"/><path d="M0,45.41V0" transform="translate(6.382 0)" fill="none" stroke="#262626" stroke-width="1"/></g><g transform="translate(285.891 219.075) rotate(180)"><path d="M0,6.382,6.382,0l6.382,6.382" transform="translate(0 0)" fill="none" stroke="#262626" stroke-width="1"/><path d="M0,25.306V0" transform="translate(6.382 0)" fill="none" stroke="#262626" stroke-width="1"/></g><line x2="214.79" transform="translate(172.308 30.516)" fill="none" stroke="#262626" stroke-width="1"/><g transform="translate(279.51 51.184) rotate(45)" fill="none" stroke="#262626" stroke-width="1"><rect width="48.764" height="48.764" stroke="none"/><rect x="0.5" y="0.5" width="47.764" height="47.764" fill="none"/></g><g transform="translate(279.51 274.417) rotate(45)" fill="none" stroke="#262626" stroke-width="1"><rect width="48.764" height="48.764" stroke="none"/><rect x="0.5" y="0.5" width="47.764" height="47.764" fill="none"/></g><g transform="translate(185.074 119.478)" fill="none" stroke="#262626" stroke-width="1"><path d="M0,0H79.337a5,5,0,0,1,5,5V30.455a0,0,0,0,1,0,0H0a0,0,0,0,1,0,0V0A0,0,0,0,1,0,0Z" stroke="none"/><path d="M.5.5H79.337a4.5,4.5,0,0,1,4.5,4.5V29.955a0,0,0,0,1,0,0H.5a0,0,0,0,1,0,0V.5A0,0,0,0,1,.5.5Z" fill="none"/></g><g transform="translate(258.96 99.807) rotate(45)"><path d="M0,6.382,6.382,0l6.382,6.382" transform="translate(0 0)" fill="none" stroke="#262626" stroke-width="1"/><path d="M0,21.6V0" transform="translate(6.382 0)" fill="none" stroke="#262626" stroke-width="1"/></g><g transform="translate(290.495 119.478)" fill="none" stroke="#262626" stroke-width="1"><path d="M0,0H79.337a5,5,0,0,1,5,5V30.455a0,0,0,0,1,0,0H0a0,0,0,0,1,0,0V0A0,0,0,0,1,0,0Z" stroke="none"/><path d="M.5.5H79.337a4.5,4.5,0,0,1,4.5,4.5V29.955a0,0,0,0,1,0,0H.5a0,0,0,0,1,0,0V.5A0,0,0,0,1,.5.5Z" fill="none"/></g><text transform="translate(299.866 132.506)" font-size="6" font-family="SourceSansPro-Bold, Source Sans Pro" font-weight="700"><tspan x="0" y="0">Gradient desc.</tspan></text><g transform="translate(315.331 115.078) rotate(135)"><path d="M0,0,6.382,6.382,12.763,0" transform="translate(0 15.215)" fill="none" stroke="#262626" stroke-width="1"/><path d="M0,0V21.6" transform="translate(6.382 0)" fill="none" stroke="#262626" stroke-width="1"/></g><g transform="translate(301.943 149.361)"><g transform="translate(55.857 92.194) rotate(45)"><path d="M0,78.993V0" transform="translate(0 0)" fill="none" stroke="#262626" stroke-width="1"/></g><g transform="translate(62.238 92.502) rotate(180)"><path d="M0,0,6.382,6.382,12.763,0" transform="translate(0 86.12)" fill="none" stroke="#262626" stroke-width="1"/><path d="M0,0V92.5" transform="translate(6.382 0)" fill="none" stroke="#262626" stroke-width="1"/></g></g><text transform="translate(261.514 307.035)" font-size="6" font-family="SourceSansPro-Bold, Source Sans Pro" font-weight="700"><tspan x="0" y="0">∫(PAR)dt</tspan></text><g transform="translate(431.057 133.534)" fill="none" stroke="#262626" stroke-width="1"><rect width="107.764" height="93.708" rx="6" stroke="none"/><rect x="0.5" y="0.5" width="106.764" height="92.708" rx="5.5" fill="none"/></g><text transform="translate(445.114 151.248)" font-size="6" font-family="SourceSansPro-Bold, Source Sans Pro" font-weight="700"><tspan x="0" y="0">Optimal system</tspan></text><text transform="translate(445.114 168.989)" font-size="5" font-family="SourceSansPro-Bold, Source Sans Pro" font-weight="700"><tspan x="0" y="0">Tilt behavior</tspan></text><text transform="translate(445.114 188.731)" font-size="6" font-family="SourceSansPro-Bold, Source Sans Pro" font-weight="700"><tspan x="0" y="0">Panel distribution</tspan></text><text transform="translate(445.114 205.13)" font-size="6" font-family="SourceSansPro-Bold, Source Sans Pro" font-weight="700"><tspan x="0" y="0">Module type</tspan></text><g transform="translate(236.613 163.989)" fill="none" stroke="#262626" stroke-width="1"><path d="M0,0H82.68a4,4,0,0,1,4,4V30.455a0,0,0,0,1,0,0H0a0,0,0,0,1,0,0V0A0,0,0,0,1,0,0Z" stroke="none"/><path d="M.5.5H82.68A3.5,3.5,0,0,1,86.18,4V29.955a0,0,0,0,1,0,0H.5a0,0,0,0,1,0,0V.5A0,0,0,0,1,.5.5Z" fill="none"/></g><g transform="translate(285.891 274.417) rotate(180)"><path d="M0,6.382,6.382,0l6.382,6.382" transform="translate(0 0)" fill="none" stroke="#262626" stroke-width="1"/><path d="M0,25.306V0" transform="translate(6.382 0)" fill="none" stroke="#262626" stroke-width="1"/></g><text transform="translate(238.956 232.242)" font-size="5" font-family="SourceSansPro-Bold, Source Sans Pro" font-weight="700"><tspan x="0" y="0">Planar projections</tspan></text></g></svg>