<svg xmlns="http://www.w3.org/2000/svg" width="665.184" height="641.238" viewBox="0 0 665.184 641.238"><g transform="translate(-12674.459 -2993.748)"><path d="M2590.143,1501.453h641.239" transform="translate(10084.316 1812.914)" fill="none" stroke="#393939" stroke-width="2"/><path d="M0,0H641.238" transform="translate(12995.078 2993.748) rotate(90)" fill="none" stroke="#393939" stroke-width="2"/><g transform="translate(12721.438 3031.842)"><g transform="translate(0 0)"><path d="M3002.973,1347.882h0l1.121-.019c6.555-.107,65.388-.939,83.819,3.114,0,0,8.858-9.791,23.99-3.095,0,0,9.553,5.247,24.528,0,0,0,19.446-5.744,23.755,0,0,0,5.456-1.921,6.106,24.715,0,0,1.559,5.763,28.587,0,0,0,2.331-41.14-11.373-47.1,0,0-16.015-10.917-33.067-11.723,0,0-8.183-.093-6.625-19.423l6.625-4.657-.909-4.785s7.74-4.283-1.246-7.908c0,0-13.377.351-13.389-10.407v-6.547s7.5-7.07,21.545-1.339c0,0,10.77,3.657,12.929-4.964V1244.5s-3.677-7.247-22.6-1.794h-8.031l-9.645-6.784h-5.965s-5.242,6.041-8.83,6.784h-9.373s-10.7-5.474-18.874,0c0,0-4.8,9.054,1.148,14.628,0,0,5.687,1.784,16.027,0,0,0,11.491-3.038,14.584,1.366s1.64,3.373,1.64,3.373v7.2s-1.3,5.689-17.09,7.721c0,0-4.435,4.5,2.561,7.908l-1.7,6,6.4,3.446s2.227,13.6-7.257,17c0,0-2.767,3.308-12.55-2.273,0,0-20.546,1.689-87.23,1.37v35.207" transform="translate(-3002.586 -1235.925)" fill="none" stroke="#393939" stroke-width="2"/><path d="M3147.52,1344.273s-6.146,26.268-13.34,36.336-13.9,16.221-11.151,29.681,15.24,19.172,21.36,20.329,20.243-.6,25.313-8.622S3180.479,1386.269,3147.52,1344.273Z" transform="translate(-2966.57 -1177.341)" fill="none" stroke="#393939" stroke-width="2"/><path d="M2757.583,1341.279h47.032" transform="translate(-2657.088 -1287.262)" fill="none" stroke="#393939" stroke-width="2"/><path d="M2802.116,1399.971s11.751,1.946,28.542-2.715" transform="translate(-2638.779 -1264.249)" fill="none" stroke="#393939" stroke-width="2"/><path d="M2802.116,1398.293s17.672.739,29.578-3.576" transform="translate(-2638.779 -1265.291)" fill="none" stroke="#393939" stroke-width="2"/><path d="M2757.583,1332.616a262.9,262.9,0,0,0,45.416,0" transform="translate(-2657.088 -1290.823)" fill="none" stroke="#393939" stroke-width="2"/><g transform="translate(113.783 1.411)" fill="none" stroke="#393939" stroke-width="2"><circle cx="11.289" cy="11.289" r="11.289" stroke="none"/><circle cx="11.289" cy="11.289" r="10.289" fill="none"/></g><path d="M2769.056,1320.657s6.031,3.226,15.772,0" transform="translate(-2652.372 -1295.74)" fill="none" stroke="#393939" stroke-width="2"/><path d="M2767.917,1319.624l2.125-2.169" transform="translate(-2652.84 -1297.057)" fill="none" stroke="#393939" stroke-width="2"/><path d="M2782.492,1318.64l-2.009-1.433" transform="translate(-2647.672 -1297.159)" fill="none" stroke="#393939" stroke-width="2"/><path d="M2747.013,1396.439s-3.158-21.647,1.346-41.778" transform="translate(-2661.876 -1281.76)" fill="none" stroke="#393939" stroke-width="2"/></g><path d="M2812.388,1457.827c-1.959.284-6.812,8.431-8.288,14.483-1.553,6.353,1.5,7.582,2.954,4.931,3.095-8.071,1.7-8.274,7.634-15.836a5.25,5.25,0,0,0,.389-2.527C2815.087,1458.367,2814.49,1457.522,2812.388,1457.827Z" transform="translate(-2639.551 -1249.774)" fill="none" stroke="#393939" stroke-width="2"/></g><g transform="translate(13037.38 3120.769)"><path d="M3168.682,1306.724,3114.16,1431.2h266.39l-54.675-124.475Z" transform="translate(-3114.16 -1306.724)" fill="none" stroke="#393939" stroke-width="2"/><path d="M3281.214,1308.631" transform="translate(-3107.089 -1305.601)" fill="none" stroke="#393939" stroke-width="2"/><path d="M3235.2,1425.143v15.919s-5.517-1.252-5.455,4.461v8.947h-36.788s-3.339.142-3.239,2.686v5.851s.154,2.366,3.239,2.49h103.2s2.269-.01,2.269-3.059v-6.306s-.067-1.717-3.235-1.663h-36.613v-8.947s.726-4.358-5.981-4.461v-15.919" transform="translate(-3110.963 -1300.669)" fill="none" stroke="#393939" stroke-width="2"/></g><g transform="translate(12702.939 3455.861)"><path d="M3124.953,2198.533l5.168,2.068s5.159-6.083,5.237-9.432,7.577-7.043,11.086-7.38c0,0-.815-4.537,2.194-7.117,0,0,7.223-1.679,7.413-14,0,0-.679-4.223,6.159-9.683,0,0,5.606-2.233,3.927-14.711a110.111,110.111,0,0,1,8.767-12.934s.912-3.474-3.93-2.582v-7.391s.192-2.617,6.9-1.174v-12.572s5.869-7.334-2.975-10.227v-7.31c0-1.827-4.226-6.066-8.767-5.144l-3.927-6.333s-7.405-2.845-7.75-8.348l8.858-8.176-6.071-3.318s1.11-4.721-8.761-1.759l-1.57-7.536s-2.871,2.561-3.822,0l-1.574-8.993s-2.591,4.9-11.7,1.326c0,0-3.778.093-6.771,7.667,0,0-2.088-6.077-5,0,0,0,1.563,7.074-1.583,9.3,0,0-3.649,1.031-6.359,0,0,0-2.718-4.535-2.979-8.348s-4.269-3.989-4.269-3.989a12.2,12.2,0,0,0-7.238,3.99c-3.218,3.6-25.788-3.193-25.788-3.193s.427,5.2-7.125,5.947-7.649,5.594-7.649,5.594a11.087,11.087,0,0,1-4.256,7.291,30.735,30.735,0,0,0-1.591,12.551h2.658l2.259-1.868,2.442,8.919,4.259,4.425h3.874l1.831,1.569h2.438l-1.193,1.808s6.19,5.641,10.63,4.72c0,0,3.212,19.652,17.21,22l-6.79,3.568,3.25,9.862,3.539,3.984-2.331,6.672,4.184,1.494-1.854,8.352,3.886,6.839,10.251,5.5,13.35,22-9.49-1.6-10.7-19.53s-6.3-4.842-9.63-4.959l-4.458-6.964,1.419-9-4.755-.626,3.336-8.167-4.071-3.984-3.447-9.862,6.653-2.39s-13.2-2.541-16.351-22.325c0,0-6.738,1.241-13.583-8.126,0,0-10.079,1.986-10.722-14.171l-6.233,4.84-10.984.879-5.091-4.606s-5.549,7.891-10.39,5.485l-12.279,10.123v9.178l6.4,4.365-1.053,18.441-4.608,4.215,4.608,17.444s10.809-15.233,44.195-7.538l3.592,1.649s15.393,14.856,18.3,22.858c0,0,4.366,13.723,16.489,13.216,0,0,10.73,10.34,21.3,11.168l8.179,6.838Z" transform="translate(-3002.33 -2034.483)" fill="none" stroke="#393939" stroke-width="2"/><path d="M3172.215,2206.438l.542,2.4s13.4,4.141,10.61-10.914l-6.435-26.1s13.46-9.382,21.023-58.083c0,0-5.673,32.035-25.431,43.948l-8.184-20.176s7.1-5.05,7.231-25.3c0,0,1.154,9.978-8.964,21.4l-14.311-30.9,13.251,45.21s-9.7-.048-15.732-3.543c0,0,10.158,8.021,16.792,9.254Z" transform="translate(-3051.11 -2057.675)" fill="none" stroke="#393939" stroke-width="2"/><path d="M3109.861,2209.981l-1.572-11.588s-7.263.447-26.844-29.325c0,0,.6-11.4-23.545-33.09,0,0,11.092,14.845,14.161,24.1,0,0-8.2-5.638-15.367-5.638,0,0-8.193-20.871-33.812-19.233,0,0,16.662.412,28.577,18.569,0,0-16.245.766-27.859,5.277,0,0,27.142-4.915,40.33,7.4a189.528,189.528,0,0,1,23.03,26.406S3102.963,2209.649,3109.861,2209.981Z" transform="translate(-3009.315 -2068.69)" fill="none" stroke="#393939" stroke-width="2"/><path d="M3235.287,2084.663a10.084,10.084,0,0,0,6.342,5.489l3.127,6.391s3.776-3.053,9.291,5.592v5.832s-.927,1.879,2.424,3.063c0,0,4.047,4.056,0,9.547V2132.4s-6.383-1.934-8.692.727v7.4s6.111.033,1.507,5.274c0,0-6.4,7.364-6.945,8.992s-.711,9.051-.711,9.051,1.112,4.421-5.74,7.881c0,0-4.105,2.225-4.57,8.724,0,0,0,9.705-8.751,14.576a3.317,3.317,0,0,0-1.387,3.276s20.857-16.034,26.6-25.629,12.575-28.317,12.806-35.183a171.074,171.074,0,0,0,1.48-19.4s.823,18.965-3.7,37.341c0,0,7.131-13.213,9.029-23.769,0,0-4.212,24.735-22.059,50.3,0,0-5.321,8.574-22.766,17.075l-.917,1.7s-6.51-.4-9.164,2.856a57.178,57.178,0,0,0,27.4-12.891c12.563-10.992,22.659-30.548,23.128-32.926s7.844-19.109,8.3-26.111,8.787-9.51,8.787-9.51a13.6,13.6,0,0,1,5.425.534c2.134.88,7.978-2.836,7.978-2.836s2.161-1.9,1.125-7.684a4.23,4.23,0,0,1,3.415-4.195s2.819-2.2,0-6.491c0,0,1.786-1.9,0-4.934s-3.415-3.189-3.415-3.189a13.616,13.616,0,0,1-6.932-8.691c-1.456-6.169-13.522,1.2-13.522,1.2a12.591,12.591,0,0,1-5.026-5.625,9.44,9.44,0,0,0-7.1,1.323s-2.742-3.429-8.018,5.42c0,0-1.027-5.959-7.939-5.42,0,0-6.167-2.4-9.1,3.1Z" transform="translate(-3073.77 -2049.965)" fill="none" stroke="#393939" stroke-width="2"/></g><g transform="translate(13033.623 3381.409)"><path d="M4675.75,1158.671l-42.984-25.891-35.5-21.2-34.213-18.986-28.887-18.361,1.952-3.591-31.268-22.447s-8.889-5.061-3.581-14.535l17.74-15.547,5.549-7.228,16.623-14.366,21.877-17.066,13.9-13.26,20.312-21.783" transform="translate(-4474.38 -944.405)" fill="none" stroke="#393939" stroke-width="2"/><path d="M4529.409,1035.9l-22.731-1.666-50.021,1.666" transform="translate(-4447.155 -1001.389)" fill="none" stroke="#393939" stroke-width="2"/><path d="M4473.411,1114.455l-7.3-4.109-35.449-11.067" transform="translate(-4430.666 -1042.645)" fill="none" stroke="#393939" stroke-width="2"/><path d="M4478.155,1254.362l-25.672,22.445" transform="translate(-4444.504 -1141.017)" fill="none" stroke="#393939" stroke-width="2"/><path d="M4550.229,1300.085l-25.1,24.77" transform="translate(-4490.585 -1170.02)" fill="none" stroke="#393939" stroke-width="2"/><path d="M4585.205,1265.675l6.83-8.063,7.373,3.848-8.917,7.812" transform="translate(-4528.693 -1143.079)" fill="none" stroke="#393939" stroke-width="2"/><path d="M4579.227,1192.34l18.142-18.882L4571.444,1158l-18.057-10.157" transform="translate(-4508.506 -1073.451)" fill="none" stroke="#393939" stroke-width="2"/><path d="M4582.089,1103.631l23.9-22.518L4626.8,1062l24.545,11.338-43.63,45,29.637,18.479,28.214,15.323,34.243,17.26,40.6,19.626,27.118,12.541s12.592-48.549,30.016-64.748l-27.653-12.593,1.854-3.284-36.5-13.748-28.859-10.428-26.779-11.916s-26.854,37.048-42.26,50.033S4607.7,1167.7,4607.7,1167.7s-4.294-1.05-16.46,17.873l-22.154,22.964" transform="translate(-4518.474 -1019.001)" fill="none" stroke="#393939" stroke-width="2"/><path d="M4833.208,1158.652c-3.075,3.16-41.94,55.067-41.94,55.067l-23.9,33.047" transform="translate(-4644.243 -1080.306)" fill="none" stroke="#393939" stroke-width="2"/><path d="M4926.818,1188.416l-17.224,28.985-19.37,31.78-20.871,39.127" transform="translate(-4708.934 -1099.186)" fill="none" stroke="#393939" stroke-width="2"/><path d="M5065.886,1229.787l-14.166,34.257-14.577,31.788-1.867,2.081" transform="translate(-4814.184 -1125.429)" fill="none" stroke="#393939" stroke-width="2"/><path d="M4960.519,1105.911l14.268-23.051s-27.824-12.356-36.555-20.132c0,0-27.839-14.859-31.566-18.242l-10.014-4.26L4883,1057.01l-10.594,14.785" transform="translate(-4710.871 -1005.186)" fill="none" stroke="#393939" stroke-width="2"/><path d="M4985.223,1129.963s21.566-21.861,25.953-23.527" transform="translate(-4782.434 -1047.185)" fill="none" stroke="#393939" stroke-width="2"/><path d="M4835.135,1065.79l-95-41.978-11.984,13.626" transform="translate(-4619.373 -994.775)" fill="none" stroke="#393939" stroke-width="2"/><path d="M4714.382,979.819l17.6,7.909,17.271-16.662-23.039-4.943" transform="translate(-4610.633 -958.182)" fill="none" stroke="#393939" stroke-width="2"/><path d="M4809.729,980.1s13.646,7.47,16.71,8.751l9.227,5.837,20.96,7.558" transform="translate(-4671.113 -967.046)" fill="none" stroke="#393939" stroke-width="2"/><path d="M4879.236,979.59l25.542-23.371" transform="translate(-4715.204 -951.902)" fill="none" stroke="#393939" stroke-width="2"/><path d="M4966.581,1009.9l23.265-24.893" transform="translate(-4770.607 -970.161)" fill="none" stroke="#393939" stroke-width="2"/><path d="M5056.194,1046.218l22.829-31.7" transform="translate(-4827.452 -988.876)" fill="none" stroke="#393939" stroke-width="2"/><path d="M5093.019,1053.082l36.016,16.461-13.59,20.906,34.855,15.06s5.252-5.379,5.532-10.292" transform="translate(-4850.81 -1013.341)" fill="none" stroke="#393939" stroke-width="2"/><path d="M5123.242,1191.871l29.774,13.553s21.491-.96,15.705-17.381c0,0-2.893-7.276-15.705-12.3" transform="translate(-4869.981 -1091.147)" fill="none" stroke="#393939" stroke-width="2"/><path d="M5107.472,1443.677s4.892,21.248-2.4,33.165" transform="translate(-4858.455 -1261.104)" fill="none" stroke="#393939" stroke-width="2"/><path d="M5004.726,1415.171l-17.887,42.934" transform="translate(-4783.461 -1243.022)" fill="none" stroke="#393939" stroke-width="2"/><path d="M4456.661,1050.368l32.944-26.438,17.006-17.058,22.944-20.4,15.786-13.079-20.694-1.891,8.417-14.437" transform="translate(-4447.155 -952.432)" fill="none" stroke="#393939" stroke-width="2"/><path d="M4610.955,995.664l-16.155,13.912" transform="translate(-4534.777 -976.92)" fill="none" stroke="#393939" stroke-width="2"/><path d="M4589.989,995.877l-1.644-.7h-28.684" transform="translate(-4512.49 -976.611)" fill="none" stroke="#393939" stroke-width="2"/><path d="M4478.292,1036.517l-13.955,12.365" transform="translate(-4452.024 -1002.834)" fill="none" stroke="#393939" stroke-width="2"/><path d="M4476.386,1223.469l35.173,22.117,9.717,2.047" transform="translate(-4459.667 -1121.421)" fill="none" stroke="#393939" stroke-width="2"/><path d="M4696.064,1396.212s-7.442,6.525-16.509,20.276l-17.875,26.344" transform="translate(-4577.205 -1230.996)" fill="none" stroke="#393939" stroke-width="2"/><path d="M4817.823,1444.07l-11.1,20.02" transform="translate(-4669.206 -1261.354)" fill="none" stroke="#393939" stroke-width="2"/><path d="M4824.328,1468.267l5.845-10.181,35.5,20.2" transform="translate(-4680.375 -1270.244)" fill="none" stroke="#393939" stroke-width="2"/></g><path d="M2590.143,1501.453h641.239" transform="translate(10084.316 1812.914)" fill="none" stroke="#393939" stroke-width="2"/><path d="M0,0H641.238" transform="translate(12995.078 2993.748) rotate(90)" fill="none" stroke="#393939" stroke-width="2"/><g transform="translate(12721.438 3031.842)"><g transform="translate(0 0)"><path d="M3002.973,1347.882h0l1.121-.019c6.555-.107,65.388-.939,83.819,3.114,0,0,8.858-9.791,23.99-3.095,0,0,9.553,5.247,24.528,0,0,0,19.446-5.744,23.755,0,0,0,5.456-1.921,6.106,24.715,0,0,1.559,5.763,28.587,0,0,0,2.331-41.14-11.373-47.1,0,0-16.015-10.917-33.067-11.723,0,0-8.183-.093-6.625-19.423l6.625-4.657-.909-4.785s7.74-4.283-1.246-7.908c0,0-13.377.351-13.389-10.407v-6.547s7.5-7.07,21.545-1.339c0,0,10.77,3.657,12.929-4.964V1244.5s-3.677-7.247-22.6-1.794h-8.031l-9.645-6.784h-5.965s-5.242,6.041-8.83,6.784h-9.373s-10.7-5.474-18.874,0c0,0-4.8,9.054,1.148,14.628,0,0,5.687,1.784,16.027,0,0,0,11.491-3.038,14.584,1.366s1.64,3.373,1.64,3.373v7.2s-1.3,5.689-17.09,7.721c0,0-4.435,4.5,2.561,7.908l-1.7,6,6.4,3.446s2.227,13.6-7.257,17c0,0-2.767,3.308-12.55-2.273,0,0-20.546,1.689-87.23,1.37v35.207" transform="translate(-3002.586 -1235.925)" fill="none" stroke="#393939" stroke-width="2"/><path d="M3147.52,1344.273s-6.146,26.268-13.34,36.336-13.9,16.221-11.151,29.681,15.24,19.172,21.36,20.329,20.243-.6,25.313-8.622S3180.479,1386.269,3147.52,1344.273Z" transform="translate(-2966.57 -1177.341)" fill="none" stroke="#393939" stroke-width="2"/><path d="M2757.583,1341.279h47.032" transform="translate(-2657.088 -1287.262)" fill="none" stroke="#393939" stroke-width="2"/><path d="M2802.116,1399.971s11.751,1.946,28.542-2.715" transform="translate(-2638.779 -1264.249)" fill="none" stroke="#393939" stroke-width="2"/><path d="M2802.116,1398.293s17.672.739,29.578-3.576" transform="translate(-2638.779 -1265.291)" fill="none" stroke="#393939" stroke-width="2"/><path d="M2757.583,1332.616a262.9,262.9,0,0,0,45.416,0" transform="translate(-2657.088 -1290.823)" fill="none" stroke="#393939" stroke-width="2"/><g transform="translate(113.783 1.411)" fill="none" stroke="#393939" stroke-width="2"><circle cx="11.289" cy="11.289" r="11.289" stroke="none"/><circle cx="11.289" cy="11.289" r="10.289" fill="none"/></g><path d="M2769.056,1320.657s6.031,3.226,15.772,0" transform="translate(-2652.372 -1295.74)" fill="none" stroke="#393939" stroke-width="2"/><path d="M2767.917,1319.624l2.125-2.169" transform="translate(-2652.84 -1297.057)" fill="none" stroke="#393939" stroke-width="2"/><path d="M2782.492,1318.64l-2.009-1.433" transform="translate(-2647.672 -1297.159)" fill="none" stroke="#393939" stroke-width="2"/><path d="M2747.013,1396.439s-3.158-21.647,1.346-41.778" transform="translate(-2661.876 -1281.76)" fill="none" stroke="#393939" stroke-width="2"/></g><path d="M2812.388,1457.827c-1.959.284-6.812,8.431-8.288,14.483-1.553,6.353,1.5,7.582,2.954,4.931,3.095-8.071,1.7-8.274,7.634-15.836a5.25,5.25,0,0,0,.389-2.527C2815.087,1458.367,2814.49,1457.522,2812.388,1457.827Z" transform="translate(-2639.551 -1249.774)" fill="none" stroke="#393939" stroke-width="2"/></g><g transform="translate(13037.38 3120.769)"><path d="M3168.682,1306.724l-54.522,123.705h266.39l-54.675-123.705Z" transform="translate(-3114.16 -1306.724)" fill="none" stroke="#393939" stroke-width="2"/><path d="M3281.214,1308.631" transform="translate(-3107.089 -1305.601)" fill="none" stroke="#393939" stroke-width="2"/><path d="M3188.639,1383.88h-48.622l-16.154,38.271h56.681Z" transform="translate(-3113.542 -1302.28)" fill="none" stroke="#393939" stroke-width="2"/><path d="M3189.3,1380.622l6.51-28.713h-42.346l-11.952,28.713Z" transform="translate(-3112.795 -1303.633)" fill="none" stroke="#393939" stroke-width="2"/><path d="M3195.881,1350.2l4.893-21.944h-37.244l-9.342,21.944Z" transform="translate(-3112.259 -1304.635)" fill="none" stroke="#393939" stroke-width="2"/><path d="M3200.951,1326.083l3.909-17.583h-33.338l-7,17.583Z" transform="translate(-3111.821 -1305.47)" fill="none" stroke="#393939" stroke-width="2"/><path d="M3204.639,1326.077l3.433-17.42h32.6v17.42Z" transform="translate(-3110.123 -1305.464)" fill="none" stroke="#393939" stroke-width="2"/><path d="M3245.232,1326.071v-17.288h32.453l3.426,17.288Z" transform="translate(-3108.403 -1305.459)" fill="none" stroke="#393939" stroke-width="2"/><path d="M3284.952,1326.078l-4-17.438h33.37l7.216,17.438Z" transform="translate(-3106.893 -1305.464)" fill="none" stroke="#393939" stroke-width="2"/><path d="M3285.248,1328.253l4.922,22.137h41.681l-9.384-22.137Z" transform="translate(-3106.71 -1304.634)" fill="none" stroke="#393939" stroke-width="2"/><path d="M3245.232,1352.091h41.712l5.906,28.694h-47.618Z" transform="translate(-3108.403 -1303.625)" fill="none" stroke="#393939" stroke-width="2"/><path d="M3290.916,1352.091H3332.8l11.858,28.636h-47.726Z" transform="translate(-3106.47 -1303.625)" fill="none" stroke="#393939" stroke-width="2"/><path d="M3245.232,1383.88h48.439l7.8,37.778h-56.24Z" transform="translate(-3108.403 -1302.28)" fill="none" stroke="#393939" stroke-width="2"/><path d="M3297.779,1383.88h48.512l15.779,37.791h-55.722Z" transform="translate(-3106.179 -1302.28)" fill="none" stroke="#393939" stroke-width="2"/><path d="M3193.353,1383.88l-7.411,37.834h55.493V1383.88Z" transform="translate(-3110.913 -1302.28)" fill="none" stroke="#393939" stroke-width="2"/><path d="M3194.039,1380.621l5.612-28.715h41.382v28.715Z" transform="translate(-3110.571 -1303.633)" fill="none" stroke="#393939" stroke-width="2"/><path d="M3204.317,1328.255h36.371v22.139h-40.955Z" transform="translate(-3110.33 -1304.635)" fill="none" stroke="#393939" stroke-width="2"/><path d="M3245.232,1328.255v21.908h41.11l-4.44-21.908Z" transform="translate(-3108.403 -1304.635)" fill="none" stroke="#393939" stroke-width="2"/><path d="M3235.2,1425.143v15.919s-5.517-1.252-5.455,4.461v8.947h-36.788s-3.339.142-3.239,2.686v5.851s.154,2.366,3.239,2.49h103.2s2.269-.01,2.269-3.059v-6.306s-.067-1.717-3.235-1.663h-36.613v-8.947s.726-4.358-5.981-4.461v-15.919" transform="translate(-3110.963 -1300.669)" fill="none" stroke="#393939" stroke-width="2"/></g><g transform="translate(12702.939 3455.861)"><path d="M3124.953,2198.533l5.168,2.068s5.159-6.083,5.237-9.432,7.577-7.043,11.086-7.38c0,0-.815-4.537,2.194-7.117,0,0,7.223-1.679,7.413-14,0,0-.679-4.223,6.159-9.683,0,0,5.606-2.233,3.927-14.711a110.111,110.111,0,0,1,8.767-12.934s.912-3.474-3.93-2.582v-7.391s.192-2.617,6.9-1.174v-12.572s5.869-7.334-2.975-10.227v-7.31c0-1.827-4.226-6.066-8.767-5.144l-3.927-6.333s-7.405-2.845-7.75-8.348l8.858-8.176-6.071-3.318s1.11-4.721-8.761-1.759l-1.57-7.536s-2.871,2.561-3.822,0l-1.574-8.993s-2.591,4.9-11.7,1.326c0,0-3.778.093-6.771,7.667,0,0-2.088-6.077-5,0,0,0,1.563,7.074-1.583,9.3,0,0-3.649,1.031-6.359,0,0,0-2.718-4.535-2.979-8.348s-4.269-3.989-4.269-3.989a12.2,12.2,0,0,0-7.238,3.99c-3.218,3.6-25.788-3.193-25.788-3.193s.427,5.2-7.125,5.947-7.649,5.594-7.649,5.594a11.087,11.087,0,0,1-4.256,7.291,30.735,30.735,0,0,0-1.591,12.551h2.658l2.259-1.868,2.442,8.919,4.259,4.425h3.874l1.831,1.569h2.438l-1.193,1.808s6.19,5.641,10.63,4.72c0,0,3.212,19.652,17.21,22l-6.79,3.568,3.25,9.862,3.539,3.984-2.331,6.672,4.184,1.494-1.854,8.352,3.886,6.839,10.251,5.5,13.35,22-9.49-1.6-10.7-19.53s-6.3-4.842-9.63-4.959l-4.458-6.964,1.419-9-4.755-.626,3.336-8.167-4.071-3.984-3.447-9.862,6.653-2.39s-13.2-2.541-16.351-22.325c0,0-6.738,1.241-13.583-8.126,0,0-10.079,1.986-10.722-14.171l-6.233,4.84-10.984.879-5.091-4.606s-5.549,7.891-10.39,5.485l-12.279,10.123v9.178l6.4,4.365-1.053,18.441-4.608,4.215,4.608,17.444a21,21,0,0,1,6.594-5.236c6.065-3.4,17.9-6.843,37.6-2.3l3.592,1.649s15.393,14.856,18.3,22.858c0,0,4.366,13.723,16.489,13.216,0,0,10.73,10.34,21.3,11.168l8.179,6.838Z" transform="translate(-3002.33 -2034.483)" fill="none" stroke="#393939" stroke-width="2"/><path d="M3172.215,2206.438l.542,2.4s13.4,4.141,10.61-10.914l-6.435-26.1s13.46-9.382,21.023-58.083c0,0-5.673,32.035-25.431,43.948l-8.184-20.176s7.1-5.05,7.231-25.3c0,0,1.154,9.978-8.964,21.4l-14.311-30.9,13.251,45.21s-9.7-.048-15.732-3.543c0,0,10.158,8.021,16.792,9.254Z" transform="translate(-3051.11 -2057.675)" fill="none" stroke="#393939" stroke-width="2"/><path d="M3109.861,2209.981l-1.572-11.588s-7.263.447-26.844-29.325c0,0,.6-11.4-23.545-33.09,0,0,11.092,14.845,14.161,24.1,0,0-8.2-5.638-15.367-5.638,0,0-8.193-20.871-33.812-19.233,0,0,16.662.412,28.577,18.569,0,0-16.245.766-27.859,5.277,0,0,27.142-4.915,40.33,7.4a189.528,189.528,0,0,1,23.03,26.406S3102.963,2209.649,3109.861,2209.981Z" transform="translate(-3009.315 -2068.69)" fill="none" stroke="#393939" stroke-width="2"/><path d="M3235.287,2084.663a10.084,10.084,0,0,0,6.342,5.489l3.127,6.391s3.776-3.053,9.291,5.592v5.832s-.927,1.879,2.424,3.063c0,0,4.047,4.056,0,9.547V2132.4s-6.383-1.934-8.692.727v7.4s6.111.033,1.507,5.274c0,0-6.4,7.364-6.945,8.992s-.711,9.051-.711,9.051,1.112,4.421-5.74,7.881c0,0-4.105,2.225-4.57,8.724,0,0,0,9.705-8.751,14.576a3.317,3.317,0,0,0-1.387,3.276s20.857-16.034,26.6-25.629,12.575-28.317,12.806-35.183a171.074,171.074,0,0,0,1.48-19.4,156.9,156.9,0,0,1-2.226,30.359c-.36,2.046-.87,4.518-1.477,6.981,0,0,7.131-13.213,9.029-23.769,0,0-4.212,24.735-22.059,50.3,0,0-5.321,8.574-22.766,17.075l-.917,1.7s-6.51-.4-9.164,2.856a57.178,57.178,0,0,0,27.4-12.891c12.563-10.992,22.659-30.548,23.128-32.926s7.844-19.109,8.3-26.111,8.787-9.51,8.787-9.51a13.6,13.6,0,0,1,5.425.534c2.134.88,7.978-2.836,7.978-2.836s2.161-1.9,1.125-7.684a4.23,4.23,0,0,1,3.415-4.195s2.819-2.2,0-6.491c0,0,1.786-1.9,0-4.934s-3.415-3.189-3.415-3.189a13.616,13.616,0,0,1-6.932-8.691c-1.456-6.169-13.522,1.2-13.522,1.2a12.591,12.591,0,0,1-5.026-5.625,9.44,9.44,0,0,0-7.1,1.323s-2.742-3.429-8.018,5.42c0,0-1.027-5.959-7.939-5.42,0,0-6.167-2.4-9.1,3.1Z" transform="translate(-3073.77 -2049.965)" fill="none" stroke="#393939" stroke-width="2"/></g><path d="M13041.654,3393.985l28.876,16.165,41.682-55.565-28.364-12.033-28,36.949Z" transform="translate(110.335 104.808)" fill="none" stroke="#393939" stroke-width="2"/><path d="M13102.841,3336.8l-24.692,31.676-17.434,21.4-12.861,12.349-28.677-17.8,43.252-44.776-23.921-11.559,12.032-14.025Z" transform="translate(103.581 96.249)" fill="none" stroke="#393939" stroke-width="2"/><path d="M13044.2,3317.766l50.64,22.817,12.924-16.208-21.18-8.43-8.857-5.711-17.247-8.487Z" transform="translate(111.097 92.546)" fill="none" stroke="#393939" stroke-width="2"/><path d="M13063.758,3407.408l41.527-55.721,29.229,11.143-36.984,61.516Z" transform="translate(116.977 107.553)" fill="none" stroke="#393939" stroke-width="2"/><path d="M13053.691,3431.885l-34.82-18.676,20.432-23.371,9.455-8.234,28.713,16.336-22.051,30.3Z" transform="translate(103.493 116.541)" fill="none" stroke="#393939" stroke-width="2"/><path d="M13025.73,3368.541l-19.162,19.871-9.211,6.99v4.2l28.373,18.009,13.692-18.009,14.777-13.811Z" transform="translate(97.026 112.618)" fill="none" stroke="#393939" stroke-width="2"/><path d="M12999.588,3366.892l44.686-42.178,23.952,11.708-43.893,45.675Z" transform="translate(97.695 99.449)" fill="none" stroke="#393939" stroke-width="2"/><path d="M13082.9,3450.881l-38.117-22.717L13069.7,3394l33.877,17.6Z" transform="translate(111.275 120.267)" fill="none" stroke="#393939" stroke-width="2"/><path d="M13089.984,3421.888l37.308-62.033,34.14,13.039-7.99,20.257-22.1,49.262Z" transform="translate(124.858 110.008)" fill="none" stroke="#393939" stroke-width="2"/><path d="M13117.35,3471.28h-3.717l-40.055-25.057,21.531-38.871,40.666,20.072Z" transform="translate(119.928 124.279)" fill="none" stroke="#393939" stroke-width="2"/><path d="M13115.781,3362.706l-40.562-16.556,10.529-14.727,42.439,19.267Z" transform="translate(120.421 101.465)" fill="none" stroke="#393939" stroke-width="2"/><path d="M13096.035,3318.952l10.54,3.829,32.784,18.971-13.659,12.617-42.474-19.006Z" transform="translate(122.822 97.717)" fill="none" stroke="#393939" stroke-width="2"/><path d="M12984.79,3361.2l19.4,10.865,56.552-55.676-17.644-8.2-15.658,15.334-19.8,14.941-13.127,11.411-7.936,8.2Z" transform="translate(93.25 94.484)" fill="none" stroke="#393939" stroke-width="2"/><path d="M12971.338,3365.058l17.983-16.319,43.771,26.057-17.8,18.9-7.295-4.775-6.63,8.407-30.029-22.533-1.7-5.861Z" transform="translate(88.697 106.668)" fill="none" stroke="#393939" stroke-width="2"/><path d="M13132.3,3336.2l-25.605,25.224,46.71,17.336,14.087-22.707-23.924-11.213Z" transform="translate(129.88 102.899)" fill="none" stroke="#393939" stroke-width="2"/><path d="M13017.762,3322.145l-21.225-1.814,16.352-14.264,21.2,2.317Z" transform="translate(96.776 93.846)" fill="none" stroke="#393939" stroke-width="2"/><path d="M13042.6,3297.843l-12.652,13.329,17.907,8.492,17.278-17.054Z" transform="translate(106.818 91.375)" fill="none" stroke="#393939" stroke-width="2"/><path d="M12994.785,3387.885l4.481,3.759,8.147-7.46-6.975-4.012Z" transform="translate(96.252 116.113)" fill="none" stroke="#393939" stroke-width="2"/><path d="M13151.705,3373.088l26.048,12.07-9.047,11.683-7.263,14.115-7.13,18.975-6.279,20.19-25.674-12.32s7.756-18.077,15.941-35.762c.422-.91,6.842-15.807,10.836-24.438a23.666,23.666,0,0,1,2.567-4.513" transform="translate(134.585 113.984)" fill="none" stroke="#393939" stroke-width="2"/><path d="M13145.652,3376.681l1.708-1.446,28.355,13.083,10.429-2.6,6.34-5.17v-7.061l-2.951-6.263-7.614-6.11-24.422-10.042-15,24.163Z" transform="translate(140.637 107.37)" fill="none" stroke="#393939" stroke-width="2"/><path d="M13161.641,3359.8l14.407-21.3-36.417-16.467-13.47,18.5,10.458,7.444Z" transform="translate(135.727 98.644)" fill="none" stroke="#393939" stroke-width="2"/><g transform="translate(13033.623 3381.409)" style="isolation:isolate"><path d="M4675.75,1158.671l-42.984-25.891-35.5-21.2-34.213-18.986-28.887-18.361,1.952-3.591-31.268-22.447s-8.889-5.061-3.581-14.535l17.74-15.547,5.549-7.228,16.623-14.366,21.877-17.066,13.9-13.26,20.312-21.783" transform="translate(-4474.38 -944.405)" fill="none" stroke="#393939" stroke-width="2"/><path d="M4529.409,1035.9l-22.731-1.666-50.021,1.666" transform="translate(-4447.155 -1001.389)" fill="none" stroke="#393939" stroke-width="2"/><path d="M4473.411,1114.455l-7.3-4.109-35.449-11.067" transform="translate(-4430.666 -1042.645)" fill="none" stroke="#393939" stroke-width="2"/><path d="M4478.155,1254.362l-25.672,22.445" transform="translate(-4444.504 -1141.017)" fill="none" stroke="#393939" stroke-width="2"/><path d="M4550.229,1300.085l-25.1,24.77" transform="translate(-4490.585 -1170.02)" fill="none" stroke="#393939" stroke-width="2"/><path d="M4585.205,1265.675l6.83-8.063,7.373,3.848-8.917,7.812" transform="translate(-4528.693 -1143.079)" fill="none" stroke="#393939" stroke-width="2"/><path d="M4579.227,1192.34l18.142-18.882L4571.444,1158l-18.057-10.157" transform="translate(-4508.506 -1073.451)" fill="none" stroke="#393939" stroke-width="2"/><path d="M4582.089,1103.631l23.9-22.518L4626.8,1062l24.545,11.338-43.63,45,29.637,18.479,28.214,15.323,34.243,17.26,40.6,19.626,27.118,12.541s12.592-48.549,30.016-64.748l-27.653-12.593,1.854-3.284-36.5-13.748-28.859-10.428-26.779-11.916s-26.854,37.048-42.26,50.033S4607.7,1167.7,4607.7,1167.7s-4.294-1.05-16.46,17.873l-22.154,22.964" transform="translate(-4518.474 -1019.001)" fill="none" stroke="#393939" stroke-width="2"/><path d="M4833.208,1158.652c-3.075,3.16-41.94,55.067-41.94,55.067l-23.9,33.047" transform="translate(-4644.243 -1080.306)" fill="none" stroke="#393939" stroke-width="2"/><path d="M4926.818,1188.416l-17.224,28.985-19.37,31.78-20.871,39.127" transform="translate(-4708.934 -1099.186)" fill="none" stroke="#393939" stroke-width="2"/><path d="M5065.886,1229.787l-14.166,34.257-14.577,31.788-1.867,2.081" transform="translate(-4814.184 -1125.429)" fill="none" stroke="#393939" stroke-width="2"/><path d="M4960.519,1105.911l14.268-23.051s-27.824-12.356-36.555-20.132c0,0-27.839-14.859-31.566-18.242l-10.014-4.26L4883,1057.01l-10.594,14.785" transform="translate(-4710.871 -1005.186)" fill="none" stroke="#393939" stroke-width="2"/><path d="M4985.223,1129.963s21.566-21.861,25.953-23.527" transform="translate(-4782.434 -1047.185)" fill="none" stroke="#393939" stroke-width="2"/><path d="M4835.135,1065.79l-95-41.978-11.984,13.626" transform="translate(-4619.373 -994.775)" fill="none" stroke="#393939" stroke-width="2"/><path d="M4714.382,979.819l17.6,7.909,17.271-16.662-23.039-4.943" transform="translate(-4610.633 -958.182)" fill="none" stroke="#393939" stroke-width="2"/><path d="M4809.729,980.1s13.646,7.47,16.71,8.751l9.227,5.837,20.96,7.558" transform="translate(-4671.113 -967.046)" fill="none" stroke="#393939" stroke-width="2"/><path d="M4879.236,979.59l25.542-23.371" transform="translate(-4715.204 -951.902)" fill="none" stroke="#393939" stroke-width="2"/><path d="M4966.581,1009.9l23.265-24.893" transform="translate(-4770.607 -970.161)" fill="none" stroke="#393939" stroke-width="2"/><path d="M5056.194,1046.218l22.829-31.7" transform="translate(-4827.452 -988.876)" fill="none" stroke="#393939" stroke-width="2"/><path d="M5093.019,1053.082l36.016,16.461-13.59,20.906,34.855,15.06s5.252-5.379,5.532-10.292" transform="translate(-4850.81 -1013.341)" fill="none" stroke="#393939" stroke-width="2"/><path d="M5123.242,1191.871l29.774,13.553s21.491-.96,15.705-17.381c0,0-2.893-7.276-15.705-12.3" transform="translate(-4869.981 -1091.147)" fill="none" stroke="#393939" stroke-width="2"/><path d="M5107.472,1443.677s4.892,21.248-2.4,33.165" transform="translate(-4858.455 -1261.104)" fill="none" stroke="#393939" stroke-width="2"/><path d="M5004.726,1415.171l-17.887,42.934" transform="translate(-4783.461 -1243.022)" fill="none" stroke="#393939" stroke-width="2"/><path d="M4456.661,1050.368l32.944-26.438,17.006-17.058,22.944-20.4,15.786-13.079-20.694-1.891,8.417-14.437" transform="translate(-4447.155 -952.432)" fill="none" stroke="#393939" stroke-width="2"/><path d="M4610.955,995.664l-16.155,13.912" transform="translate(-4534.777 -976.92)" fill="none" stroke="#393939" stroke-width="2"/><path d="M4589.989,995.877l-1.644-.7h-28.684" transform="translate(-4512.49 -976.611)" fill="none" stroke="#393939" stroke-width="2"/><path d="M4478.292,1036.517l-13.955,12.365" transform="translate(-4452.024 -1002.834)" fill="none" stroke="#393939" stroke-width="2"/><path d="M4476.386,1223.469l35.173,22.117,9.717,2.047" transform="translate(-4459.667 -1121.421)" fill="none" stroke="#393939" stroke-width="2"/><path d="M4696.064,1396.212s-7.442,6.525-16.509,20.276l-17.875,26.344" transform="translate(-4577.205 -1230.996)" fill="none" stroke="#393939" stroke-width="2"/><path d="M4817.823,1444.07l-11.1,20.02" transform="translate(-4669.206 -1261.354)" fill="none" stroke="#393939" stroke-width="2"/><path d="M4824.328,1468.267l5.845-10.181,35.5,20.2" transform="translate(-4680.375 -1270.244)" fill="none" stroke="#393939" stroke-width="2"/></g></g></svg>