<svg xmlns="http://www.w3.org/2000/svg" width="511.722" height="493.078" viewBox="0 0 511.722 493.078"><g transform="translate(-12674.46 -2993.748)"><path d="M2590.143,1501.453h493.079" transform="translate(10084.316 1738.834)" fill="none" stroke="#262626" stroke-width="2"/><path d="M0,0H493.078" transform="translate(12920.999 2993.748) rotate(90)" fill="none" stroke="#262626" stroke-width="2"/><g transform="translate(12334.758 1772.04)"><g transform="translate(375.825 1251)"><path d="M3002.884,1322.014h0l.862-.014c5.04-.083,50.281-.722,64.452,2.394,0,0,6.814-7.529,18.448-2.38,0,0,7.346,4.035,18.861,0,0,0,14.953-4.417,18.267,0,0,0,4.195-1.474,4.7,19,0,0,1.2,4.434,21.981,0,0,0,1.792-31.634-8.746-36.221,0,0-12.315-8.4-25.427-9.015,0,0-6.292-.072-5.095-14.936l5.095-3.581-.7-3.679s5.952-3.293-.957-6.08c0,0-10.286.27-10.3-8v-5.034s5.767-5.437,16.567-1.029c0,0,8.281,2.812,9.942-3.816v-7.1s-2.827-5.572-17.376-1.379h-6.176l-7.416-5.217h-4.586s-4.03,4.646-6.79,5.217h-7.208s-8.23-4.209-14.513,0c0,0-3.695,6.962.883,11.248,0,0,4.373,1.372,12.324,0,0,0,8.836-2.336,11.214,1.05s1.261,2.594,1.261,2.594v5.536s-1,4.374-13.141,5.937c0,0-3.411,3.462,1.972,6.08l-1.307,4.611,4.918,2.65s1.713,10.457-5.584,13.073c0,0-2.128,2.54-9.65-1.748,0,0-15.8,1.3-67.076,1.053V1320.3" transform="translate(-3002.584 -1235.925)" fill="none" stroke="#262626" stroke-width="2"/><path d="M3141.716,1344.273s-4.726,20.2-10.254,27.941-10.691,12.471-8.575,22.823,11.719,14.742,16.424,15.632,15.566-.458,19.464-6.63S3167.061,1376.565,3141.716,1344.273Z" transform="translate(-3002.574 -1215.911)" fill="none" stroke="#262626" stroke-width="2"/><path d="M2757.583,1341.279h36.165" transform="translate(-2680.307 -1299.743)" fill="none" stroke="#262626" stroke-width="2"/><path d="M2802.116,1399.34s9.037,1.5,21.947-2.088" transform="translate(-2676.517 -1294.98)" fill="none" stroke="#262626" stroke-width="2"/><path d="M2802.116,1397.467s13.589.568,22.744-2.75" transform="translate(-2676.517 -1295.196)" fill="none" stroke="#262626" stroke-width="2"/><path d="M2757.583,1332.617a202.177,202.177,0,0,0,34.922,0" transform="translate(-2680.307 -1300.48)" fill="none" stroke="#262626" stroke-width="2"/><g transform="translate(87.495 1.085)" fill="none" stroke="#262626" stroke-width="2"><circle cx="8.681" cy="8.681" r="8.681" stroke="none"/><circle cx="8.681" cy="8.681" r="7.681" fill="none"/></g><path d="M2769.055,1320.657s4.637,2.48,12.128,0" transform="translate(-2679.33 -1301.497)" fill="none" stroke="#262626" stroke-width="2"/><path d="M2767.917,1319.122l1.634-1.668" transform="translate(-2679.427 -1301.77)" fill="none" stroke="#262626" stroke-width="2"/><path d="M2782.029,1318.309l-1.544-1.1" transform="translate(-2678.358 -1301.791)" fill="none" stroke="#262626" stroke-width="2"/><path d="M2746.765,1386.786s-2.428-16.646,1.035-32.125" transform="translate(-2681.297 -1298.604)" fill="none" stroke="#262626" stroke-width="2"/></g><path d="M2810.374,1457.812c-1.507.218-5.238,6.487-6.373,11.136-1.194,4.885,1.156,5.83,2.271,3.792,2.377-6.207,1.308-6.362,5.869-12.177a4.037,4.037,0,0,0,.3-1.943C2812.45,1458.227,2811.99,1457.578,2810.374,1457.812Z" transform="translate(-2301.645 -46.831)" fill="none" stroke="#262626" stroke-width="2"/></g><g transform="translate(12266.365 1860.615)"><g transform="translate(687.161 1230.806)"><path d="M3156.086,1306.724l-41.925,95.715H3319l-42.042-95.715Z" transform="translate(-3114.161 -1306.724)" fill="none" stroke="#262626" stroke-width="2"/><path d="M3281.214,1308.631" transform="translate(-3147.321 -1306.301)" fill="none" stroke="#262626" stroke-width="2"/><path d="M3173.672,1383.88h-37.391l-12.421,29.429h43.585Z" transform="translate(-3116.086 -1321.238)" fill="none" stroke="#262626" stroke-width="2"/><path d="M3178.258,1373.987l5-22.079H3150.7l-9.189,22.079Z" transform="translate(-3119.59 -1314.892)" fill="none" stroke="#262626" stroke-width="2"/><path d="M3186.247,1345.13l3.762-16.875h-28.641l-7.184,16.875Z" transform="translate(-3122.105 -1310.197)" fill="none" stroke="#262626" stroke-width="2"/><path d="M3192.534,1322.021l3.006-13.521h-25.635l-5.384,13.521Z" transform="translate(-3124.157 -1306.275)" fill="none" stroke="#262626" stroke-width="2"/><path d="M3204.639,1322.052l2.64-13.395h25.07v13.395Z" transform="translate(-3132.121 -1306.306)" fill="none" stroke="#262626" stroke-width="2"/><path d="M3245.232,1322.077v-13.3h24.954l2.634,13.3Z" transform="translate(-3140.178 -1306.331)" fill="none" stroke="#262626" stroke-width="2"/><path d="M3284.027,1322.048l-3.075-13.409h25.66l5.549,13.409Z" transform="translate(-3147.269 -1306.303)" fill="none" stroke="#262626" stroke-width="2"/><path d="M3285.248,1328.253l3.785,17.022h32.051l-7.216-17.022Z" transform="translate(-3148.121 -1310.196)" fill="none" stroke="#262626" stroke-width="2"/><path d="M3245.232,1352.092h32.074l4.541,22.064h-36.615Z" transform="translate(-3140.178 -1314.928)" fill="none" stroke="#262626" stroke-width="2"/><path d="M3290.916,1352.092h32.21l9.118,22.02h-36.7Z" transform="translate(-3149.247 -1314.928)" fill="none" stroke="#262626" stroke-width="2"/><path d="M3245.232,1383.88h37.248l6,29.052h-43.248Z" transform="translate(-3140.178 -1321.238)" fill="none" stroke="#262626" stroke-width="2"/><path d="M3297.779,1383.88h37.3l12.134,29.06h-42.847Z" transform="translate(-3150.609 -1321.238)" fill="none" stroke="#262626" stroke-width="2"/><path d="M3191.642,1383.88l-5.7,29.092h42.674V1383.88Z" transform="translate(-3128.41 -1321.238)" fill="none" stroke="#262626" stroke-width="2"/><path d="M3194.039,1373.987l4.316-22.08h31.821v22.08Z" transform="translate(-3130.017 -1314.891)" fill="none" stroke="#262626" stroke-width="2"/><path d="M3203.258,1328.255h27.967v17.022h-31.492Z" transform="translate(-3131.147 -1310.197)" fill="none" stroke="#262626" stroke-width="2"/><path d="M3245.232,1328.255V1345.1h31.611l-3.415-16.846Z" transform="translate(-3140.178 -1310.197)" fill="none" stroke="#262626" stroke-width="2"/><path d="M3224.687,1425.144v12.241s-4.242-.963-4.194,3.43v6.88h-28.288s-2.568.109-2.49,2.065v4.5s.118,1.819,2.49,1.914h79.352s1.745-.007,1.745-2.352v-4.849s-.052-1.321-2.487-1.279h-28.154v-6.88s.558-3.351-4.6-3.43v-12.241" transform="translate(-3129.158 -1329.429)" fill="none" stroke="#262626" stroke-width="2"/></g><path d="M3203.223,1247.676v-58.91" transform="translate(-2443.281 -24.065)" fill="none" stroke="#262626" stroke-width="2"/><path d="M3203.223,1199.68l10.915-10.914,10.914,10.914" transform="translate(-2454.195 -24.065)" fill="none" stroke="#262626" stroke-width="2"/><path d="M3203.223,1270.073v-81.307" transform="translate(-2413.642 -46.462)" fill="none" stroke="#262626" stroke-width="2"/><path d="M3203.223,1199.68l10.915-10.914,10.914,10.914" transform="translate(-2424.556 -46.461)" fill="none" stroke="#262626" stroke-width="2"/><path d="M3203.223,1229.419v-40.653" transform="translate(-2384.004 -5.808)" fill="none" stroke="#262626" stroke-width="2"/><path d="M3203.223,1199.68l10.915-10.914,10.914,10.914" transform="translate(-2394.918 -5.808)" fill="none" stroke="#262626" stroke-width="2"/></g><path d="M3203.223,1247.676v-58.91" transform="translate(9557.321 2092.159)" fill="none" stroke="#262626" stroke-width="2"/><path d="M3203.223,1199.68l10.915-10.914,10.914,10.914" transform="translate(9546.407 2092.159)" fill="none" stroke="#262626" stroke-width="2"/><path d="M3203.223,1270.073v-81.307" transform="translate(9586.96 2069.763)" fill="none" stroke="#262626" stroke-width="2"/><path d="M3203.223,1199.68l10.915-10.914,10.914,10.914" transform="translate(9576.046 2069.763)" fill="none" stroke="#262626" stroke-width="2"/><path d="M3203.223,1229.419v-40.653" transform="translate(9616.598 2110.416)" fill="none" stroke="#262626" stroke-width="2"/><path d="M3203.223,1199.68l10.915-10.914,10.914,10.914" transform="translate(9605.684 2110.416)" fill="none" stroke="#262626" stroke-width="2"/><g transform="translate(12121.029 1367.606)"><path d="M3096.621,2160.63l3.974,1.59s3.967-4.678,4.027-7.252,5.823-5.413,8.524-5.674c0,0-.627-3.489,1.687-5.472,0,0,5.554-1.291,5.7-10.765,0,0-.522-3.247,4.736-7.445,0,0,4.311-1.717,3.02-11.312a84.632,84.632,0,0,1,6.742-9.946s.7-2.671-3.023-1.985v-5.683s.147-2.013,5.309-.906v-9.661s4.512-5.639-2.286-7.864v-5.621c0-1.405-3.25-4.664-6.742-3.955l-3.02-4.869s-5.695-2.187-5.959-6.42l6.812-6.287-4.669-2.552s.853-3.63-6.737-1.353l-1.208-5.8s-2.208,1.968-2.938,0l-1.21-6.915s-1.992,3.766-9,1.02c0,0-2.9.071-5.207,5.9,0,0-1.6-4.672-3.842,0,0,0,1.2,5.44-1.217,7.148a9.211,9.211,0,0,1-4.89,0,17.73,17.73,0,0,1-2.29-6.419c-.2-2.931-3.283-3.067-3.283-3.067a9.378,9.378,0,0,0-5.566,3.067c-2.474,2.771-19.829-2.455-19.829-2.455s.331,4-5.479,4.573-5.882,4.3-5.882,4.3a8.526,8.526,0,0,1-3.273,5.607,23.63,23.63,0,0,0-1.224,9.651h2.044l1.737-1.437,1.878,6.858,3.275,3.4h2.979l1.408,1.207h1.874l-.917,1.39s4.761,4.338,8.174,3.63c0,0,2.47,15.112,13.234,16.919l-5.221,2.743,2.5,7.583,2.721,3.064-1.792,5.13,3.218,1.149-1.426,6.422,2.988,5.26,7.883,4.232,10.265,16.913-7.3-1.232-8.226-15.021s-4.846-3.723-7.405-3.813l-3.429-5.356,1.091-6.923-3.656-.481,2.565-6.28-3.131-3.064-2.651-7.583,5.115-1.837s-10.153-1.954-12.573-17.167c0,0-5.182.954-10.444-6.249,0,0-7.75,1.527-8.245-10.9l-4.793,3.721-8.447.677-3.915-3.542s-4.267,6.068-7.99,4.218l-9.442,7.783v7.055l4.92,3.356-.81,14.18-3.544,3.241,3.544,13.414s8.312-11.714,33.982-5.8l2.762,1.268s11.836,11.424,14.071,17.576c0,0,3.357,10.553,12.679,10.162,0,0,8.252,7.951,16.378,8.588l6.289,5.259Z" transform="translate(-2427 -53)" fill="none" stroke="#262626" stroke-width="2"/><path d="M3166.117,2182.471l.417,1.844s10.306,3.184,8.158-8.392l-4.948-20.066s10.35-7.214,16.169-44.663c0,0-4.363,24.633-19.555,33.793l-6.293-15.514s5.459-3.883,5.56-19.457c0,0,.887,7.672-6.889,16.456l-11-23.762,10.19,34.764s-7.462-.037-12.1-2.724c0,0,7.811,6.168,12.912,7.116Z" transform="translate(-2497.663 -86.597)" fill="none" stroke="#262626" stroke-width="2"/><path d="M3089.764,2192.683l-1.209-8.911s-5.585.344-20.642-22.55c0,0,.46-8.767-18.105-25.445,0,0,8.529,11.416,10.888,18.533,0,0-6.309-4.335-11.819-4.335,0,0-6.3-16.048-26-14.789,0,0,12.812.317,21.975,14.275,0,0-12.492.589-21.422,4.058,0,0,20.87-3.78,31.012,5.69a145.746,145.746,0,0,1,17.709,20.305S3084.459,2192.428,3089.764,2192.683Z" transform="translate(-2437.119 -102.555)" fill="none" stroke="#262626" stroke-width="2"/><path d="M3230.02,2083.593a7.753,7.753,0,0,0,4.877,4.22l2.4,4.915s2.9-2.348,7.145,4.3v4.485s-.713,1.445,1.863,2.355c0,0,3.111,3.121,0,7.341v9.094s-4.908-1.487-6.684.559v5.69s4.7.026,1.158,4.056c0,0-4.917,5.665-5.34,6.915s-.547,6.96-.547,6.96.855,3.4-4.415,6.06c0,0-3.157,1.711-3.514,6.709,0,0,0,7.463-6.729,11.209a2.55,2.55,0,0,0-1.071,2.52s16.038-12.33,20.458-19.708,9.67-21.774,9.847-27.054a131.5,131.5,0,0,0,1.138-14.92,115.858,115.858,0,0,1-2.847,28.713s5.483-10.16,6.943-18.278a106.326,106.326,0,0,1-16.962,38.681s-4.091,6.593-17.506,13.126l-.7,1.3s-5-.305-7.047,2.2a43.965,43.965,0,0,0,21.074-9.912c9.66-8.451,17.423-23.49,17.784-25.318s6.032-14.693,6.386-20.077,6.756-7.312,6.756-7.312a10.452,10.452,0,0,1,4.171.408c1.639.677,6.135-2.181,6.135-2.181s1.662-1.457.865-5.908a3.253,3.253,0,0,1,2.622-3.226s2.167-1.691,0-4.991c0,0,1.373-1.46,0-3.794s-2.622-2.452-2.622-2.452a10.468,10.468,0,0,1-5.33-6.683c-1.12-4.744-10.4.922-10.4.922a9.682,9.682,0,0,1-3.865-4.325,7.261,7.261,0,0,0-5.457,1.017s-2.108-2.636-6.165,4.168c0,0-.79-4.583-6.1-4.168,0,0-4.742-1.848-7,2.386Z" transform="translate(-2530.491 -75.428)" fill="none" stroke="#262626" stroke-width="2"/></g><g transform="translate(8519.973 2347.434)"><path d="M4635.045,1109.164l-33.053-19.909-27.3-16.3-26.308-14.6-22.212-14.119,1.5-2.761-24.042-17.261s-6.835-3.891-2.754-11.176l13.641-11.954,4.266-5.558,12.782-11.047,16.819-13.123,10.689-10.2,15.618-16.75" transform="translate(-49.538)" fill="none" stroke="#262626" stroke-width="2"/><path d="M4512.6,1035.52l-17.476-1.281-38.463,1.281" transform="translate(-18.687 -64.574)" fill="none" stroke="#262626" stroke-width="2"/><path d="M4463.535,1110.948l-5.612-3.159-27.258-8.51" transform="translate(0 -111.325)" fill="none" stroke="#262626" stroke-width="2"/><path d="M4472.224,1254.362l-19.74,17.259" transform="translate(-15.683 -222.801)" fill="none" stroke="#262626" stroke-width="2"/><path d="M4544.429,1300.085l-19.3,19.047" transform="translate(-67.901 -255.667)" fill="none" stroke="#262626" stroke-width="2"/><path d="M4585.205,1263.812l5.256-6.2,5.669,2.959-6.857,6.007" transform="translate(-111.085 -225.137)" fill="none" stroke="#262626" stroke-width="2"/><path d="M4573.253,1182.059l13.947-14.519-19.936-11.885-13.885-7.811" transform="translate(-88.209 -146.234)" fill="none" stroke="#262626" stroke-width="2"/><path d="M4579.087,1094.013l18.375-17.315,16-14.694,18.875,8.718-33.55,34.606,22.789,14.21,21.7,11.782,26.332,13.271,31.217,15.091,20.852,9.643s9.683-37.332,23.081-49.788l-21.264-9.68,1.426-2.525-28.062-10.571-22.19-8.019-20.592-9.163s-20.649,28.488-32.5,38.473-22.789,25.226-22.789,25.226-3.3-.807-12.657,13.743l-17.036,17.658" transform="translate(-99.505 -84.531)" fill="none" stroke="#262626" stroke-width="2"/><path d="M4818,1158.652c-2.364,2.43-32.253,42.346-32.253,42.346l-18.376,25.411" transform="translate(-242.025 -154.003)" fill="none" stroke="#262626" stroke-width="2"/><path d="M4913.539,1188.416,4900.3,1210.7,4885.4,1235.14l-16.049,30.087" transform="translate(-315.333 -175.397)" fill="none" stroke="#262626" stroke-width="2"/><path d="M5058.814,1229.787l-10.893,26.345-11.208,24.443-1.435,1.6" transform="translate(-434.603 -205.136)" fill="none" stroke="#262626" stroke-width="2"/><path d="M4940.161,1090.734l10.971-17.724s-21.395-9.5-28.108-15.481c0,0-21.408-11.426-24.272-14.028l-7.7-3.276-10.5,12.906-8.146,11.369" transform="translate(-317.528 -68.877)" fill="none" stroke="#262626" stroke-width="2"/><path d="M4985.223,1124.527s16.584-16.81,19.957-18.091" transform="translate(-398.622 -116.47)" fill="none" stroke="#262626" stroke-width="2"/><path d="M4810.421,1056.091l-73.046-32.278-9.215,10.477" transform="translate(-213.843 -57.079)" fill="none" stroke="#262626" stroke-width="2"/><path d="M4714.382,976.655l13.53,6.082,13.281-12.812-17.716-3.8" transform="translate(-203.939 -15.612)" fill="none" stroke="#262626" stroke-width="2"/><path d="M4809.729,980.1s10.493,5.744,12.85,6.729l7.094,4.489,16.118,5.811" transform="translate(-272.475 -25.656)" fill="none" stroke="#262626" stroke-width="2"/><path d="M4879.236,974.191l19.641-17.967" transform="translate(-322.438 -8.495)" fill="none" stroke="#262626" stroke-width="2"/><path d="M4966.581,1004.151l17.89-19.141" transform="translate(-385.222 -29.187)" fill="none" stroke="#262626" stroke-width="2"/><path d="M5056.195,1038.892l17.555-24.379" transform="translate(-449.638 -50.394)" fill="none" stroke="#262626" stroke-width="2"/><path d="M5093.019,1053.082l27.694,12.658-10.45,16.076,26.8,11.581s4.038-4.136,4.253-7.914" transform="translate(-476.107 -78.118)" fill="none" stroke="#262626" stroke-width="2"/><path d="M5123.243,1188.145l22.9,10.419s16.526-.741,12.077-13.365c0,0-2.225-5.595-12.077-9.457" transform="translate(-497.833 -166.288)" fill="none" stroke="#262626" stroke-width="2"/><path d="M5106.918,1443.677s3.761,16.339-1.847,25.5" transform="translate(-484.771 -358.882)" fill="none" stroke="#262626" stroke-width="2"/><path d="M5000.6,1415.172l-13.754,33.014" transform="translate(-399.788 -338.392)" fill="none" stroke="#262626" stroke-width="2"/><path d="M4456.662,1028.809l25.332-20.33,13.077-13.117,17.642-15.69,12.138-10.057-15.912-1.454,6.471-11.1" transform="translate(-18.687 -9.096)" fill="none" stroke="#262626" stroke-width="2"/><path d="M4607.222,995.664l-12.427,10.694" transform="translate(-117.979 -36.845)" fill="none" stroke="#262626" stroke-width="2"/><path d="M4582.981,995.716l-1.264-.538h-22.056" transform="translate(-92.724 -36.495)" fill="none" stroke="#262626" stroke-width="2"/><path d="M4475.068,1036.517l-10.73,9.509" transform="translate(-24.204 -66.211)" fill="none" stroke="#262626" stroke-width="2"/><path d="M4476.386,1223.469l27.047,17.007,7.472,1.574" transform="translate(-32.865 -200.594)" fill="none" stroke="#262626" stroke-width="2"/><path d="M4688.123,1396.212s-5.723,5.017-12.694,15.594l-13.745,20.256" transform="translate(-166.059 -324.764)" fill="none" stroke="#262626" stroke-width="2"/><path d="M4815.259,1444.071l-8.537,15.395" transform="translate(-270.315 -359.165)" fill="none" stroke="#262626" stroke-width="2"/><path d="M4824.328,1465.915l4.494-7.828,27.3,15.534" transform="translate(-282.969 -369.24)" fill="none" stroke="#262626" stroke-width="2"/></g><path d="M2590.143,1501.453h493.079" transform="translate(10084.316 1738.834)" fill="none" stroke="#262626" stroke-width="2"/><path d="M0,0H493.078" transform="translate(12920.999 2993.748) rotate(90)" fill="none" stroke="#262626" stroke-width="2"/><g transform="translate(12334.758 1772.04)"><g transform="translate(375.825 1251)"><path d="M3002.884,1322.014h0l.862-.014c5.04-.083,50.281-.722,64.452,2.394,0,0,6.814-7.529,18.448-2.38,0,0,7.346,4.035,18.861,0,0,0,14.953-4.417,18.267,0,0,0,4.195-1.474,4.7,19,0,0,1.2,4.434,21.981,0,0,0,1.792-31.634-8.746-36.221,0,0-12.315-8.4-25.427-9.015,0,0-6.292-.072-5.095-14.936l5.095-3.581-.7-3.679s5.952-3.293-.957-6.08c0,0-10.286.27-10.3-8v-5.034s5.767-5.437,16.567-1.029c0,0,8.281,2.812,9.942-3.816v-7.1s-2.827-5.572-17.376-1.379h-6.176l-7.416-5.217h-4.586s-4.03,4.646-6.79,5.217h-7.208s-8.23-4.209-14.513,0c0,0-3.695,6.962.883,11.248,0,0,4.373,1.372,12.324,0,0,0,8.836-2.336,11.214,1.05s1.261,2.594,1.261,2.594v5.536s-1,4.374-13.141,5.937c0,0-3.411,3.462,1.972,6.08l-1.307,4.611,4.918,2.65s1.713,10.457-5.584,13.073c0,0-2.128,2.54-9.65-1.748,0,0-15.8,1.3-67.076,1.053V1320.3" transform="translate(-3002.584 -1235.925)" fill="none" stroke="#262626" stroke-width="2"/><path d="M3141.716,1344.273s-4.726,20.2-10.254,27.941-10.691,12.471-8.575,22.823,11.719,14.742,16.424,15.632,15.566-.458,19.464-6.63S3167.061,1376.565,3141.716,1344.273Z" transform="translate(-3002.574 -1215.911)" fill="none" stroke="#262626" stroke-width="2"/><path d="M2757.583,1341.279h36.165" transform="translate(-2680.307 -1299.743)" fill="none" stroke="#262626" stroke-width="2"/><path d="M2802.116,1399.34s9.037,1.5,21.947-2.088" transform="translate(-2676.517 -1294.98)" fill="none" stroke="#262626" stroke-width="2"/><path d="M2802.116,1397.467s13.589.568,22.744-2.75" transform="translate(-2676.517 -1295.196)" fill="none" stroke="#262626" stroke-width="2"/><path d="M2757.583,1332.617a202.177,202.177,0,0,0,34.922,0" transform="translate(-2680.307 -1300.48)" fill="none" stroke="#262626" stroke-width="2"/><g transform="translate(87.495 1.085)" fill="none" stroke="#262626" stroke-width="2"><circle cx="8.681" cy="8.681" r="8.681" stroke="none"/><circle cx="8.681" cy="8.681" r="7.681" fill="none"/></g><path d="M2769.055,1320.657s4.637,2.48,12.128,0" transform="translate(-2679.33 -1301.497)" fill="none" stroke="#262626" stroke-width="2"/><path d="M2767.917,1319.122l1.634-1.668" transform="translate(-2679.427 -1301.77)" fill="none" stroke="#262626" stroke-width="2"/><path d="M2782.029,1318.309l-1.544-1.1" transform="translate(-2678.358 -1301.791)" fill="none" stroke="#262626" stroke-width="2"/><path d="M2746.765,1386.786s-2.428-16.646,1.035-32.125" transform="translate(-2681.297 -1298.604)" fill="none" stroke="#262626" stroke-width="2"/></g><path d="M2810.374,1457.812c-1.507.218-5.238,6.487-6.373,11.136-1.194,4.885,1.156,5.83,2.271,3.792,2.377-6.207,1.308-6.362,5.869-12.177a4.037,4.037,0,0,0,.3-1.943C2812.45,1458.227,2811.99,1457.578,2810.374,1457.812Z" transform="translate(-2301.645 -46.831)" fill="none" stroke="#262626" stroke-width="2"/></g><g transform="translate(12266.365 1860.615)"><g transform="translate(687.161 1230.806)"><path d="M3156.086,1306.724l-41.925,95.715H3319l-42.042-95.715Z" transform="translate(-3114.161 -1306.724)" fill="none" stroke="#262626" stroke-width="2"/><path d="M3281.214,1308.631" transform="translate(-3147.321 -1306.301)" fill="none" stroke="#262626" stroke-width="2"/><path d="M3173.672,1383.88h-37.391l-12.421,29.429h43.585Z" transform="translate(-3116.086 -1321.238)" fill="none" stroke="#262626" stroke-width="2"/><path d="M3178.258,1373.987l5-22.079H3150.7l-9.189,22.079Z" transform="translate(-3119.59 -1314.892)" fill="none" stroke="#262626" stroke-width="2"/><path d="M3186.247,1345.13l3.762-16.875h-28.641l-7.184,16.875Z" transform="translate(-3122.105 -1310.197)" fill="none" stroke="#262626" stroke-width="2"/><path d="M3192.534,1322.021l3.006-13.521h-25.635l-5.384,13.521Z" transform="translate(-3124.157 -1306.275)" fill="none" stroke="#262626" stroke-width="2"/><path d="M3204.639,1322.052l2.64-13.395h25.07v13.395Z" transform="translate(-3132.121 -1306.306)" fill="none" stroke="#262626" stroke-width="2"/><path d="M3245.232,1322.077v-13.3h24.954l2.634,13.3Z" transform="translate(-3140.178 -1306.331)" fill="none" stroke="#262626" stroke-width="2"/><path d="M3284.027,1322.048l-3.075-13.409h25.66l5.549,13.409Z" transform="translate(-3147.269 -1306.303)" fill="none" stroke="#262626" stroke-width="2"/><path d="M3285.248,1328.253l3.785,17.022h32.051l-7.216-17.022Z" transform="translate(-3148.121 -1310.196)" fill="none" stroke="#262626" stroke-width="2"/><path d="M3245.232,1352.092h32.074l4.541,22.064h-36.615Z" transform="translate(-3140.178 -1314.928)" fill="none" stroke="#262626" stroke-width="2"/><path d="M3290.916,1352.092h32.21l9.118,22.02h-36.7Z" transform="translate(-3149.247 -1314.928)" fill="none" stroke="#262626" stroke-width="2"/><path d="M3245.232,1383.88h37.248l6,29.052h-43.248Z" transform="translate(-3140.178 -1321.238)" fill="none" stroke="#262626" stroke-width="2"/><path d="M3297.779,1383.88h37.3l12.134,29.06h-42.847Z" transform="translate(-3150.609 -1321.238)" fill="none" stroke="#262626" stroke-width="2"/><path d="M3191.642,1383.88l-5.7,29.092h42.674V1383.88Z" transform="translate(-3128.41 -1321.238)" fill="none" stroke="#262626" stroke-width="2"/><path d="M3194.039,1373.987l4.316-22.08h31.821v22.08Z" transform="translate(-3130.017 -1314.891)" fill="none" stroke="#262626" stroke-width="2"/><path d="M3203.258,1328.255h27.967v17.022h-31.492Z" transform="translate(-3131.147 -1310.197)" fill="none" stroke="#262626" stroke-width="2"/><path d="M3245.232,1328.255V1345.1h31.611l-3.415-16.846Z" transform="translate(-3140.178 -1310.197)" fill="none" stroke="#262626" stroke-width="2"/><path d="M3224.687,1425.144v12.241s-4.242-.963-4.194,3.43v6.88h-28.288s-2.568.109-2.49,2.065v4.5s.118,1.819,2.49,1.914h79.352s1.745-.007,1.745-2.352v-4.849s-.052-1.321-2.487-1.279h-28.154v-6.88s.558-3.351-4.6-3.43v-12.241" transform="translate(-3129.158 -1329.429)" fill="none" stroke="#262626" stroke-width="2"/></g><path d="M3203.223,1247.676v-58.91" transform="translate(-2443.281 -24.065)" fill="none" stroke="#262626" stroke-width="2"/><path d="M3203.223,1199.68l10.915-10.914,10.914,10.914" transform="translate(-2454.195 -24.065)" fill="none" stroke="#262626" stroke-width="2"/><path d="M3203.223,1270.073v-81.307" transform="translate(-2413.642 -46.462)" fill="none" stroke="#262626" stroke-width="2"/><path d="M3203.223,1199.68l10.915-10.914,10.914,10.914" transform="translate(-2424.556 -46.461)" fill="none" stroke="#262626" stroke-width="2"/><path d="M3203.223,1229.419v-40.653" transform="translate(-2384.004 -5.808)" fill="none" stroke="#262626" stroke-width="2"/><path d="M3203.223,1199.68l10.915-10.914,10.914,10.914" transform="translate(-2394.918 -5.808)" fill="none" stroke="#262626" stroke-width="2"/></g><path d="M3203.223,1247.676v-58.91" transform="translate(9557.321 2092.159)" fill="none" stroke="#262626" stroke-width="2"/><path d="M3203.223,1270.073v-81.307" transform="translate(9586.96 2069.763)" fill="none" stroke="#262626" stroke-width="2"/><path d="M3203.223,1229.419v-40.653" transform="translate(9616.598 2110.416)" fill="none" stroke="#262626" stroke-width="2"/><g transform="translate(12121.029 1367.606)"><path d="M3096.621,2160.63l3.974,1.59s3.967-4.678,4.027-7.252,5.823-5.413,8.524-5.674c0,0-.627-3.489,1.687-5.472,0,0,5.554-1.291,5.7-10.765,0,0-.522-3.247,4.736-7.445,0,0,4.311-1.717,3.02-11.312a84.632,84.632,0,0,1,6.742-9.946s.7-2.671-3.023-1.985v-5.683s.147-2.013,5.309-.906v-9.661s4.512-5.639-2.286-7.864v-5.621c0-1.405-3.25-4.664-6.742-3.955l-3.02-4.869s-5.695-2.187-5.959-6.42l6.812-6.287-4.669-2.552s.853-3.63-6.737-1.353l-1.208-5.8s-2.208,1.968-2.938,0l-1.21-6.915s-1.992,3.766-9,1.02c0,0-2.9.071-5.207,5.9,0,0-1.6-4.672-3.842,0,0,0,1.2,5.44-1.217,7.148a9.211,9.211,0,0,1-4.89,0,17.73,17.73,0,0,1-2.29-6.419c-.2-2.931-3.283-3.067-3.283-3.067a9.378,9.378,0,0,0-5.566,3.067c-2.474,2.771-19.829-2.455-19.829-2.455s.331,4-5.479,4.573-5.882,4.3-5.882,4.3a8.526,8.526,0,0,1-3.273,5.607,23.63,23.63,0,0,0-1.224,9.651h2.044l1.737-1.437,1.878,6.858,3.275,3.4h2.979l1.408,1.207h1.874l-.917,1.39s4.761,4.338,8.174,3.63c0,0,2.47,15.112,13.234,16.919l-5.221,2.743,2.5,7.583,2.721,3.064-1.792,5.13,3.218,1.149-1.426,6.422,2.988,5.26,7.883,4.232,10.265,16.913-7.3-1.232-8.226-15.021s-4.846-3.723-7.405-3.813l-3.429-5.356,1.091-6.923-3.656-.481,2.565-6.28-3.131-3.064-2.651-7.583,5.115-1.837s-10.153-1.954-12.573-17.167c0,0-5.182.954-10.444-6.249,0,0-7.75,1.527-8.245-10.9l-4.793,3.721-8.447.677-3.915-3.542s-4.267,6.068-7.99,4.218l-9.442,7.783v7.055l4.92,3.356-.81,14.18-3.544,3.241,3.544,13.414s8.312-11.714,33.982-5.8l2.762,1.268s11.836,11.424,14.071,17.576c0,0,3.357,10.553,12.679,10.162,0,0,8.252,7.951,16.378,8.588l6.289,5.259Z" transform="translate(-2427 -53)" fill="none" stroke="#262626" stroke-width="2"/><path d="M3166.117,2182.471l.417,1.844s10.306,3.184,8.158-8.392l-4.948-20.066s10.35-7.214,16.169-44.663c0,0-4.363,24.633-19.555,33.793l-6.293-15.514s5.459-3.883,5.56-19.457c0,0,.887,7.672-6.889,16.456l-11-23.762,10.19,34.764s-7.462-.037-12.1-2.724c0,0,7.811,6.168,12.912,7.116Z" transform="translate(-2497.663 -86.597)" fill="none" stroke="#262626" stroke-width="2"/><path d="M3089.764,2192.683l-1.209-8.911s-5.585.344-20.642-22.55c0,0,.46-8.767-18.105-25.445,0,0,8.529,11.416,10.888,18.533,0,0-6.309-4.335-11.819-4.335,0,0-6.3-16.048-26-14.789,0,0,12.812.317,21.975,14.275,0,0-12.492.589-21.422,4.058,0,0,20.87-3.78,31.012,5.69a145.746,145.746,0,0,1,17.709,20.305S3084.459,2192.428,3089.764,2192.683Z" transform="translate(-2437.119 -102.555)" fill="none" stroke="#262626" stroke-width="2"/><path d="M3230.02,2083.593a7.753,7.753,0,0,0,4.877,4.22l2.4,4.915s2.9-2.348,7.145,4.3v4.485s-.713,1.445,1.863,2.355c0,0,3.111,3.121,0,7.341v9.094s-4.908-1.487-6.684.559v5.69s4.7.026,1.158,4.056c0,0-4.917,5.665-5.34,6.915s-.547,6.96-.547,6.96.855,3.4-4.415,6.06c0,0-3.157,1.711-3.514,6.709,0,0,0,7.463-6.729,11.209a2.55,2.55,0,0,0-1.071,2.52s16.038-12.33,20.458-19.708,9.67-21.774,9.847-27.054a131.5,131.5,0,0,0,1.138-14.92,115.858,115.858,0,0,1-2.847,28.713s5.483-10.16,6.943-18.278a106.326,106.326,0,0,1-16.962,38.681s-4.091,6.593-17.506,13.126l-.7,1.3s-5-.305-7.047,2.2a43.965,43.965,0,0,0,21.074-9.912c9.66-8.451,17.423-23.49,17.784-25.318s6.032-14.693,6.386-20.077,6.756-7.312,6.756-7.312a10.452,10.452,0,0,1,4.171.408c1.639.677,6.135-2.181,6.135-2.181s1.662-1.457.865-5.908a3.253,3.253,0,0,1,2.622-3.226s2.167-1.691,0-4.991c0,0,1.373-1.46,0-3.794s-2.622-2.452-2.622-2.452a10.468,10.468,0,0,1-5.33-6.683c-1.12-4.744-10.4.922-10.4.922a9.682,9.682,0,0,1-3.865-4.325,7.261,7.261,0,0,0-5.457,1.017s-2.108-2.636-6.165,4.168c0,0-.79-4.583-6.1-4.168,0,0-4.742-1.848-7,2.386Z" transform="translate(-2530.491 -75.428)" fill="none" stroke="#262626" stroke-width="2"/></g><g transform="translate(8519.973 2347.434)"><path d="M4635.045,1109.164l-33.053-19.909-27.3-16.3-26.308-14.6-22.212-14.119,1.5-2.761-24.042-17.261s-6.835-3.891-2.754-11.176l13.641-11.954,4.266-5.558,12.782-11.047,16.819-13.123,10.689-10.2,15.618-16.75" transform="translate(-49.538)" fill="none" stroke="#262626" stroke-width="2"/><path d="M4512.6,1035.52l-17.476-1.281-38.463,1.281" transform="translate(-18.687 -64.574)" fill="none" stroke="#262626" stroke-width="2"/><path d="M4463.535,1110.948l-5.612-3.159-27.258-8.51" transform="translate(0 -111.325)" fill="none" stroke="#262626" stroke-width="2"/><path d="M4472.224,1254.362l-19.74,17.259" transform="translate(-15.683 -222.801)" fill="none" stroke="#262626" stroke-width="2"/><path d="M4544.429,1300.085l-19.3,19.047" transform="translate(-67.901 -255.667)" fill="none" stroke="#262626" stroke-width="2"/><path d="M4585.205,1263.812l5.256-6.2,5.669,2.959-6.857,6.007" transform="translate(-111.085 -225.137)" fill="none" stroke="#262626" stroke-width="2"/><path d="M4573.253,1182.059l13.947-14.519-19.936-11.885-13.885-7.811" transform="translate(-88.209 -146.234)" fill="none" stroke="#262626" stroke-width="2"/><path d="M4579.087,1094.013l18.375-17.315,16-14.694,18.875,8.718-33.55,34.606,22.789,14.21,21.7,11.782,26.332,13.271,31.217,15.091,20.852,9.643s9.683-37.332,23.081-49.788l-21.264-9.68,1.426-2.525-28.062-10.571-22.19-8.019-20.592-9.163s-20.649,28.488-32.5,38.473-22.789,25.226-22.789,25.226-3.3-.807-12.657,13.743l-17.036,17.658" transform="translate(-99.505 -84.531)" fill="none" stroke="#262626" stroke-width="2"/><path d="M4818,1158.652c-2.364,2.43-32.253,42.346-32.253,42.346l-18.376,25.411" transform="translate(-242.025 -154.003)" fill="none" stroke="#262626" stroke-width="2"/><path d="M4913.539,1188.416,4900.3,1210.7,4885.4,1235.14l-16.049,30.087" transform="translate(-315.333 -175.397)" fill="none" stroke="#262626" stroke-width="2"/><path d="M5058.814,1229.787l-10.893,26.345-11.208,24.443-1.435,1.6" transform="translate(-434.603 -205.136)" fill="none" stroke="#262626" stroke-width="2"/><path d="M4940.161,1090.734l10.971-17.724s-21.395-9.5-28.108-15.481c0,0-21.408-11.426-24.272-14.028l-7.7-3.276-10.5,12.906-8.146,11.369" transform="translate(-317.528 -68.877)" fill="none" stroke="#262626" stroke-width="2"/><path d="M4985.223,1124.527s16.584-16.81,19.957-18.091" transform="translate(-398.622 -116.47)" fill="none" stroke="#262626" stroke-width="2"/><path d="M4810.421,1056.091l-73.046-32.278-9.215,10.477" transform="translate(-213.843 -57.079)" fill="none" stroke="#262626" stroke-width="2"/><path d="M4714.382,976.655l13.53,6.082,13.281-12.812-17.716-3.8" transform="translate(-203.939 -15.612)" fill="none" stroke="#262626" stroke-width="2"/><path d="M4809.729,980.1s10.493,5.744,12.85,6.729l7.094,4.489,16.118,5.811" transform="translate(-272.475 -25.656)" fill="none" stroke="#262626" stroke-width="2"/><path d="M4879.236,974.191l19.641-17.967" transform="translate(-322.438 -8.495)" fill="none" stroke="#262626" stroke-width="2"/><path d="M4966.581,1004.151l17.89-19.141" transform="translate(-385.222 -29.187)" fill="none" stroke="#262626" stroke-width="2"/><path d="M5056.195,1038.892l17.555-24.379" transform="translate(-449.638 -50.394)" fill="none" stroke="#262626" stroke-width="2"/><path d="M5093.019,1053.082l27.694,12.658-10.45,16.076,26.8,11.581s4.038-4.136,4.253-7.914" transform="translate(-476.107 -78.118)" fill="none" stroke="#262626" stroke-width="2"/><path d="M5123.243,1188.145l22.9,10.419s16.526-.741,12.077-13.365c0,0-2.225-5.595-12.077-9.457" transform="translate(-497.833 -166.288)" fill="none" stroke="#262626" stroke-width="2"/><path d="M5106.918,1443.677s3.761,16.339-1.847,25.5" transform="translate(-484.771 -358.882)" fill="none" stroke="#262626" stroke-width="2"/><path d="M5000.6,1415.172l-13.754,33.014" transform="translate(-399.788 -338.392)" fill="none" stroke="#262626" stroke-width="2"/><path d="M4456.662,1028.809l25.332-20.33,13.077-13.117,17.642-15.69,12.138-10.057-15.912-1.454,6.471-11.1" transform="translate(-18.687 -9.096)" fill="none" stroke="#262626" stroke-width="2"/><path d="M4607.222,995.664l-12.427,10.694" transform="translate(-117.979 -36.845)" fill="none" stroke="#262626" stroke-width="2"/><path d="M4582.981,995.716l-1.264-.538h-22.056" transform="translate(-92.724 -36.495)" fill="none" stroke="#262626" stroke-width="2"/><path d="M4475.068,1036.517l-10.73,9.509" transform="translate(-24.204 -66.211)" fill="none" stroke="#262626" stroke-width="2"/><path d="M4476.386,1223.469l27.047,17.007,7.472,1.574" transform="translate(-32.865 -200.594)" fill="none" stroke="#262626" stroke-width="2"/><path d="M4688.123,1396.212s-5.723,5.017-12.694,15.594l-13.745,20.256" transform="translate(-166.059 -324.764)" fill="none" stroke="#262626" stroke-width="2"/><path d="M4815.259,1444.071l-8.537,15.395" transform="translate(-270.315 -359.165)" fill="none" stroke="#262626" stroke-width="2"/><path d="M4824.328,1465.915l4.494-7.828,27.3,15.534" transform="translate(-282.969 -369.24)" fill="none" stroke="#262626" stroke-width="2"/></g></g></svg>