<svg xmlns="http://www.w3.org/2000/svg" width="593.218" height="543.21" viewBox="0 0 593.218 543.21"><g transform="translate(-3272.198 1232.848)"><g transform="translate(3272.967 -1232.042)"><path d="M336.5,189.167,576.512,362.7a.437.437,0,0,0,.19.077L746.389,387.11l7.746,1.111,18.221,2.613L474.972,202.14,336.792,188.4A.427.427,0,0,0,336.5,189.167Z" transform="translate(-336.32 -165.338)" fill="#fcfcfc" stroke="#262626" stroke-width="1.5"/><path d="M405.16,212.054,699.934,403.388l149.874-58.766a.426.426,0,0,0,.034-.779L513.131,177.6l-107.867,33.69A.427.427,0,0,0,405.16,212.054Z" transform="translate(-258.382 -177.597)" fill="#fcfcfc" stroke="#262626" stroke-width="1.5"/><path d="M770.48,406.443,570.828,377.389,336.32,206.584l.472-18.189" transform="translate(-336.32 -165.337)" fill="none" stroke="#262626" stroke-width="1.5"/><path d="M368.356,219.973l44.788,103.276V405" transform="translate(-299.947 -129.484)" fill="#fcfcfc" stroke="#262626" stroke-width="1.5"/><path d="M385.92,232.609l22.9,56.972H422.4l9.639-23.564" transform="translate(-280.005 -115.137)" fill="none" stroke="#262626" stroke-width="1.5"/><path d="M421.072,254.7,410.85,277V380.587" transform="translate(-251.7 -90.051)" fill="#fcfcfc" stroke="#262626" stroke-width="1.5"/><path d="M397.694,351.919V269.081h11.317v86.131" transform="translate(-266.637 -73.728)" fill="#fcfcfc" stroke="#262626" stroke-width="1.5"/><path d="M426.854,262.292l.808,1.929L470.54,366.55l.912,2.174v83.72" transform="translate(-233.529 -81.436)" fill="#fcfcfc" stroke="#262626" stroke-width="1.5"/><path d="M441.107,272.831l32.787,75.6,12.725-.053,24.155-58.744" transform="translate(-217.347 -69.47)" fill="none" stroke="#262626" stroke-width="1.5"/><path d="M496.267,282.179l-26.225,63.634v96.519" transform="translate(-184.494 -58.856)" fill="#fcfcfc" stroke="#262626" stroke-width="1.5"/><path d="M457.129,362.01l-.4-45.934h12.041l.4,45.934Z" transform="translate(-199.606 -20.37)" fill="#fcfcfc" stroke="#262626" stroke-width="1.5"/><path d="M489.5,283.335,566.5,460.967V599.948" transform="translate(-162.407 -57.544)" fill="#fcfcfc" stroke="#262626" stroke-width="1.5"/><path d="M499.559,284.93l30.273,70.732,29.156-62.59" transform="translate(-150.981 -55.733)" fill="none" stroke="#262626" stroke-width="1.5"/><path d="M533.01,592.914l-2.095-303.438" transform="translate(-115.38 -50.571)" fill="#fcfcfc" stroke="#262626" stroke-width="1.5"/><path d="M541.719,326.366l2.757,1.469,149.532-58.1.566-14.288" transform="translate(-103.113 -89.204)" fill="none" stroke="#262626" stroke-width="1.5"/><path d="M544.471,289.154l1.418,300.438" transform="translate(-99.989 -50.937)" fill="#fcfcfc" stroke="#262626" stroke-width="1.5"/><path d="M552.169,602.615l-1.828-136.5,63.745-190.728" transform="translate(-93.324 -66.57)" fill="#fcfcfc" stroke="#262626" stroke-width="1.5"/><path d="M583.939,278.987l-23.56,67.873" transform="translate(-81.927 -62.48)" fill="#fcfcfc" stroke="#262626" stroke-width="1.5"/><path d="M546.027,288.257l34.79,55.206" transform="translate(-98.222 -51.955)" fill="#fcfcfc" stroke="#262626" stroke-width="1.5"/><path d="M544.8,301.183l27.658,43.846" transform="translate(-99.613 -37.279)" fill="#fcfcfc" stroke="#262626" stroke-width="1.5"/><path d="M544.8,323.447l25.082-3.257" transform="translate(-99.613 -15.698)" fill="#fcfcfc" stroke="#262626" stroke-width="1.5"/><path d="M518.371,355.336l26.692-55.17" transform="translate(-129.622 -38.434)" fill="#fcfcfc" stroke="#262626" stroke-width="1.5"/><path d="M518.91,325.893l24.984-2.644" transform="translate(-129.01 -12.226)" fill="#fcfcfc" stroke="#262626" stroke-width="1.5"/><path d="M518.91,331.323l25.785,57.937" transform="translate(-129.01 -3.059)" fill="#fcfcfc" stroke="#262626" stroke-width="1.5"/><path d="M519.741,334.8l24.068-3.417" transform="translate(-128.067 -2.99)" fill="#fcfcfc" stroke="#262626" stroke-width="1.5"/><path d="M544.8,331.5l23.617-3.417" transform="translate(-99.613 -6.734)" fill="#fcfcfc" stroke="#262626" stroke-width="1.5"/><path d="M544.8,390.575l22.31-62.263" transform="translate(-99.613 -6.478)" fill="#fcfcfc" stroke="#262626" stroke-width="1.5"/><path d="M404.7,201.337v-7.376a.427.427,0,0,1,.66-.359l295.2,192.148v12.041a.428.428,0,0,1-.265.4L693.433,401a.428.428,0,0,1-.589-.4V388.7Z" transform="translate(-257.981 -159.016)" fill="#fcfcfc" stroke="#262626" stroke-width="1.5"/><path d="M532.023,305.761,675.555,248.59" transform="translate(-114.122 -96.993)" fill="#fcfcfc" stroke="#262626" stroke-width="1.5"/><path d="M720.77,376.49,413.243,190.846" transform="translate(-248.983 -162.554)" fill="#fcfcfc" stroke="#262626" stroke-width="1.5"/><path d="M424.282,187.384,739.347,368.223" transform="translate(-236.449 -166.485)" fill="#fcfcfc" stroke="#262626" stroke-width="1.5"/><path d="M756.09,359.624,435.018,184.031" transform="translate(-224.26 -170.292)" fill="#fcfcfc" stroke="#262626" stroke-width="1.5"/><path d="M446.311,180.784,774.248,350.769" transform="translate(-211.438 -173.979)" fill="#fcfcfc" stroke="#262626" stroke-width="1.5"/><path d="M659.817,242.151,519.809,296.58" transform="translate(-127.99 -104.303)" fill="#fcfcfc" stroke="#262626" stroke-width="1.5"/><path d="M507.867,289.2l141.659-53.224" transform="translate(-141.548 -111.318)" fill="#fcfcfc" stroke="#262626" stroke-width="1.5"/><path d="M632.821,229.766,498.038,281.357" transform="translate(-152.708 -118.365)" fill="#fcfcfc" stroke="#262626" stroke-width="1.5"/><path d="M488.455,272.777l132.934-47.713" transform="translate(-163.589 -123.704)" fill="#fcfcfc" stroke="#262626" stroke-width="1.5"/><path d="M479.253,267.3l131.213-47.309" transform="translate(-174.036 -129.46)" fill="#fcfcfc" stroke="#262626" stroke-width="1.5"/><path d="M596.943,214.894,469.6,260.314" transform="translate(-184.223 -135.659)" fill="#fcfcfc" stroke="#262626" stroke-width="1.5"/><path d="M461.58,254.1l123.976-43.544" transform="translate(-193.221 -140.529)" fill="#fcfcfc" stroke="#262626" stroke-width="1.5"/><path d="M574.066,205.43,452.877,247.648" transform="translate(-202.991 -146.282)" fill="#fcfcfc" stroke="#262626" stroke-width="1.5"/><path d="M444.267,241.157,563.19,201.143" transform="translate(-212.655 -151.094)" fill="#fcfcfc" stroke="#262626" stroke-width="1.5"/><path d="M435.994,236l115.756-39.9" transform="translate(-221.941 -156.76)" fill="#fcfcfc" stroke="#262626" stroke-width="1.5"/><path d="M427.966,229.58,540.7,191.709" transform="translate(-230.951 -161.683)" fill="#fcfcfc" stroke="#262626" stroke-width="1.5"/><path d="M420.546,223.793l109.367-36.608" transform="translate(-239.28 -166.761)" fill="#fcfcfc" stroke="#262626" stroke-width="1.5"/><path d="M413.118,218.116l107.756-34.785" transform="translate(-247.618 -171.087)" fill="#fcfcfc" stroke="#262626" stroke-width="1.5"/><path d="M343.092,193.365l140.662,13.6" transform="translate(-328.631 -159.694)" fill="#fcfcfc" stroke="#262626" stroke-width="1.5"/><path d="M348.73,189.607,595.837,364.219" transform="translate(-322.23 -163.961)" fill="#fcfcfc" stroke="#262626" stroke-width="1.5"/><path d="M621.915,367.965l-259.6-176.6" transform="translate(-306.801 -161.96)" fill="#fcfcfc" stroke="#262626" stroke-width="1.5"/><path d="M375.423,192.262,646.117,372.217" transform="translate(-291.923 -160.947)" fill="#fcfcfc" stroke="#262626" stroke-width="1.5"/><path d="M677.751,380.381,387.988,193.672" transform="translate(-277.657 -159.346)" fill="#fcfcfc" stroke="#262626" stroke-width="1.5"/><path d="M350.028,198.46l141.693,12.755" transform="translate(-320.756 -153.909)" fill="#fcfcfc" stroke="#262626" stroke-width="1.5"/><path d="M356.976,203.564,499.31,216.351" transform="translate(-312.868 -148.115)" fill="#fcfcfc" stroke="#262626" stroke-width="1.5"/><path d="M362.319,207.489,512.142,223.3" transform="translate(-306.801 -143.658)" fill="#fcfcfc" stroke="#262626" stroke-width="1.5"/><path d="M369.188,212.719,519,228.258" transform="translate(-299.002 -137.72)" fill="#fcfcfc" stroke="#262626" stroke-width="1.5"/><path d="M375.423,217.742,532.2,233.926" transform="translate(-291.923 -132.017)" fill="#fcfcfc" stroke="#262626" stroke-width="1.5"/><path d="M382.479,222.3l158.227,18.74" transform="translate(-283.912 -126.845)" fill="#fcfcfc" stroke="#262626" stroke-width="1.5"/><path d="M389.684,227.589l160.949,18.894" transform="translate(-275.731 -120.837)" fill="#fcfcfc" stroke="#262626" stroke-width="1.5"/><path d="M397.355,232.609,561.67,253.224" transform="translate(-267.022 -115.137)" fill="#fcfcfc" stroke="#262626" stroke-width="1.5"/><path d="M402.994,237.366l169.4,21.766" transform="translate(-260.619 -109.736)" fill="#fcfcfc" stroke="#262626" stroke-width="1.5"/><path d="M410.85,243.136l173.321,23.293" transform="translate(-251.7 -103.185)" fill="#fcfcfc" stroke="#262626" stroke-width="1.5"/><path d="M418.212,248.545l179.323,26.378" transform="translate(-243.341 -97.044)" fill="#fcfcfc" stroke="#262626" stroke-width="1.5"/><path d="M427.9,255.657l184.845,27.438" transform="translate(-232.346 -88.969)" fill="#fcfcfc" stroke="#262626" stroke-width="1.5"/><path d="M437.557,262.753,623.864,289.84" transform="translate(-221.377 -80.912)" fill="#fcfcfc" stroke="#262626" stroke-width="1.5"/><path d="M3384.386-1060.261v16.363" transform="translate(-3146.463 1427.08)" fill="none" stroke="#262626" stroke-width="1.5"/></g><path d="M3325.973-1104.165v17.821" transform="translate(60.182 145.189)" fill="none" stroke="#262626" stroke-width="1.5"/><path d="M3325.973-1104.165h.748v18.048" transform="translate(77.265 145.189)" fill="none" stroke="#262626" stroke-width="1.5"/><path d="M3326.631-1104.141v17.834" transform="translate(88.69 145.217)" fill="none" stroke="#262626" stroke-width="1.5"/></g></svg>