<svg xmlns="http://www.w3.org/2000/svg" width="278.609" height="254.813" viewBox="0 0 278.609 254.813"><g transform="translate(-3272.201 1232.848)"><path d="M336.4,188.756l112.4,81.267a.2.2,0,0,0,.089.036L540.516,283.2,401.251,194.831l-64.71-6.436A.2.2,0,0,0,336.4,188.756Z" transform="translate(2936.647 -1409.639)" fill="#fcfcfc" stroke="#262626" stroke-width="1.5"/><path d="M405.056,193.733l138.043,89.6,70.186-27.52a.2.2,0,0,0,.016-.365L455.619,177.6l-50.514,15.777A.2.2,0,0,0,405.056,193.733Z" transform="translate(2936.647 -1409.639)" fill="#fcfcfc" stroke="#262626" stroke-width="1.5"/><path d="M539.637,290.507,446.14,276.9,336.32,196.913l.221-8.518" transform="translate(2936.647 -1409.639)" fill="none" stroke="#262626" stroke-width="1.5"/><path d="M368.356,219.973l20.974,48.364V306.62" transform="translate(2936.647 -1409.639)" fill="#fcfcfc" stroke="#262626" stroke-width="1.5"/><path d="M385.92,232.609l10.725,26.68H403l4.514-11.035" transform="translate(2936.647 -1409.639)" fill="none" stroke="#262626" stroke-width="1.5"/><path d="M415.637,254.7l-4.787,10.441v48.51" transform="translate(2936.647 -1409.639)" fill="#fcfcfc" stroke="#262626" stroke-width="1.5"/><path d="M397.694,307.874V269.081h5.3v40.335" transform="translate(2936.647 -1409.639)" fill="#fcfcfc" stroke="#262626" stroke-width="1.5"/><path d="M426.854,262.292l20.458,48.824.427,1.018V351.34" transform="translate(2936.647 -1409.639)" fill="#fcfcfc" stroke="#262626" stroke-width="1.5"/><path d="M441.107,272.831l15.354,35.4,5.959-.025,11.312-27.51" transform="translate(2936.647 -1409.639)" fill="none" stroke="#262626" stroke-width="1.5"/><path d="M482.323,282.179l-12.281,29.8v45.2" transform="translate(2936.647 -1409.639)" fill="#fcfcfc" stroke="#262626" stroke-width="1.5"/><path d="M456.918,337.587l-.186-21.511h5.639l.187,21.511Z" transform="translate(2936.647 -1409.639)" fill="#fcfcfc" stroke="#262626" stroke-width="1.5"/><path d="M489.5,283.335l36.062,83.185v65.085" transform="translate(2936.647 -1409.639)" fill="#fcfcfc" stroke="#262626" stroke-width="1.5"/><path d="M499.559,284.93l14.177,33.124,13.654-29.311" transform="translate(2936.647 -1409.639)" fill="none" stroke="#262626" stroke-width="1.5"/><path d="M531.9,431.576l-.981-142.1" transform="translate(2936.647 -1409.639)" fill="#fcfcfc" stroke="#262626" stroke-width="1.5"/><path d="M541.719,288.66l1.291.688,70.026-27.207.265-6.691" transform="translate(2936.647 -1409.639)" fill="none" stroke="#262626" stroke-width="1.5"/><path d="M544.471,289.154l.664,140.7" transform="translate(2936.647 -1409.639)" fill="#fcfcfc" stroke="#262626" stroke-width="1.5"/><path d="M551.2,428.627l-.856-63.924,29.852-89.318" transform="translate(2936.647 -1409.639)" fill="#fcfcfc" stroke="#262626" stroke-width="1.5"/><path d="M571.412,278.987l-11.033,31.785" transform="translate(2936.647 -1409.639)" fill="#fcfcfc" stroke="#262626" stroke-width="1.5"/><path d="M546.027,288.257l16.292,25.853" transform="translate(2936.647 -1409.639)" fill="#fcfcfc" stroke="#262626" stroke-width="1.5"/><path d="M544.8,301.183l12.952,20.533" transform="translate(2936.647 -1409.639)" fill="#fcfcfc" stroke="#262626" stroke-width="1.5"/><path d="M544.8,321.716l11.746-1.525" transform="translate(2936.647 -1409.639)" fill="#fcfcfc" stroke="#262626" stroke-width="1.5"/><path d="M518.371,326l12.5-25.836" transform="translate(2936.647 -1409.639)" fill="#fcfcfc" stroke="#262626" stroke-width="1.5"/><path d="M518.91,324.487l11.7-1.238" transform="translate(2936.647 -1409.639)" fill="#fcfcfc" stroke="#262626" stroke-width="1.5"/><path d="M518.91,331.323l12.075,27.132" transform="translate(2936.647 -1409.639)" fill="#fcfcfc" stroke="#262626" stroke-width="1.5"/><path d="M519.741,332.984l11.271-1.6" transform="translate(2936.647 -1409.639)" fill="#fcfcfc" stroke="#262626" stroke-width="1.5"/><path d="M544.8,329.686l11.06-1.6" transform="translate(2936.647 -1409.639)" fill="#fcfcfc" stroke="#262626" stroke-width="1.5"/><path d="M544.8,357.47l10.448-29.158" transform="translate(2936.647 -1409.639)" fill="#fcfcfc" stroke="#262626" stroke-width="1.5"/><path d="M404.7,197.188v-3.454a.2.2,0,0,1,.309-.168L543.25,283.549v5.639a.2.2,0,0,1-.124.185l-3.213,1.319a.2.2,0,0,1-.276-.185V284.93Z" transform="translate(2936.976 -1409.411)" fill="#fcfcfc" stroke="#262626" stroke-width="1.5"/><path d="M532.023,275.363l67.216-26.773" transform="translate(2936.647 -1409.639)" fill="#fcfcfc" stroke="#262626" stroke-width="1.5"/><path d="M557.258,277.783,413.243,190.846" transform="translate(2936.647 -1409.639)" fill="#fcfcfc" stroke="#262626" stroke-width="1.5"/><path d="M424.282,187.384l147.545,84.687" transform="translate(2936.647 -1409.639)" fill="#fcfcfc" stroke="#262626" stroke-width="1.5"/><path d="M585.376,266.261l-150.358-82.23" transform="translate(2936.647 -1409.639)" fill="#fcfcfc" stroke="#262626" stroke-width="1.5"/><path d="M446.311,180.784l153.573,79.6" transform="translate(2936.647 -1409.639)" fill="#fcfcfc" stroke="#262626" stroke-width="1.5"/><path d="M585.375,242.151,519.809,267.64" transform="translate(2936.647 -1409.639)" fill="#fcfcfc" stroke="#262626" stroke-width="1.5"/><path d="M507.867,260.9l66.339-24.925" transform="translate(2936.647 -1409.639)" fill="#fcfcfc" stroke="#262626" stroke-width="1.5"/><path d="M561.157,229.766l-63.119,24.16" transform="translate(2936.647 -1409.639)" fill="#fcfcfc" stroke="#262626" stroke-width="1.5"/><path d="M488.455,247.408l62.253-22.344" transform="translate(2936.647 -1409.639)" fill="#fcfcfc" stroke="#262626" stroke-width="1.5"/><path d="M479.253,242.149,540.7,219.994" transform="translate(2936.647 -1409.639)" fill="#fcfcfc" stroke="#262626" stroke-width="1.5"/><path d="M529.6,214.894l-60,21.4" transform="translate(2936.647 -1409.639)" fill="#fcfcfc" stroke="#262626" stroke-width="1.5"/><path d="M461.58,231.071l58.412-20.516" transform="translate(2936.647 -1409.639)" fill="#fcfcfc" stroke="#262626" stroke-width="1.5"/><path d="M509.976,205.43l-57.1,19.891" transform="translate(2936.647 -1409.639)" fill="#fcfcfc" stroke="#262626" stroke-width="1.5"/><path d="M444.267,220,500.3,201.143" transform="translate(2936.647 -1409.639)" fill="#fcfcfc" stroke="#262626" stroke-width="1.5"/><path d="M435.994,214.9l54.539-18.8" transform="translate(2936.647 -1409.639)" fill="#fcfcfc" stroke="#262626" stroke-width="1.5"/><path d="M427.966,209.552l53.116-17.843" transform="translate(2936.647 -1409.639)" fill="#fcfcfc" stroke="#262626" stroke-width="1.5"/><path d="M420.546,204.433l51.529-17.248" transform="translate(2936.647 -1409.639)" fill="#fcfcfc" stroke="#262626" stroke-width="1.5"/><path d="M413.118,199.72l50.77-16.389" transform="translate(2936.647 -1409.639)" fill="#fcfcfc" stroke="#262626" stroke-width="1.5"/><path d="M343.092,193.365l65.872,6.368" transform="translate(2936.647 -1409.639)" fill="#fcfcfc" stroke="#262626" stroke-width="1.5"/><path d="M348.73,189.607l115.72,81.771" transform="translate(2936.647 -1409.639)" fill="#fcfcfc" stroke="#262626" stroke-width="1.5"/><path d="M483.888,274.069l-121.569-82.7" transform="translate(2936.647 -1409.639)" fill="#fcfcfc" stroke="#262626" stroke-width="1.5"/><path d="M375.423,192.262l126.766,84.273" transform="translate(2936.647 -1409.639)" fill="#fcfcfc" stroke="#262626" stroke-width="1.5"/><path d="M523.684,281.108l-135.7-87.436" transform="translate(2936.647 -1409.639)" fill="#fcfcfc" stroke="#262626" stroke-width="1.5"/><path d="M350.028,198.46l66.355,5.973" transform="translate(2936.647 -1409.639)" fill="#fcfcfc" stroke="#262626" stroke-width="1.5"/><path d="M356.976,203.564l66.655,5.988" transform="translate(2936.647 -1409.639)" fill="#fcfcfc" stroke="#262626" stroke-width="1.5"/><path d="M362.319,207.489l70.162,7.4" transform="translate(2936.647 -1409.639)" fill="#fcfcfc" stroke="#262626" stroke-width="1.5"/><path d="M369.188,212.719,439.345,220" transform="translate(2936.647 -1409.639)" fill="#fcfcfc" stroke="#262626" stroke-width="1.5"/><path d="M375.423,217.742l73.419,7.579" transform="translate(2936.647 -1409.639)" fill="#fcfcfc" stroke="#262626" stroke-width="1.5"/><path d="M382.479,222.3l75.389,8.776" transform="translate(2936.647 -1409.639)" fill="#fcfcfc" stroke="#262626" stroke-width="1.5"/><path d="M389.684,227.589l77.138,8.848" transform="translate(2936.647 -1409.639)" fill="#fcfcfc" stroke="#262626" stroke-width="1.5"/><path d="M397.355,232.609,476,242.263" transform="translate(2936.647 -1409.639)" fill="#fcfcfc" stroke="#262626" stroke-width="1.5"/><path d="M402.994,237.366l80.167,10.193" transform="translate(2936.647 -1409.639)" fill="#fcfcfc" stroke="#262626" stroke-width="1.5"/><path d="M410.85,243.136l82.611,10.908" transform="translate(2936.647 -1409.639)" fill="#fcfcfc" stroke="#262626" stroke-width="1.5"/><path d="M418.212,248.545,503.717,260.9" transform="translate(2936.647 -1409.639)" fill="#fcfcfc" stroke="#262626" stroke-width="1.5"/><path d="M427.9,255.657,516.6,268.506" transform="translate(2936.647 -1409.639)" fill="#fcfcfc" stroke="#262626" stroke-width="1.5"/><path d="M437.557,262.753l89.833,12.685" transform="translate(2936.647 -1409.639)" fill="#fcfcfc" stroke="#262626" stroke-width="1.5"/></g></svg>