<svg xmlns="http://www.w3.org/2000/svg" width="278.609" height="255.579" viewBox="0 0 278.609 255.579"><g transform="translate(-2885.688 1060.531)"><path d="M336.4,188.756l112.4,81.267a.2.2,0,0,0,.089.036L540.516,283.2,401.251,194.831l-64.71-6.436A.2.2,0,0,0,336.4,188.756Z" transform="translate(2550.134 -1237.323)" fill="#fcfcfc" stroke="#262626" stroke-width="1.5"/><path d="M405.056,193.733l138.043,89.6,70.186-27.52a.2.2,0,0,0,.016-.365L455.619,177.6l-50.514,15.777A.2.2,0,0,0,405.056,193.733Z" transform="translate(2550.134 -1237.323)" fill="#fcfcfc" stroke="#262626" stroke-width="1.5"/><path d="M539.637,290.507,446.14,276.9,336.32,196.913l.221-8.518" transform="translate(2550.134 -1237.323)" fill="none" stroke="#262626" stroke-width="1.5"/><path d="M368.356,219.973l20.974,48.364V306.62" transform="translate(2550.134 -1237.323)" fill="#fcfcfc" stroke="#262626" stroke-width="1.5"/><path d="M385.92,232.609l10.725,26.68H403l4.514-11.035" transform="translate(2550.134 -1237.323)" fill="none" stroke="#262626" stroke-width="1.5"/><path d="M415.637,254.7l-4.787,10.441v48.51" transform="translate(2550.134 -1237.323)" fill="#fcfcfc" stroke="#262626" stroke-width="1.5"/><path d="M397.694,307.874V269.081h5.3v40.335" transform="translate(2550.134 -1237.323)" fill="#fcfcfc" stroke="#262626" stroke-width="1.5"/><path d="M426.854,262.292l20.458,48.824.427,1.018V351.34" transform="translate(2550.134 -1237.323)" fill="#fcfcfc" stroke="#262626" stroke-width="1.5"/><path d="M441.107,272.831l15.354,35.4,5.959-.025,11.312-27.51" transform="translate(2550.134 -1237.323)" fill="none" stroke="#262626" stroke-width="1.5"/><path d="M482.323,282.179l-12.281,29.8v45.2" transform="translate(2550.134 -1237.323)" fill="#fcfcfc" stroke="#262626" stroke-width="1.5"/><path d="M457.686,351.959V346.07h4.734v7.1" transform="translate(2550.134 -1237.323)" fill="#fcfcfc" stroke="#262626" stroke-width="1.5"/><path d="M456.918,337.587l-.186-21.511h5.639l.187,21.511Z" transform="translate(2550.134 -1237.323)" fill="#fcfcfc" stroke="#262626" stroke-width="1.5"/><path d="M489.5,283.335l36.062,83.185v65.085" transform="translate(2550.134 -1237.323)" fill="#fcfcfc" stroke="#262626" stroke-width="1.5"/><path d="M499.559,284.93l14.177,33.124,13.654-29.311" transform="translate(2550.134 -1237.323)" fill="none" stroke="#262626" stroke-width="1.5"/><path d="M531.9,431.576l-.981-142.1" transform="translate(2550.134 -1237.323)" fill="#fcfcfc" stroke="#262626" stroke-width="1.5"/><path d="M541.719,288.66l1.291.688,70.026-27.207.265-6.691" transform="translate(2550.134 -1237.323)" fill="none" stroke="#262626" stroke-width="1.5"/><path d="M544.471,289.154l.664,140.7" transform="translate(2550.134 -1237.323)" fill="#fcfcfc" stroke="#262626" stroke-width="1.5"/><path d="M551.2,428.627l-.856-63.924,29.852-89.318" transform="translate(2550.134 -1237.323)" fill="#fcfcfc" stroke="#262626" stroke-width="1.5"/><path d="M571.412,278.987l-11.033,31.785" transform="translate(2550.134 -1237.323)" fill="#fcfcfc" stroke="#262626" stroke-width="1.5"/><path d="M546.027,288.257l16.292,25.853" transform="translate(2550.134 -1237.323)" fill="#fcfcfc" stroke="#262626" stroke-width="1.5"/><path d="M544.8,301.183l12.952,20.533" transform="translate(2550.134 -1237.323)" fill="#fcfcfc" stroke="#262626" stroke-width="1.5"/><path d="M544.8,321.716l11.746-1.525" transform="translate(2550.134 -1237.323)" fill="#fcfcfc" stroke="#262626" stroke-width="1.5"/><path d="M518.371,326l12.5-25.836" transform="translate(2550.134 -1237.323)" fill="#fcfcfc" stroke="#262626" stroke-width="1.5"/><path d="M518.91,324.487l11.7-1.238" transform="translate(2550.134 -1237.323)" fill="#fcfcfc" stroke="#262626" stroke-width="1.5"/><path d="M518.91,331.323l12.075,27.132" transform="translate(2550.134 -1237.323)" fill="#fcfcfc" stroke="#262626" stroke-width="1.5"/><path d="M519.741,332.984l11.271-1.6" transform="translate(2550.134 -1237.323)" fill="#fcfcfc" stroke="#262626" stroke-width="1.5"/><path d="M544.8,329.686l11.06-1.6" transform="translate(2550.134 -1237.323)" fill="#fcfcfc" stroke="#262626" stroke-width="1.5"/><path d="M544.8,357.47l10.448-29.158" transform="translate(2550.134 -1237.323)" fill="#fcfcfc" stroke="#262626" stroke-width="1.5"/><path d="M404.7,197.188v-3.454a.2.2,0,0,1,.309-.168L543.25,283.549v5.639a.2.2,0,0,1-.124.185l-3.213,1.319a.2.2,0,0,1-.276-.185V284.93Z" transform="translate(2550.463 -1237.095)" fill="#fcfcfc" stroke="#262626" stroke-width="1.5"/><path d="M478.824,409.291v-8.847a.224.224,0,0,0-.011-.068c-.2-.575-3.12-8.071-18.817-6.446a.193.193,0,0,1-.218-.172c-.065-.971.178-5.291,9.641-5.608a.2.2,0,0,0,.186-.148c.086-.345.552-1.21,3.039-1.384a.2.2,0,0,0,.146-.323c-.535-.629-.94-2.021,6.034-1.969,0,0,3.1-.2,2.336,3.689a.2.2,0,0,0,.079.2c.352.227,1.58.833,3.615-.075,2.442-1.089.133,2.7,0,4.363a12.127,12.127,0,0,0-.03,2.189.2.2,0,0,0,.308.149,15.329,15.329,0,0,1,8.364-2.361.2.2,0,0,1,.108.369,12.647,12.647,0,0,0-3.747,3.4.166.166,0,0,1-.062.064l-3.342,2.043a.2.2,0,0,0,.014.35l3.368,1.7s-6.36-1.878-7.66-.058a.219.219,0,0,0-.04.129v9.772l1.283-.657a.207.207,0,0,1,.269.073,2.147,2.147,0,0,1-.6,2.836c-.059.041-.119.08-.182.116,0,0,2.093-1.184,1.953,3.072a.208.208,0,0,1-.116.181c-.81.374-5.877,2.53-9.948,0a.182.182,0,0,1-.091-.141c-.067-.8-.431-6.69,3.9-6.25A.2.2,0,0,0,478.824,409.291Z" transform="translate(2550.134 -1237.323)" fill="#fcfcfc" stroke="#262626" stroke-width="1.5"/><path d="M499.185,392.392a3.835,3.835,0,0,1-.034-2.165.186.186,0,0,0-.049-.19c-.5-.47-2.99-2.955-.76-3.428a.2.2,0,0,0,.147-.29c-.571-1.02-2.438-4.721,2.82-.931a.2.2,0,0,0,.241,0c.555-.439,3-2.167,3.516.98a.2.2,0,0,0,.207.173c.688-.065,3.118-.123,2.891,2.349l1.822,1.224" transform="translate(2550.134 -1237.323)" fill="#fcfcfc" stroke="#262626" stroke-width="1.5"/><path d="M519.483,393.029s1.81-1.455,2.282,0a5.574,5.574,0,0,1,5.758,2.953s-8.274,1.339-10.714,2.907" transform="translate(2550.134 -1237.323)" fill="#fcfcfc" stroke="#262626" stroke-width="1.5"/><path d="M499.65,404.782v-5.008" transform="translate(2550.134 -1237.323)" fill="#fcfcfc" stroke="#262626" stroke-width="1.5"/><path d="M501.726,400.086v4.807a.2.2,0,0,0,.307.155c.47-.282,1.536-.2,3.577,3.142a.218.218,0,0,1-.042.275,9.118,9.118,0,0,1-9.855,1.113.21.21,0,0,1-.115-.177c-.027-.518-.021-2.488,1.623-2.6a.2.2,0,0,0,.179-.131c.173-.547.945-2.668,2.349-2.107" transform="translate(2550.134 -1237.323)" fill="#fcfcfc" stroke="#262626" stroke-width="1.5"/><path d="M497.108,388.055s-4.925-3.707-9.393.57a.187.187,0,0,1-.106.052l-1.586.22" transform="translate(2550.134 -1237.323)" fill="#fcfcfc" stroke="#262626" stroke-width="1.5"/><path d="M480.681,385.05l.762-3.706a.2.2,0,0,0-.082-.2c-.3-.2-1.114-.792-1.206-1.5a.2.2,0,0,1,.031-.14c.145-.218.8-.869,3.391-.647a.2.2,0,0,0,.211-.133c.2-.652,1.232-3.067,4.812.728a.2.2,0,0,0,.239.045c.718-.4,4.3-2.089,6.46,2.744a.19.19,0,0,0,.066.08l2.279,1.6" transform="translate(2550.134 -1237.323)" fill="#fcfcfc" stroke="#262626" stroke-width="1.5"/><path d="M475.432,429.916c.155-1.044,1.252-6.862,6.508-7.5a.2.2,0,0,0,.176-.193V405.2a.187.187,0,0,0-.067-.15c-.808-.666-8.9-6.912-23.637-2.722a.2.2,0,0,1-.252-.169c-.057-.743-.084-3.027,1.647-3.583a.184.184,0,0,0,.137-.2c-.122-.864-.514-5.027,3.575-3.558a.193.193,0,0,0,.218-.055c.661-.83,5.344-6.127,12.851.042a.176.176,0,0,0,.162.039c.617-.171,4.377-.975,3.413,5.178a.2.2,0,0,0,.031.144l.993,1.457s-1.04-4.978.688-5.723a.2.2,0,0,0,.113-.28c-.483-.82-2.035-3.8.736-4.2a.2.2,0,0,0,.173-.248c-.273-.883-1.026-4.16,2.444-5.133a.2.2,0,0,0,.133-.274c-.248-.516-.767-1.85.071-2.63a.23.23,0,0,1,.085-.051c.368-.119,2.87-.852,4.4.829a.194.194,0,0,0,.339-.121c.054-1.171.494-3.73,3.346-3.322a.2.2,0,0,1,.081.029,2.665,2.665,0,0,1,.81,3.569.2.2,0,0,0,.163.282c.913.024,3.4.4-.171,4.15a.193.193,0,0,0-.019.253c.5.6,2.371,3.344-1.943,5.947a.2.2,0,0,0-.018.336,3,3,0,0,1,1.187,4.248.193.193,0,0,1-.123.1c-.8.189-7.651,1.952-8.1,7.51v15.871a.2.2,0,0,0,.38.085c.562-1.221,1.64-2.765,2.476.825a.192.192,0,0,0,.152.151c.465.074,2.105.522,1.78,3.153v.007c-.029.141-1.584,7.745-14.806,3.148A.2.2,0,0,1,475.432,429.916Z" transform="translate(2550.134 -1237.323)" fill="#fcfcfc" stroke="#262626" stroke-width="1.5"/><path d="M468.9,391.348a5.005,5.005,0,0,1-.033-2.859.185.185,0,0,0-.051-.19c-.591-.557-4.024-3.935-.931-4.509a.2.2,0,0,0,.149-.288c-.689-1.216-3.366-6.349,3.68-1.257a.2.2,0,0,0,.234,0c.644-.519,3.967-2.96,4.634,1.31a.19.19,0,0,0,.2.169c.8-.085,4.052-.238,3.835,2.941a.2.2,0,0,0,.083.179l2.284,1.537" transform="translate(2550.134 -1237.323)" fill="#fcfcfc" stroke="#262626" stroke-width="1.5"/><path d="M495.375,392.177s2.236-1.8,2.923-.145a.2.2,0,0,0,.2.125,7.27,7.27,0,0,1,7.362,3.871s-10.791,1.747-13.974,3.792" transform="translate(2550.134 -1237.323)" fill="#fcfcfc" stroke="#262626" stroke-width="1.5"/><path d="M469.507,407.509v-6.532" transform="translate(2550.134 -1237.323)" fill="#fcfcfc" stroke="#262626" stroke-width="1.5"/><path d="M472.214,401.383v6.364a.2.2,0,0,0,.312.172c.563-.429,1.965-.546,4.785,4.087a.223.223,0,0,1-.041.273,11.9,11.9,0,0,1-12.932,1.47.2.2,0,0,1-.112-.167c-.037-.6-.084-3.322,2.156-3.434a.2.2,0,0,0,.182-.131c.2-.651,1.211-3.529,3.074-2.784" transform="translate(2550.134 -1237.323)" fill="#fcfcfc" stroke="#262626" stroke-width="1.5"/><path d="M466.192,385.692s-6.434-4.842-12.265.756a.2.2,0,0,1-.107.053l-2.088.291" transform="translate(2550.134 -1237.323)" fill="#fcfcfc" stroke="#262626" stroke-width="1.5"/><path d="M444.766,381.772l1.031-5.011s-1.655-.961-1.725-2.145c0,0,.455-1.325,4.7-.909,0,0,1.008-4.91,6.363.791a.193.193,0,0,0,.235.043c.832-.476,5.614-2.849,8.474,3.572a.19.19,0,0,0,.066.08l2.984,2.092" transform="translate(2550.134 -1237.323)" fill="#fcfcfc" stroke="#262626" stroke-width="1.5"/><path d="M461.068,373.963a1.934,1.934,0,0,1,2.092-2.115s-1.239-5.655,2.458-5.792c0,0,1.556-9.928,3.361.433,0,0,3.137.11,1.835,3.83a.2.2,0,0,0,.044.208l2.41,2.4a.2.2,0,0,0,.268.013c.688-.59,3.837-3.079,5.506-.813a.2.2,0,0,0,.269.055l2.518-1.684a.211.211,0,0,1,.179-.026,10.083,10.083,0,0,1,5.2,3.859.205.205,0,0,1-.055.286l-1.912,1.285a.184.184,0,0,0-.077.1,5.523,5.523,0,0,1-5.079,3.641.191.191,0,0,0-.18.232c.159.75.393,3.172-3.56,2.242" transform="translate(2550.134 -1237.323)" fill="#fcfcfc" stroke="#262626" stroke-width="1.5"/><path d="M424.655,393.285v7.692s-3.44-1.346-3.075,2.3,9.877,1.58,9.877,1.58,3.065-4.216-3.392-3.474v-7.7" transform="translate(2550.134 -1237.323)" fill="#fcfcfc" stroke="#262626" stroke-width="1.5"/><path d="M429.066,385.691l.782-7.218,1.87-2.337s11.054.845,8.718-5.363c0,0-5.088-4.979-9.551-1.971,0,0,.556-11.331-12.817-11.507,0,0,4.23,8.221,5.074,8.9,0,0-3.895-9.276-18.38-5.932l1.792,2.843-3.589,1.2s-7.672,1.288-5.017,4.5c0,0,14.881-4.433,22.074,6.265l-3.072,1.069s9.344,5.169,12.113,1.28" transform="translate(2550.134 -1237.323)" fill="#fcfcfc" stroke="#262626" stroke-width="1.5"/><path d="M425.249,379.256v6.779" transform="translate(2550.134 -1237.323)" fill="#fcfcfc" stroke="#262626" stroke-width="1.5"/><path d="M424.654,373.581s-6.418-11.837-17.953-10.392" transform="translate(2550.134 -1237.323)" fill="#fcfcfc" stroke="#262626" stroke-width="1.5"/><path d="M444.072,374.785l-3.184-1.143" transform="translate(2550.134 -1237.323)" fill="#fcfcfc" stroke="#262626" stroke-width="1.5"/><path d="M435.866,368.323s-2.347-2.072,3.837-1.634c0,0-.847-3.893,3.316-1.8,0,0,7.635-7.052,7.924,2.518,0,0,6.508,1.665,4.592,3.98a.2.2,0,0,0,.071.32c.77.293,2.865,1.2,2.506,2.285" transform="translate(2550.134 -1237.323)" fill="#fcfcfc" stroke="#262626" stroke-width="1.5"/><path d="M444.071,363.067V359.6h3.8s.469-2.6,3.657,0c0,0,7.366,2.892,5.8,8.637a.194.194,0,0,0,.011.134l1.646,3.386s-3.734-6.98-5.9-7.321" transform="translate(2550.134 -1237.323)" fill="#fcfcfc" stroke="#262626" stroke-width="1.5"/><path d="M453.981,360.157s-1.241-5.739,2.624-4.776c0,0,3.069-5.544,4.23.926,0,0,6.536-1.686,3.512,3.85,0,0-3.979,5.165-2.238,8.129" transform="translate(2550.134 -1237.323)" fill="#fcfcfc" stroke="#262626" stroke-width="1.5"/><path d="M464.216,360.724l2.023-.782s1.441-7.937,5.395-2.755c0,0,2.608-3.636,4.438.814l1.42,3.256a.2.2,0,0,0,.206.119c.814-.1,4.691-.446,2.358,2.579a.208.208,0,0,1-.2.077,10.979,10.979,0,0,0-9.493,2.8" transform="translate(2550.134 -1237.323)" fill="#fcfcfc" stroke="#262626" stroke-width="1.5"/><path d="M448.8,358.44s9.362-10.269,16.89-5.951l4.509-1.366s3.466-4.858-5.358-4.089c0,0-2.727-4.943-5.666,0,0,0-9.466-2.583-9.37,5.456,0,0-6.2,2.43-4.892,5.951" transform="translate(2550.134 -1237.323)" fill="#fcfcfc" stroke="#262626" stroke-width="1.5"/><path d="M435.429,366.829l-.979-6.884-5.529-3.247s-4.2,1.1-5.384-2.553l1.73-2.192s3.548-8.547,7.438-5.668c0,0-.349,3.706,1.744,4.8" transform="translate(2550.134 -1237.323)" fill="#fcfcfc" stroke="#262626" stroke-width="1.5"/><path d="M432.953,345.693l-6.091-6.9s1.636-7.079,6.762-3.854c0,0,2.592-5.044,5.019-2.343,0,0,4.275,5.655,2.843,9.807" transform="translate(2550.134 -1237.323)" fill="#fcfcfc" stroke="#262626" stroke-width="1.5"/><path d="M454.733,346.656s-4.553-2.583-8.79-.762l1.979-3.014-3.8-6.7s-1.244-12.921-10.1-6.117c0,0,3.887.441,4.045,1.855" transform="translate(2550.134 -1237.323)" fill="#fcfcfc" stroke="#262626" stroke-width="1.5"/><path d="M444.732,359.494s-.137-1.682-3.081-1.713l-2.931-2.39" transform="translate(2550.134 -1237.323)" fill="#fcfcfc" stroke="#262626" stroke-width="1.5"/><path d="M444.072,348.877s-2.211.564-2.377,2.439c0,0,1.35-3.291,0-4.157" transform="translate(2550.134 -1237.323)" fill="#fcfcfc" stroke="#262626" stroke-width="1.5"/><path d="M425.251,351.639l-1.891-1.158s-4.044,5.228-5.692,5.321c0,0-3.708-4.009-2.495-5.7l-2.589,2.393s-9.83-.855-13.63.555c0,0-3.16-6.84,11.323-13.242,0,0-13.75-2.046-18.486,2.917,0,0-3.161-2.348,2.257-6.052l-2.257-1.774s7.357-3.625,11.688,0c0,0-3.45-4.9-8.727-4.711,0,0,5.067-6.344,15.525,2.977v4.354a15.809,15.809,0,0,0-15.525,0" transform="translate(2550.134 -1237.323)" fill="#fcfcfc" stroke="#262626" stroke-width="1.5"/><path d="M402.957,351.639s5.182-9.522,6.758-10.152" transform="translate(2550.134 -1237.323)" fill="#fcfcfc" stroke="#262626" stroke-width="1.5"/><path d="M411.32,351.638a16.608,16.608,0,0,1,.651-5.914" transform="translate(2550.134 -1237.323)" fill="#fcfcfc" stroke="#262626" stroke-width="1.5"/><path d="M429.484,334.148s-12.4,5.981-14.11,15.065" transform="translate(2550.134 -1237.323)" fill="#fcfcfc" stroke="#262626" stroke-width="1.5"/><path d="M408.062,376.756v-8.7" transform="translate(2550.134 -1237.323)" fill="#fcfcfc" stroke="#262626" stroke-width="1.5"/><path d="M411.971,376.756v-7.671" transform="translate(2550.134 -1237.323)" fill="#fcfcfc" stroke="#262626" stroke-width="1.5"/><path d="M415.374,382.646s1.218-5.764-3.375-5.764" transform="translate(2550.134 -1237.323)" fill="#fcfcfc" stroke="#262626" stroke-width="1.5"/><path d="M407.4,375.524c-3.224-.245-3.116,4.24-3.116,4.24s6.865,2.777,11.017,2.314" transform="translate(2550.134 -1237.323)" fill="#fcfcfc" stroke="#262626" stroke-width="1.5"/><path d="M396.393,340.709c1.21,6.127-2.241,15.412-2.241,15.412-6.051,3.19,3.238,5.008,3.238,5.008s12.81-1.652.761-3.687l.727-5.177" transform="translate(2550.134 -1237.323)" fill="#fcfcfc" stroke="#262626" stroke-width="1.5"/><path d="M400.232,347.159v-7.327" transform="translate(2550.134 -1237.323)" fill="#fcfcfc" stroke="#262626" stroke-width="1.5"/><path d="M415.3,341.94a9.924,9.924,0,0,1,8.789-7.066.2.2,0,0,0,.177-.211c-.1-.966-1.1-5.041-10.538,2.31" transform="translate(2550.134 -1237.323)" fill="#fcfcfc" stroke="#262626" stroke-width="1.5"/><path d="M416.82,329.388s1.558-2.411,4.1-.268a.2.2,0,0,0,.332-.122c.238-2.6,1.708-16.894,4.066-1.82,0,0-1.7-13.257,6.844-14.85,0,0,2.555,1.8-1.041,3v5.089s9.182-4.119,4.967,1.17c0,0,12.03,2.588-3.061,3.169l1.351,2.422s-4.475,2.544-5.735,6.681" transform="translate(2550.134 -1237.323)" fill="#fcfcfc" stroke="#262626" stroke-width="1.5"/><path d="M443.677,331.175s3.307.854,3.622-2.5c0,0,.61-2.98-1.772-2.98l-.027-12.04a5.163,5.163,0,0,0,1.8-4.26l2.189-1.716h7.244l-1.51-3.974s-2.182-3.343-6.887,2.454a5.057,5.057,0,0,0,1.956-4.954s4.8-2.662,0-3.908c0,0,1.284-8.8-2.991-.8a15.4,15.4,0,0,0-5.778,11.177s-4.028-4.549-8.481-2.962c0,0,2.391,4.058,6.412,4.678l2.069,2.413v14.623s-1.574-2.054-2.069,1.447" transform="translate(2550.134 -1237.323)" fill="#fcfcfc" stroke="#262626" stroke-width="1.5"/><path d="M442.882,397.532s-5.535-12.122-11.425-11.488l8.566,11.488" transform="translate(2550.134 -1237.323)" fill="#fcfcfc" stroke="#262626" stroke-width="1.5"/><path d="M438.723,383.746s5.054,3.6,4.351,13.6" transform="translate(2550.134 -1237.323)" fill="#fcfcfc" stroke="#262626" stroke-width="1.5"/><path d="M460.243,390.544s5.678-9.448-5.3-4.409" transform="translate(2550.134 -1237.323)" fill="#fcfcfc" stroke="#262626" stroke-width="1.5"/><path d="M481.586,413.493l-3.591-4.878s1.891-1.1,3.591,1.615" transform="translate(2550.134 -1237.323)" fill="#fcfcfc" stroke="#262626" stroke-width="1.5"/><path d="M513.964,405.861c3.977-3.495-2.15-3.089-2.15-3.089V382.244c-.193-3.708,5.016-9.2,5.016-9.2-4.443-1.53-2.866-4.776-2.866-4.776,5.2-13.3-2.15-8.406-2.15-8.406-3.7,2.582-5.948,14.96-6.334,17.244a.193.193,0,0,1-.33.1c-7.56-7.18-20.119.33-12.539-.4,7.67-.734,15.7,7.021,15.7,7.021l-.73,13.709v5.241s-9.361-.053-4.195,4.888a.211.211,0,0,0,.069.045c.516.2,6.192,2.322,9.157-.015" transform="translate(2550.134 -1237.323)" fill="#fcfcfc" stroke="#262626" stroke-width="1.5"/><path d="M521.423,388.531l1.505-13.67s-3.372-3.218-5.672-1.184" transform="translate(2550.134 -1237.323)" fill="#fcfcfc" stroke="#262626" stroke-width="1.5"/><path d="M505.86,369.086c-7.14-2.615-5.975,3-5.631,4.275a.2.2,0,0,1-.194.249h-3.524a.2.2,0,0,1-.2-.2v-7.742s-7.267-.271-9.754-2.044l6.794.925a5.114,5.114,0,0,1-4.242-4.243c-.551-3.736,5.323,2.365,5.323,2.365l-7.584-6.329a.206.206,0,0,1,.072-.353,8.232,8.232,0,0,1,7.512,1.6l-7.756-3.878a.2.2,0,0,1-.11-.2c.062-.73.623-3.947,5.686.138,0,0,3.189-.99,4.059,10.9" transform="translate(2550.134 -1237.323)" fill="#fcfcfc" stroke="#262626" stroke-width="1.5"/><path d="M486.558,351.315s7.319-7.919,12.5-4.065v10.508s3.6-14.057,14.708-13.121l-6.151,3.788,2.78,1.585-2.78,2.379v1.881h4.808s-4.245,3.808,0,4.4" transform="translate(2550.134 -1237.323)" fill="#fcfcfc" stroke="#262626" stroke-width="1.5"/><path d="M497.147,365.1s2.563-7.287,14.089-2.633" transform="translate(2550.134 -1237.323)" fill="#fcfcfc" stroke="#262626" stroke-width="1.5"/><path d="M500.163,365.955s2.693-3.928,7.307-1.115" transform="translate(2550.134 -1237.323)" fill="#fcfcfc" stroke="#262626" stroke-width="1.5"/><path d="M572.148,347.973" transform="translate(2550.134 -1237.323)" fill="#fcfcfc" stroke="#262626" stroke-width="1.5"/><path d="M552.511,422.3s7.423.692,7.656-4.675c0,0-3.575-5.734-4.777-3.974V394.717l4.777-1.813s3.356-1.326,0-5.87c0,0,3.344-4.394,2.327-6.82a.186.186,0,0,1,.089-.253c.953-.424-5.262,5.569-10.646,1.707-.051-.037,10.471-8.343,10.471-8.406l-7.961,1.016c0-.11,8.261-4.64,8.152-4.652-14.866-1.522-7.963-3.761-.261-5.626,0,0,2.182-8.294-7.891-8.237" transform="translate(2550.134 -1237.323)" fill="#fcfcfc" stroke="#262626" stroke-width="1.5"/><path d="M558.2,352.743l-3.293.789" transform="translate(2550.134 -1237.323)" fill="#fcfcfc" stroke="#262626" stroke-width="1.5"/><path d="M551.552,368.585s4.669-5.168,7.741-1.678a.2.2,0,0,0,.208.061c.994-.343,7.812-2.465,7.506,4a.171.171,0,0,0,.012.071,5.842,5.842,0,0,1-1.745,6.742c-.141.114-.148-.125-.315-.2-3.138-1.348-4.8-7.2-13.408-4.425" transform="translate(2550.134 -1237.323)" fill="#fcfcfc" stroke="#262626" stroke-width="1.5"/><path d="M485.584,369.9l.678-18.683" transform="translate(2550.134 -1237.323)" fill="#fcfcfc" stroke="#262626" stroke-width="1.5"/><path d="M482.21,369.271l.387-20.493a.2.2,0,0,0-.1-.179c-.807-.427-6.112-3.056-10.559-.928" transform="translate(2550.134 -1237.323)" fill="#fcfcfc" stroke="#262626" stroke-width="1.5"/><path d="M478.474,346.849l-6.7-2.009V339.7s5.147-1.724,7.047,1.011" transform="translate(2550.134 -1237.323)" fill="#fcfcfc" stroke="#262626" stroke-width="1.5"/><path d="M481.678,347.973s-6.745-11.439,3.323-17.932" transform="translate(2550.134 -1237.323)" fill="none" stroke="#262626" stroke-width="1.5"/><path d="M485,330.429A16.3,16.3,0,0,1,486.644,338s.234-13.353,12.7-11.164l-2.875,4.432,9.784,3.633s-10.439.513-7.668,3.1l5.426,6.528s-12.66-1.274-18,5.773" transform="translate(2550.134 -1237.323)" fill="#fcfcfc" stroke="#262626" stroke-width="1.5"/><path d="M470.042,343.233" transform="translate(2550.134 -1237.323)" fill="#fcfcfc" stroke="#262626" stroke-width="1.5"/><path d="M482.7,319.179s2.22-2.594,4.132-1.121a.216.216,0,0,1,.082.168v2.459a.2.2,0,0,0,.224.2c1.016-.123,5.134-.424,4.995,2.823a.193.193,0,0,0,.044.133l2.682,3.169" transform="translate(2550.134 -1237.323)" fill="#fcfcfc" stroke="#262626" stroke-width="1.5"/><path d="M495.787,307.105" transform="translate(2550.134 -1237.323)" fill="#fcfcfc" stroke="#262626" stroke-width="1.5"/><path d="M495.459,305.137" transform="translate(2550.134 -1237.323)" fill="#fcfcfc" stroke="#262626" stroke-width="1.5"/><path d="M470.874,323.094s7.573-3.755,5.309,9.3c.092,18.1,8.711-7.59,6.521-13.214" transform="translate(2550.134 -1237.323)" fill="#fcfcfc" stroke="#262626" stroke-width="1.5"/><path d="M411.271,329.282s.927-11.9-10.439-6.833l.683,3.214-5.858-3.832,3.579,5.73" transform="translate(2550.134 -1237.323)" fill="#fcfcfc" stroke="#262626" stroke-width="1.5"/><path d="M393.772,329.731l.918-8.072" transform="translate(2550.134 -1237.323)" fill="#fcfcfc" stroke="#262626" stroke-width="1.5"/><path d="M391.611,332.319v-5.67l-2.39-2.824a.2.2,0,0,1,.2-.323l2.743.693v-3.562a10.016,10.016,0,0,0-7.152-2.9s-4.516-4.059.559-5.261H386.8v-1.359s8.427-.984,9.627,3.034c0,0-5.816-9.059,1.259-6.04l5.509,2.388-.381-4.573-1.911-2.671h-1.949l-2.411-2a.2.2,0,0,1-.058-.228c.388-.918,2.325-6.228-6.067-3.5l-.026.011-2.717,1.282a.2.2,0,0,1-.28-.134l-.6-2.52-.551-2.628a.2.2,0,0,1,.13-.23l6.357-2.2a.2.2,0,0,0,.125-.259c-.137-.324-.766-.92-3.542-.939a.2.2,0,0,1-.147-.335c.983-.974,3.28-3.6-2.625-1.816a.2.2,0,0,1-.255-.221c.245-1.111.77-4.44-3.123.527a.2.2,0,0,1-.358-.082,2.29,2.29,0,0,0-3.177-1.678v-1.728a.193.193,0,0,1,.2-.2c1.172.054,7.053.213,6.964-2.1,0,0,2.1-7.621-2.222-5.857,0,0,2.613-9.828-4.945-9.659l-4.68.678,1.878,2.745L375.07,271.3a.2.2,0,0,1-.218,0c-.69-.481-4.546-3.02-4.795.075,0,0-1.959,2.511.489,3.389a.2.2,0,0,1,.136.222l-1.008,5.3a.2.2,0,0,1-.289.14l-4.938-2.582a.2.2,0,0,1-.107-.169c-.047-1.126-.5-9.982-2.979-2.876a.245.245,0,0,0-.011.047l-.461,4.133a.2.2,0,0,1-.33.128c-.855-.792-3.4-2.925-4.5-1.316l-3.933,1.522a.2.2,0,0,0-.118.249l1.343,4.113a.18.18,0,0,1,.007.092c-.064.356-.426,2.791,1.869,2.53,0,0,5.534,1.277,5.616,3.608l.963,4.862a.2.2,0,0,1-.27.225c-1-.429-3.8-1.444-3.822.731l-.406,2.094a.194.194,0,0,1-.2.161c-1.279-.069-9.461-.372-11.079,3.105a.205.205,0,0,0-.011.152c.153.467,1.061,2.975,3.1,3.39a.2.2,0,0,1,.157.239l-.342,1.3a.2.2,0,0,0,.147.246l3.774.894a.2.2,0,0,1,.048.371l-6.627,3.567a.2.2,0,0,0,.108.375c1.976-.181,6.147-.329,6.4,1.615a.2.2,0,0,0,.164.179c.808.1,4.565.662,4.769,3.016l-.382,3.661a.2.2,0,0,0,.33.171c.552-.487,1.5-1.106,1.5.377v9.632s-4.074.9-3.634,3.152l4.564,1.489,4.119,1.344s4.948-3.471-2.93-4.78l.509-11.913a.194.194,0,0,1,.2-.191c1.558.06,12.089.57,13.213,3.321a.187.187,0,0,0,.176.124h3.335s-3.881-9.946-14.505-10.089" transform="translate(2550.134 -1237.323)" fill="#fcfcfc" stroke="#262626" stroke-width="1.5"/><path d="M370,318.426l-5.9-3.885a.187.187,0,0,1-.089-.145c-.083-1.075-1.067-11.33-8.5-11.624a.209.209,0,0,0-.2.129c-.3.742-1.607,4.381.974,6.049" transform="translate(2550.134 -1237.323)" fill="#fcfcfc" stroke="#262626" stroke-width="1.5"/><path d="M346.379,300.8s11.384-.076,12.888,2.446" transform="translate(2550.134 -1237.323)" fill="#fcfcfc" stroke="#262626" stroke-width="1.5"/><path d="M357.726,297.956l6.361.349a.2.2,0,0,1,.141.33l-1.741,2.039a.2.2,0,0,0,.142.329c1.856.093,9.005,1.046,2.49,10.391" transform="translate(2550.134 -1237.323)" fill="#fcfcfc" stroke="#262626" stroke-width="1.5"/><path d="M369.208,312.727l1.53-1.494a.194.194,0,0,0,.022-.261c-.627-.8-3.409-4.95,5.868-5.63a7,7,0,0,1,5.588,5.763l3.655.629s-6.331-1.012-2.545-6.392c0,0-1.295-4.425,3.667-2.324,0,0,3.848-1.1,3.349,4.281v2.453l4.031,1.353" transform="translate(2550.134 -1237.323)" fill="none" stroke="#262626" stroke-width="1.5"/><path d="M386.753,305.16" transform="translate(2550.134 -1237.323)" fill="#fcfcfc" stroke="#262626" stroke-width="1.5"/><path d="M383.485,303.243l-3.24-1.751a.185.185,0,0,1-.1-.121c-.143-.559-1.152-3.854-4.726-2.1a.2.2,0,0,1-.247-.052c-.5-.677-5.84.522-8.695,3.46" transform="translate(2550.134 -1237.323)" fill="#fcfcfc" stroke="#262626" stroke-width="1.5"/><path d="M373.855,294.617" transform="translate(2550.134 -1237.323)" fill="#fcfcfc" stroke="#262626" stroke-width="1.5"/><path d="M376.425,297.956" transform="translate(2550.134 -1237.323)" fill="#fcfcfc" stroke="#262626" stroke-width="1.5"/><path d="M378.718,298.448s-10.089-10.39-11.487-10.461" transform="translate(2550.134 -1237.323)" fill="#fcfcfc" stroke="#262626" stroke-width="1.5"/><path d="M374.74,288.636" transform="translate(2550.134 -1237.323)" fill="#fcfcfc" stroke="#262626" stroke-width="1.5"/><path d="M378.088,296.852" transform="translate(2550.134 -1237.323)" fill="#fcfcfc" stroke="#262626" stroke-width="1.5"/><path d="M362.352,294.344a6.438,6.438,0,0,1,2.42,0c1.382.251-2.2-3.335,1.422-2.9,3.438.412,1.273-3.091,1.037-3.457a.183.183,0,0,0-.048-.052L363.7,285.3a.2.2,0,0,1-.078-.183c.07-.462.15-2.307-2.732-3.453a.2.2,0,0,1-.129-.183v-2.773" transform="translate(2550.134 -1237.323)" fill="#fcfcfc" stroke="#262626" stroke-width="1.5"/><path d="M368.12,288.273s1.032-3.875,3.524-3.875-2.769-7.618,5.086-5.3" transform="translate(2550.134 -1237.323)" fill="#fcfcfc" stroke="#262626" stroke-width="1.5"/><path d="M378.718,298.448l1.815-.762a.2.2,0,0,0,.123-.185v-3.14a.2.2,0,0,1,.114-.181l1.742-.825a.189.189,0,0,0,.109-.135c.157-.767,1.279-5.892,2.176,0a.212.212,0,0,0,.084.138l1.872,1.3" transform="translate(2550.134 -1237.323)" fill="#fcfcfc" stroke="#262626" stroke-width="1.5"/><path d="M407.26,310.6l3.9,3.782-5.943.377,2.041,2.576s6.055-.3,6.077,2.017l4.006,1.641s-3.155,5.152-3.468,7.088" transform="translate(2550.134 -1237.323)" fill="#fcfcfc" stroke="#262626" stroke-width="1.5"/><path d="M421.661,323.342H421.6a.192.192,0,0,0,.109-.033l3.247-2.122a.194.194,0,0,0,.091-.16c.013-.741-.239-5.153-8.26-3.725l6.639-4.49a.2.2,0,0,1,.112-.034h4.316a.2.2,0,0,0,.189-.266l-.926-2.66a.2.2,0,0,1,.143-.26l4.378-1.032s-2.106-5.5-11.9.04a.2.2,0,0,1-.284-.254c.979-2,3.8-8.187-.855-4.217,0,0-3.743-7.128-6.258,4.431" transform="translate(2550.134 -1237.323)" fill="#fcfcfc" stroke="#262626" stroke-width="1.5"/><path d="M413.732,313.219s6.726-9.954,1.8-11.118" transform="translate(2550.134 -1237.323)" fill="#fcfcfc" stroke="#262626" stroke-width="1.5"/><path d="M413.732,302.6s3.584-12.916,1.07-12.386c0,0-.87-3.48,2.136-4.064a.2.2,0,0,0,.164-.181c.038-.994.007-6.235-5.393.666" transform="translate(2550.134 -1237.323)" fill="#fcfcfc" stroke="#262626" stroke-width="1.5"/><path d="M385.813,268.432a2.234,2.234,0,0,1,2.569-1.838l.046.009s4.4-2.033,4.419,3.819l-2.24,8.181a.2.2,0,0,1-.385,0l-1.785-6.227a.221.221,0,0,0-.026-.056Z" transform="translate(2550.134 -1237.323)" fill="#fcfcfc" stroke="#262626" stroke-width="1.5"/><path d="M405.552,286.042c4.309,1.019,5.794,0,5.794,0v3.347a.2.2,0,0,0,.019.086l3.927,8.268a.2.2,0,0,1-.2.284l-4.282-.471a.193.193,0,0,1-.174-.162c-.112-.713-.839-3.835-4.993-3.986a.181.181,0,0,1-.139-.062c-.586-.7-5.958-7.3.051-7.3" transform="translate(2550.134 -1237.323)" fill="#fcfcfc" stroke="#262626" stroke-width="1.5"/><path d="M418.148,283.122s-5.45,2.615-6.384-5.543,6.384-6.377,6.384-6.377l3.281-2.692a.2.2,0,0,1,.286.033c.259.374.711,1.454-.384,3.648a.2.2,0,0,0,.234.287c1.442-.46,5.646-1.484,4.947,2.507a.2.2,0,0,0,.157.236c1.068.153,5.99,1.135,3.1,5.945" transform="translate(2550.134 -1237.323)" fill="#fcfcfc" stroke="#262626" stroke-width="1.5"/><path d="M426.234,296.646s-5.121-4.308-10.655,2.5a.208.208,0,0,0,.107.329l1.935.5a.2.2,0,0,1,.116.082l.933,1.4a.2.2,0,0,0,.314.024l1.35-1.483s-.741.569,5.745,1.67l.02.005,3.627,1.006" transform="translate(2550.134 -1237.323)" fill="#fcfcfc" stroke="#262626" stroke-width="1.5"/><path d="M423.814,291.024l2.42,5.622" transform="translate(2550.134 -1237.323)" fill="#fcfcfc" stroke="#262626" stroke-width="1.5"/><path d="M433.761,288.272s-3.056-10.933-12.228-7.265c0,0-1.967.308,4.937,4.052a.2.2,0,0,1-.155.366c-4.641-1.576-11.513,4.784.38,2.441.01,0-2.5,4.048-2.5,4.054" transform="translate(2550.134 -1237.323)" fill="#fcfcfc" stroke="#262626" stroke-width="1.5"/><path d="M421.35,294.9" transform="translate(2550.134 -1237.323)" fill="#fcfcfc" stroke="#262626" stroke-width="1.5"/><path d="M430.665,297.222" transform="translate(2550.134 -1237.323)" fill="#fcfcfc" stroke="#262626" stroke-width="1.5"/><path d="M435.348,297.136l-.35,2.4v4.717" transform="translate(2550.134 -1237.323)" fill="#fcfcfc" stroke="#262626" stroke-width="1.5"/><path d="M435.348,296.852s4.347.58,5.759-2.094c0,0-.764-5.007-7.1,0" transform="translate(2550.134 -1237.323)" fill="#fcfcfc" stroke="#262626" stroke-width="1.5"/><path d="M434.6,291.142s-1.621-3.7,3.58-3.775" transform="translate(2550.134 -1237.323)" fill="#fcfcfc" stroke="#262626" stroke-width="1.5"/><path d="M430.191,299.837V306.4" transform="translate(2550.134 -1237.323)" fill="#fcfcfc" stroke="#262626" stroke-width="1.5"/><path d="M434.358,308.209c-1.945,1.971-3.605,1.117-3.605,1.117" transform="translate(2550.134 -1237.323)" fill="#fcfcfc" stroke="#262626" stroke-width="1.5"/><path d="M387.145,320.013,385.692,345.1s4.055-.469,2.968,4.77a11.134,11.134,0,0,1-9.944.167s-5.4-3.574-1.17-6.54c0,0,1.308-5.448,4.941-.8l.64-24.8h-5.581l-1.671-.914a.2.2,0,0,1-.089-.251l1.062-2.6,5.639,2.011" transform="translate(2550.134 -1237.323)" fill="#fcfcfc" stroke="#262626" stroke-width="1.5"/><path d="M380.166,345.725s-2.509-.618-2.487-2.27" transform="translate(2550.134 -1237.323)" fill="#fcfcfc" stroke="#262626" stroke-width="1.5"/><path d="M378.341,317.993v10.275c-5.91-2.168-1.128,2.49-1.128,2.49-1.544-.875-2.933,1.908-2.933,1.908l8.028.65" transform="translate(2550.134 -1237.323)" fill="#fcfcfc" stroke="#262626" stroke-width="1.5"/><path d="M381.413,329.726v-11.48" transform="translate(2550.134 -1237.323)" fill="#fcfcfc" stroke="#262626" stroke-width="1.5"/><path d="M386.587,338.749s.393-4.987,3.068-4.987l2.277-1.013" transform="translate(2550.134 -1237.323)" fill="#fcfcfc" stroke="#262626" stroke-width="1.5"/><path d="M532.023,275.363l67.216-26.773" transform="translate(2550.134 -1237.323)" fill="#fcfcfc" stroke="#262626" stroke-width="1.5"/><path d="M557.258,277.783,413.243,190.846" transform="translate(2550.134 -1237.323)" fill="#fcfcfc" stroke="#262626" stroke-width="1.5"/><path d="M424.282,187.384l147.545,84.687" transform="translate(2550.134 -1237.323)" fill="#fcfcfc" stroke="#262626" stroke-width="1.5"/><path d="M585.376,266.261l-150.358-82.23" transform="translate(2550.134 -1237.323)" fill="#fcfcfc" stroke="#262626" stroke-width="1.5"/><path d="M446.311,180.784l153.573,79.6" transform="translate(2550.134 -1237.323)" fill="#fcfcfc" stroke="#262626" stroke-width="1.5"/><path d="M585.375,242.151,519.809,267.64" transform="translate(2550.134 -1237.323)" fill="#fcfcfc" stroke="#262626" stroke-width="1.5"/><path d="M507.867,260.9l66.339-24.925" transform="translate(2550.134 -1237.323)" fill="#fcfcfc" stroke="#262626" stroke-width="1.5"/><path d="M561.157,229.766l-63.119,24.16" transform="translate(2550.134 -1237.323)" fill="#fcfcfc" stroke="#262626" stroke-width="1.5"/><path d="M488.455,247.408l62.253-22.344" transform="translate(2550.134 -1237.323)" fill="#fcfcfc" stroke="#262626" stroke-width="1.5"/><path d="M479.253,242.149,540.7,219.994" transform="translate(2550.134 -1237.323)" fill="#fcfcfc" stroke="#262626" stroke-width="1.5"/><path d="M529.6,214.894l-60,21.4" transform="translate(2550.134 -1237.323)" fill="#fcfcfc" stroke="#262626" stroke-width="1.5"/><path d="M461.58,231.071l58.412-20.516" transform="translate(2550.134 -1237.323)" fill="#fcfcfc" stroke="#262626" stroke-width="1.5"/><path d="M509.976,205.43l-57.1,19.891" transform="translate(2550.134 -1237.323)" fill="#fcfcfc" stroke="#262626" stroke-width="1.5"/><path d="M444.267,220,500.3,201.143" transform="translate(2550.134 -1237.323)" fill="#fcfcfc" stroke="#262626" stroke-width="1.5"/><path d="M435.994,214.9l54.539-18.8" transform="translate(2550.134 -1237.323)" fill="#fcfcfc" stroke="#262626" stroke-width="1.5"/><path d="M427.966,209.552l53.116-17.843" transform="translate(2550.134 -1237.323)" fill="#fcfcfc" stroke="#262626" stroke-width="1.5"/><path d="M420.546,204.433l51.529-17.248" transform="translate(2550.134 -1237.323)" fill="#fcfcfc" stroke="#262626" stroke-width="1.5"/><path d="M413.118,199.72l50.77-16.389" transform="translate(2550.134 -1237.323)" fill="#fcfcfc" stroke="#262626" stroke-width="1.5"/><path d="M343.092,193.365l65.872,6.368" transform="translate(2550.134 -1237.323)" fill="#fcfcfc" stroke="#262626" stroke-width="1.5"/><path d="M348.73,189.607l115.72,81.771" transform="translate(2550.134 -1237.323)" fill="#fcfcfc" stroke="#262626" stroke-width="1.5"/><path d="M483.888,274.069l-121.569-82.7" transform="translate(2550.134 -1237.323)" fill="#fcfcfc" stroke="#262626" stroke-width="1.5"/><path d="M375.423,192.262l126.766,84.273" transform="translate(2550.134 -1237.323)" fill="#fcfcfc" stroke="#262626" stroke-width="1.5"/><path d="M523.684,281.108l-135.7-87.436" transform="translate(2550.134 -1237.323)" fill="#fcfcfc" stroke="#262626" stroke-width="1.5"/><path d="M350.028,198.46l66.355,5.973" transform="translate(2550.134 -1237.323)" fill="#fcfcfc" stroke="#262626" stroke-width="1.5"/><path d="M356.976,203.564l66.655,5.988" transform="translate(2550.134 -1237.323)" fill="#fcfcfc" stroke="#262626" stroke-width="1.5"/><path d="M362.319,207.489l70.162,7.4" transform="translate(2550.134 -1237.323)" fill="#fcfcfc" stroke="#262626" stroke-width="1.5"/><path d="M369.188,212.719,439.345,220" transform="translate(2550.134 -1237.323)" fill="#fcfcfc" stroke="#262626" stroke-width="1.5"/><path d="M375.423,217.742l73.419,7.579" transform="translate(2550.134 -1237.323)" fill="#fcfcfc" stroke="#262626" stroke-width="1.5"/><path d="M382.479,222.3l75.389,8.776" transform="translate(2550.134 -1237.323)" fill="#fcfcfc" stroke="#262626" stroke-width="1.5"/><path d="M389.684,227.589l77.138,8.848" transform="translate(2550.134 -1237.323)" fill="#fcfcfc" stroke="#262626" stroke-width="1.5"/><path d="M397.355,232.609,476,242.263" transform="translate(2550.134 -1237.323)" fill="#fcfcfc" stroke="#262626" stroke-width="1.5"/><path d="M402.994,237.366l80.167,10.193" transform="translate(2550.134 -1237.323)" fill="#fcfcfc" stroke="#262626" stroke-width="1.5"/><path d="M410.85,243.136l82.611,10.908" transform="translate(2550.134 -1237.323)" fill="#fcfcfc" stroke="#262626" stroke-width="1.5"/><path d="M418.212,248.545,503.717,260.9" transform="translate(2550.134 -1237.323)" fill="#fcfcfc" stroke="#262626" stroke-width="1.5"/><path d="M427.9,255.657,516.6,268.506" transform="translate(2550.134 -1237.323)" fill="#fcfcfc" stroke="#262626" stroke-width="1.5"/><path d="M437.557,262.753l89.833,12.685" transform="translate(2550.134 -1237.323)" fill="#fcfcfc" stroke="#262626" stroke-width="1.5"/><path d="M445.794,411.969V400.352a.217.217,0,0,0-.009-.062c-.212-.621-3.934-10.579-24.61-8.415a.193.193,0,0,1-.217-.17c-.1-1.14.015-7.023,12.785-7.384,0,0-.092-1.872,4.6-2.021,0,0-4.281-3.046,7.453-2.959,0,0,4.136-.259,3.011,4.98,0,0,1.668,1.42,4.854,0s.174,3.519,0,5.691a15.738,15.738,0,0,0-.031,2.952.2.2,0,0,0,.311.151,19.994,19.994,0,0,1,11.2-3.129.2.2,0,0,1,.1.365c-1.2.763-4.021,2.694-5.068,4.565a.187.187,0,0,1-.063.065l-4.465,2.729a.2.2,0,0,0,.015.349l4.49,2.261s-8.34-2.461-10-.057a.227.227,0,0,0-.038.126v12.442a.2.2,0,0,0,.292.178l1.432-.733a.21.21,0,0,1,.271.072,2.8,2.8,0,0,1-.991,3.9s2.744-1.553,2.546,4.049a.207.207,0,0,1-.117.18c-.945.441-7.666,3.363-13.04-.006a.169.169,0,0,1-.084-.129c-.082-.893-.642-8.829,5.145-8.18A.2.2,0,0,0,445.794,411.969Z" transform="translate(2550.134 -1237.323)" fill="#fcfcfc" stroke="#262626" stroke-width="1.5"/><path d="M504.2,421.932c.139-.9,1.029-5.334,5.12-5.731V402.95s-6.231-5.5-18.117-2.146a.2.2,0,0,1-.255-.179c-.038-.621-.013-2.236,1.227-2.669a.192.192,0,0,0,.14-.2c-.1-.734-.332-3.775,2.714-2.7a.2.2,0,0,0,.218-.054c.571-.705,4.136-4.609,9.812.037a.2.2,0,0,0,.178.039c.56-.146,3.334-.647,2.576,4.04l.8,1.166s-.868-4.156.712-4.443c0,0-2.1-3.177.655-3.4,0,0-1.318-3.367,2-4.152,0,0-.859-1.46,0-2.2,0,0,2.461-.887,3.671.962,0,0-.259-3.408,2.6-2.973,0,0,1.6.889.547,2.973,0,0,3.441-.261,0,3.279,0,0,2.429,2.488-1.635,4.786,0,0,2.426,1.207,1.088,3.441,0,0-5.9,1.242-6.268,5.771v12.971s1.3-4.076,2.214,0c0,0,1.75.083,1.457,2.432,0-.01-1.118,5.949-11.319,2.423A.2.2,0,0,1,504.2,421.932Z" transform="translate(2550.134 -1237.323)" fill="#fcfcfc" stroke="#262626" stroke-width="1.5"/></g></svg>