<svg xmlns="http://www.w3.org/2000/svg" width="943.615" height="572.363" viewBox="0 0 943.615 572.363"><g transform="translate(-7769.732 -11736.421)"><g transform="translate(2638.885 16351.756) rotate(-131)"><path d="M3203.223,1205.255l16.49-16.49,16.489,16.49" transform="translate(-3856.316 5820.581)" fill="none" stroke="#262626" stroke-width="2"/><path d="M3203.223,1449.616v-260.85" transform="translate(-3839.827 5820.581)" fill="none" stroke="#262626" stroke-width="2"/></g><g transform="translate(7927.84 12074.973) rotate(-49)"><path d="M0,0,16.49,16.49,32.979,0" transform="translate(0 244.361)" fill="none" stroke="#262626" stroke-width="2"/><path d="M0,0V260.85" transform="translate(16.489 0)" fill="none" stroke="#262626" stroke-width="2"/></g><g transform="translate(2279.987 16105.639) rotate(-131)"><path d="M3203.223,1205.255l16.49-16.49,16.489,16.49" transform="translate(-3856.316 5820.581)" fill="none" stroke="#262626" stroke-width="2"/><path d="M3203.223,1449.616v-260.85" transform="translate(-3839.827 5820.581)" fill="none" stroke="#262626" stroke-width="2"/></g><g transform="translate(8287.84 11829.389) rotate(-49)"><path d="M0,0,16.49,16.49,32.979,0" transform="translate(0 244.361)" fill="none" stroke="#262626" stroke-width="2"/><path d="M0,0V260.85" transform="translate(16.489 0)" fill="none" stroke="#262626" stroke-width="2"/></g><g transform="translate(8878.144 4808.256)"><path d="M3203.223,1205.255l16.49-16.49,16.489,16.49" transform="translate(-3856.316 5820.581)" fill="none" stroke="#262626" stroke-width="2"/><path d="M3203.223,1600.072V1188.766" transform="translate(-3839.827 5820.581)" fill="none" stroke="#262626" stroke-width="2"/></g><g transform="translate(8128.728 11736.421)" fill="#fcfcfc" stroke="#262626" stroke-width="2"><rect width="224.57" height="81.183" rx="24" stroke="none"/><rect x="1" y="1" width="222.57" height="79.183" rx="23" fill="none"/></g><text transform="translate(8240.281 11785.926)" font-size="29" font-family="SourceSansPro-Regular, Source Sans Pro"><tspan x="-62.306" y="0">AV System</tspan></text><g transform="translate(8128.728 12227.602)" fill="#fcfcfc" stroke="#262626" stroke-width="2"><rect width="224.57" height="81.183" rx="24" stroke="none"/><rect x="1" y="1" width="222.57" height="79.183" rx="23" fill="none"/></g><text transform="translate(8240.08 12277.106)" font-size="29" font-family="SourceSansPro-Regular, Source Sans Pro"><tspan x="-56.332" y="0">Fundusol</tspan></text><g transform="translate(8488.777 11981.484)" fill="#fcfcfc" stroke="#262626" stroke-width="2"><rect width="224.57" height="81.183" rx="24" stroke="none"/><rect x="1" y="1" width="222.57" height="79.183" rx="23" fill="none"/></g><text transform="translate(8600.331 12030.989)" font-size="29" font-family="SourceSansPro-Regular, Source Sans Pro"><tspan x="-46.908" y="0">Utilities</tspan></text><g transform="translate(7769.732 11981.484)" fill="#fcfcfc" stroke="#262626" stroke-width="2"><rect width="224.57" height="81.183" rx="24" stroke="none"/><rect x="1" y="1" width="222.57" height="79.183" rx="23" fill="none"/></g><text transform="translate(7881.286 12030.989)" font-size="29" font-family="SourceSansPro-Regular, Source Sans Pro"><tspan x="-61.06" y="0">Our Client</tspan></text><g transform="translate(7909.693 11858.92)" fill="#fcfcfc" stroke="#262626" stroke-width="2"><rect width="224.57" height="81.183" stroke="none"/><rect x="1" y="1" width="222.57" height="79.183" fill="none"/></g><text transform="translate(8021.979 11907.897)" font-size="29" font-family="SourceSansPro-Regular, Source Sans Pro"><tspan x="-82.766" y="0">Energy Needs</tspan></text><g transform="translate(7872.018 12104.049)" fill="#fcfcfc" stroke="#262626" stroke-width="2"><rect width="280.976" height="81.183" stroke="none"/><rect x="1" y="1" width="278.976" height="79.183" fill="none"/></g><text transform="translate(8012.505 12154.254)" font-size="29" font-family="SourceSansPro-Regular, Source Sans Pro"><tspan x="-112.201" y="0">Monthly Payments</tspan></text><g transform="translate(8348.29 11858.92)" fill="#fcfcfc" stroke="#262626" stroke-width="2"><rect width="224.57" height="81.183" stroke="none"/><rect x="1" y="1" width="222.57" height="79.183" fill="none"/></g><text transform="translate(8460.575 11907.897)" font-size="29" font-family="SourceSansPro-Regular, Source Sans Pro"><tspan x="-83.97" y="0">Excess Energy</tspan></text><g transform="translate(8348.817 12104.049)" fill="#fcfcfc" stroke="#262626" stroke-width="2"><rect width="224.57" height="81.183" stroke="none"/><rect x="1" y="1" width="222.57" height="79.183" fill="none"/></g><text transform="translate(8461.103 12154.254)" font-size="29" font-family="SourceSansPro-Regular, Source Sans Pro"><tspan x="-80.257" y="0">PPA Payment</tspan></text><g transform="translate(8241.54 11885.853) rotate(45)" fill="#fcfcfc" stroke="#262626" stroke-width="2"><rect width="192.687" height="192.687" stroke="none"/><rect x="1" y="1" width="190.687" height="190.687" fill="none"/></g><text transform="translate(8241.04 12009.603)" font-size="28" font-family="SourceSansPro-Regular, Source Sans Pro"><tspan x="-73.584" y="0">Installation /</tspan><tspan x="-75.25" y="40">Maintenance</tspan></text></g></svg>