<svg xmlns="http://www.w3.org/2000/svg" width="593.721" height="544.511" viewBox="0 0 593.721 544.511"><g transform="translate(4229.171 1794.8)"><path d="M405.16,212.053,699.933,403.387l149.873-58.766a.426.426,0,0,0,.034-.779L513.131,177.6l-107.866,33.69A.427.427,0,0,0,405.16,212.053Z" transform="translate(-4486.53 -1971.323)" fill="#3a5992" stroke="#262626" stroke-width="2"/><g transform="translate(-4064.154 -1786.921)"><path d="M532.023,305.76l143.531-57.17" transform="translate(-278.116 -103.799)" fill="#fcfcfc" stroke="#d9d9d9" stroke-width="2"/><path d="M720.769,376.489,413.243,190.846" transform="translate(-412.976 -169.36)" fill="#fcfcfc" stroke="#d9d9d9" stroke-width="2"/><path d="M424.282,187.384,739.346,368.223" transform="translate(-400.443 -173.291)" fill="#fcfcfc" stroke="#d9d9d9" stroke-width="2"/><path d="M756.089,359.623,435.018,184.031" transform="translate(-388.254 -177.098)" fill="#fcfcfc" stroke="#d9d9d9" stroke-width="2"/><path d="M446.311,180.784,774.247,350.769" transform="translate(-375.432 -180.784)" fill="#fcfcfc" stroke="#d9d9d9" stroke-width="2"/><path d="M659.817,242.151,519.809,296.58" transform="translate(-291.984 -111.109)" fill="#fcfcfc" stroke="#d9d9d9" stroke-width="2"/><path d="M507.867,289.2l141.659-53.224" transform="translate(-305.542 -118.124)" fill="#fcfcfc" stroke="#d9d9d9" stroke-width="2"/><path d="M632.821,229.766,498.038,281.357" transform="translate(-316.702 -125.171)" fill="#fcfcfc" stroke="#d9d9d9" stroke-width="2"/><path d="M488.455,272.777l132.934-47.713" transform="translate(-327.582 -130.51)" fill="#fcfcfc" stroke="#d9d9d9" stroke-width="2"/><path d="M479.253,267.3l131.212-47.309" transform="translate(-338.03 -136.266)" fill="#fcfcfc" stroke="#d9d9d9" stroke-width="2"/><path d="M597.72,214.894,469.6,260.591" transform="translate(-348.993 -142.056)" fill="#fcfcfc" stroke="#d9d9d9" stroke-width="2"/><path d="M461.58,254.364l124.732-43.809" transform="translate(-358.096 -146.983)" fill="#fcfcfc" stroke="#d9d9d9" stroke-width="2"/><path d="M574.8,205.43,452.877,247.9" transform="translate(-367.977 -152.802)" fill="#fcfcfc" stroke="#d9d9d9" stroke-width="2"/><path d="M444.267,241.4l119.647-40.258" transform="translate(-377.753 -157.669)" fill="#fcfcfc" stroke="#d9d9d9" stroke-width="2"/><path d="M435.994,236.24l116.461-40.145" transform="translate(-387.145 -163.4)" fill="#fcfcfc" stroke="#d9d9d9" stroke-width="2"/><path d="M427.966,229.811l113.423-38.1" transform="translate(-396.26 -168.38)" fill="#fcfcfc" stroke="#d9d9d9" stroke-width="2"/><path d="M420.546,224.016,530.58,187.185" transform="translate(-404.685 -173.517)" fill="#fcfcfc" stroke="#d9d9d9" stroke-width="2"/><path d="M413.118,218.328l108.413-35" transform="translate(-413.118 -177.892)" fill="#fcfcfc" stroke="#d9d9d9" stroke-width="2"/></g><path d="M336.5,189.167,576.511,362.7a.438.438,0,0,0,.19.077l195.654,28.052L474.972,202.14,336.792,188.4A.427.427,0,0,0,336.5,189.167Z" transform="translate(-4564.467 -1959.065)" fill="#3a5992" stroke="#262626" stroke-width="2"/><g transform="translate(-4213.687 -1768.08)"><path d="M343.092,193.365l140.661,13.6" transform="translate(-343.092 -185.34)" fill="#fcfcfc" stroke="#d9d9d9" stroke-width="2"/><path d="M348.73,189.607,595.836,364.219" transform="translate(-336.69 -189.607)" fill="#fcfcfc" stroke="#d9d9d9" stroke-width="2"/><path d="M621.915,367.965l-259.6-176.6" transform="translate(-321.262 -187.607)" fill="#fcfcfc" stroke="#d9d9d9" stroke-width="2"/><path d="M375.423,192.262,646.116,372.217" transform="translate(-306.384 -186.593)" fill="#fcfcfc" stroke="#d9d9d9" stroke-width="2"/><path d="M677.75,380.381,387.988,193.672" transform="translate(-292.118 -184.992)" fill="#fcfcfc" stroke="#d9d9d9" stroke-width="2"/><path d="M350.028,198.46l141.693,12.755" transform="translate(-335.217 -179.556)" fill="#fcfcfc" stroke="#d9d9d9" stroke-width="2"/><path d="M356.976,203.564,499.31,216.351" transform="translate(-327.328 -173.761)" fill="#fcfcfc" stroke="#d9d9d9" stroke-width="2"/><path d="M362.319,207.489,512.141,223.3" transform="translate(-321.262 -169.304)" fill="#fcfcfc" stroke="#d9d9d9" stroke-width="2"/><path d="M369.188,212.719,519,228.258" transform="translate(-313.463 -163.366)" fill="#fcfcfc" stroke="#d9d9d9" stroke-width="2"/><path d="M375.423,217.742,532.2,233.926" transform="translate(-306.384 -157.663)" fill="#fcfcfc" stroke="#d9d9d9" stroke-width="2"/><path d="M382.479,222.3l160.984,18.74" transform="translate(-298.372 -152.492)" fill="#fcfcfc" stroke="#d9d9d9" stroke-width="2"/><path d="M389.684,227.589,554.4,246.483" transform="translate(-290.192 -146.483)" fill="#fcfcfc" stroke="#d9d9d9" stroke-width="2"/><path d="M397.355,232.609,565.3,253.224" transform="translate(-281.483 -140.784)" fill="#fcfcfc" stroke="#d9d9d9" stroke-width="2"/><path d="M402.994,237.366l171.187,21.766" transform="translate(-275.08 -135.383)" fill="#fcfcfc" stroke="#d9d9d9" stroke-width="2"/><path d="M410.85,243.136l176.405,23.293" transform="translate(-266.161 -128.832)" fill="#fcfcfc" stroke="#d9d9d9" stroke-width="2"/><path d="M418.212,248.545,600.8,274.923" transform="translate(-257.802 -122.69)" fill="#fcfcfc" stroke="#d9d9d9" stroke-width="2"/><path d="M427.9,255.657l189.423,27.437" transform="translate(-246.807 -114.616)" fill="#fcfcfc" stroke="#d9d9d9" stroke-width="2"/><path d="M437.557,262.753,629.384,289.84" transform="translate(-235.838 -106.559)" fill="#fcfcfc" stroke="#d9d9d9" stroke-width="2"/></g><path d="M-4195.379-1749.741l41.344,96.937,2.277,99.531h44.646v-105.132l10.94-20.453-18.945-12.521-8.655,22.148h-14.2l-21.985-56.685Z" transform="translate(38.056 49.94)" fill="#afafaf"/><path d="M-4020.292-1666.894l-26.119,63v97.766l-48.172-1.35v-103.078l-42.51-97.006,32.363,24.2,29.122,71h12.552l24.175-58.737Z" transform="translate(104.233 97.827)" fill="#afafaf"/><path d="M-4119.9-1645.551l2.466-15.685,10.652-5.656v-6.267l-8.312-10.778-25.474,8.2,10.832,22.489,5.209,15.044Z" transform="translate(100.287 124.652)" fill="#94e044"/><path d="M-4175.4-1641.734l-6.312-8.049,11.5-8,11.657,1.862v-7.947l19.649,6.084,15.886,6.735-11.145,3.145,1.53,3.2,15.394,4.428,8.266,6.132-5.513,11.827-8.532,4.109-3.322-15.936-14.213,2.044-4.2,4.859-10.6-4.859-3.2,12.257h-5.256v-16.412Z" transform="translate(53.571 147.443)" fill="#94e044"/><path d="M-4165.393-1636.122l-1.784-7.982,8.585,3.147v-8.79h14.42l6.035,10.649v5.086l7.118-5.086,10.241,2.975,8.918,10.927-19.159,16.81-9.628-8.033v-9.99l-11.348-6.076Z" transform="translate(70.075 163.47)" fill="#4db129"/><path d="M-4128.456-1637.763l7.932-6.175,10.449,8.053,3.975,13.349,4.531,13.52,4.866,15.915-11.615,15.289,2.218,11.852-19.051,7.669-3.3-19.521-3.542-21.972v-9.232l18.566-7.314Z" transform="translate(110.017 170.066)" fill="#4db129"/><path d="M-4123.934-1636.082l-22.509,21.057-2.984,7.739,14.288,6.24,11.205-3.394,10.427-11.9Z" transform="translate(90.228 178.985)" fill="#82ef5a"/><path d="M-4159.514-1614.517l13.87-5.959h9.6l17.356-13.364-5.158-4.474,19.348-1.2,8.594-1.7v8.191l-2.5,3.326-10.328-1.884-13.611,7.337-9.428,13.588-7.377,8.74Z" transform="translate(78.776 173.152)" fill="#82ef5a"/><path d="M-4107.969-1628.693v-24.871l-6.337-6.028-9.25-5.916-8.417,5.916-5.645,6.028,3.143,6.235,4.155,16.485h13.668Z" transform="translate(103.636 145.575)" fill="#6cba19"/><path d="M-4123.165-1629.089l-22.906-34.756h-2.538v14.592l-10.044,2.344,8.649,3.856,10.816,5.606,2.678,1.522-5.379,15.729h12.987l4.542-5.865Z" transform="translate(79.753 147.463)" fill="#82ef5a"/><path d="M-4114.186-1588.678l-11.05-10.726h-28.03l-13.3-7.826,1.662-9.81,29.447-1.227,4.974-2.268,5.243,9.855Z" transform="translate(70.774 196.638)" fill="#4db129"/><path d="M-4077.2-1639.752l-6.7,33.018,3.532,10.921v36.159l6.021-.887,3.655-40.932-1.359-34.01Z" transform="translate(164.637 174.818)" fill="#94e044"/><path d="M-4071.54-1618.187l5.987,24.8,12.514-7.881,16.4.8,5.163-4.311-3.907-7.412Z" transform="translate(178.659 199.302)" fill="#4db129"/><path d="M-4115.911-1588.809v8.184l13.438-.563,24.288.563,2.691-4.143-2.691-6.83Z" transform="translate(128.281 229.491)" fill="#94e044"/><path d="M-4120.676-1605.628v-6.546h12.756l14.124,9.608,3.377,14.369-15.1-6.557-3.485-8.64Z" transform="translate(122.872 206.129)" fill="#4db129"/><path d="M-4069.894-1591.85l-7.165,2.706-6.575-1.16-5.688,2.776-3.887-6.09-.828-8.355,16.979-6.074,7.165,9.592,7.537,1.562,1.041-9.363,20.847,3.168v16.412l-11.233,5.353,1.591,6.7h-6.789l-7.125-5.457,4.415-5.609Z" transform="translate(153.116 210.817)" fill="#5ad12f"/><path d="M-4081.6-1571.558l-2.141-8.876v-9.5l7.87-4.135,8.352,4.135h6.462l-3.488,9.5-9.769-1.5v6.454Z" transform="translate(164.811 226.69)" fill="#98ed7a"/><path d="M-4093.009-1589.8l-5.551,4.511-6.764-2.019-4.664-6.025h7.709l-3.045-15.164,10.3,8.374,2.934,4.705Z" transform="translate(135.007 210.307)" fill="#4db129"/><path d="M-4100.523-1580.928h0l-.582.094-15.042,2.424-4.019,5.408-9.252,4.765h-5.492v-15.613l5.492-4.041,13.271-2.333,4.436-3.449-1.689-7.475-1.851-1.345,21.785,1.345v7.475l-1.116,1.619-10.767,1.83,4.186,3.344,6.581,1.09" transform="translate(106.712 217.121)" fill="#94e044"/><path d="M-4109.285-1585.84l-9.9,3.66-5.34-14.939-11.045-7.658-11-2.612v-2.861l11-10.857,3.642,2.84-3.642,4.812,3.642,6.066h8.4l11.723,6.9Z" transform="translate(93.471 195.987)" fill="#bcea8b"/><path d="M-4051.583-1579.4l-10.908-6.789,1.378-8.2,5.514-3.8-11.691-7.017,13.776-2.692,8.2,5.129Z" transform="translate(183.485 210.998)" fill="#94e044"/><path d="M-4071.172-1595.031l-4.024-19.088-6.728-9.3,1.8-19.265-7.62-6.616-7.354,2.484,1.522,70.715h13.451l-9.43-18.934Z" transform="translate(151.918 163.982)" fill="#6bbc16"/><path d="M-4135.437-1611.455l3.045-26.543-4.752-10.817-12.352-1.313-6.727,4.678-9.159-1.556,6.807,10.895-9.28,4.738,16.739,7.127-21.243,2.73,9.144,13.567Z" transform="translate(64.192 163.037)" fill="#82ef5a"/><path d="M-4148.667-1610.739l6.489-13.509,17.643-11.212-12.09,19.74Z" transform="translate(91.091 179.69)" fill="#82ef5a"/><path d="M489.813,284.1l76.512,176.854V598.089h13.33l-.741-156.126-25.794-53.722,25.794-3.386V367.441l-25.794,2.95,24.54-51.971V294.511h-8.876l-28.234,61.977L509.911,284.1Z" transform="translate(-4390.194 -1850.402)" fill="#afafaf"/><path d="M560.13,289.263l-10,2.925-19.045-2.925,1.964,302.759,27.685-4.3Z" transform="translate(-4343.339 -1844.54)" fill="#afafaf"/><path d="M620.492,275.436l-63,190.8L559.3,600.488l-13.918,2.118.276-157.858,21.455-55.827L545.66,391.27V373.642l24.878-2.418-26.132-40.882V303.293h4.511l29.388,47.247,24.08-68.8Z" transform="translate(-4328.211 -1860.239)" fill="#afafaf"/><path d="M543.177,315.368v12.387l149.646-58.521V255.361Z" transform="translate(-4329.607 -1883.031)" fill="#afafaf"/><path d="M770.959,406.789V393.679L572.817,361.593,335.969,188.718l.979,17.856L570.18,376.836Z" transform="translate(-4564.866 -1958.697)" fill="#afafaf"/><path d="M770.478,406.443,570.827,377.389,336.32,206.584l.472-18.189" transform="translate(-4564.467 -1959.063)" fill="none" stroke="#262626" stroke-width="2"/><path d="M368.356,219.973l44.787,103.275V405" transform="translate(-4528.094 -1923.21)" fill="#fcfcfc" stroke="#262626" stroke-width="2"/><path d="M385.92,232.609l22.9,56.972H422.4l9.639-23.564" transform="translate(-4508.153 -1908.864)" fill="none" stroke="#262626" stroke-width="2"/><path d="M421.072,254.7,410.85,277V380.587" transform="translate(-4479.848 -1883.778)" fill="#fcfcfc" stroke="#262626" stroke-width="2"/><path d="M397.694,351.919V269.081h11.318v86.13" transform="translate(-4494.785 -1867.454)" fill="#fcfcfc" stroke="#262626" stroke-width="2"/><path d="M426.854,262.292,470.54,366.55l.912,2.174v83.72" transform="translate(-4461.677 -1875.162)" fill="#fcfcfc" stroke="#262626" stroke-width="2"/><path d="M441.107,272.831l32.787,75.6,12.725-.053,24.155-58.744" transform="translate(-4445.495 -1863.197)" fill="none" stroke="#262626" stroke-width="2"/><path d="M496.267,282.179l-26.225,63.634v96.519" transform="translate(-4412.643 -1852.583)" fill="#fcfcfc" stroke="#262626" stroke-width="2"/><path d="M457.686,358.645V346.07h10.109v15.161" transform="translate(-4426.671 -1780.043)" fill="#fcfcfc" stroke="#262626" stroke-width="2"/><path d="M457.129,362.01l-.4-45.934h12.041l.4,45.934Z" transform="translate(-4427.754 -1814.097)" fill="#fcfcfc" stroke="#262626" stroke-width="2"/><path d="M489.5,283.335,566.5,460.966V599.947" transform="translate(-4390.555 -1851.271)" fill="#fcfcfc" stroke="#262626" stroke-width="2"/><path d="M499.559,284.93l30.273,70.732,29.156-62.59" transform="translate(-4379.129 -1849.46)" fill="none" stroke="#262626" stroke-width="2"/><path d="M533.01,592.913l-2.095-303.437" transform="translate(-4343.529 -1844.298)" fill="#fcfcfc" stroke="#262626" stroke-width="2"/><path d="M541.719,326.366l2.757,1.469,149.532-58.1.566-14.288" transform="translate(-4331.262 -1882.931)" fill="none" stroke="#262626" stroke-width="2"/><path d="M543.141,283.335v12.424" transform="translate(-4329.648 -1851.271)" fill="#fcfcfc" stroke="#262626" stroke-width="2"/><path d="M544.471,289.154l1.418,300.437" transform="translate(-4328.138 -1844.664)" fill="#fcfcfc" stroke="#262626" stroke-width="2"/><path d="M552.169,602.614l-1.828-136.5,63.745-190.728" transform="translate(-4321.473 -1860.297)" fill="#fcfcfc" stroke="#262626" stroke-width="2"/><path d="M583.938,278.987,560.379,346.86" transform="translate(-4310.076 -1856.207)" fill="#fcfcfc" stroke="#262626" stroke-width="2"/><path d="M546.027,288.257l34.79,55.206" transform="translate(-4326.371 -1845.682)" fill="#fcfcfc" stroke="#262626" stroke-width="2"/><path d="M544.8,301.183l27.657,43.846" transform="translate(-4327.762 -1831.006)" fill="#fcfcfc" stroke="#262626" stroke-width="2"/><path d="M544.8,323.447l25.082-3.256" transform="translate(-4327.762 -1809.425)" fill="#fcfcfc" stroke="#262626" stroke-width="2"/><path d="M518.371,355.336l26.692-55.17" transform="translate(-4357.771 -1832.161)" fill="#fcfcfc" stroke="#262626" stroke-width="2"/><path d="M518.91,325.893l24.984-2.644" transform="translate(-4357.159 -1805.953)" fill="#fcfcfc" stroke="#262626" stroke-width="2"/><path d="M518.91,331.323l25.785,57.937" transform="translate(-4357.159 -1796.786)" fill="#fcfcfc" stroke="#262626" stroke-width="2"/><path d="M519.741,334.8l24.068-3.417" transform="translate(-4356.215 -1796.717)" fill="#fcfcfc" stroke="#262626" stroke-width="2"/><path d="M544.8,331.5l23.617-3.417" transform="translate(-4327.762 -1800.461)" fill="#fcfcfc" stroke="#262626" stroke-width="2"/><path d="M544.8,390.575l22.31-62.263" transform="translate(-4327.762 -1800.205)" fill="#fcfcfc" stroke="#262626" stroke-width="2"/><path d="M404.7,201.337v-7.376a.427.427,0,0,1,.66-.359l295.2,192.148v12.041a.428.428,0,0,1-.265.4L693.432,401a.428.428,0,0,1-.589-.4V388.7Z" transform="translate(-4486.832 -1953.229)" fill="#afafaf" stroke="#262626" stroke-width="2"/><path d="M500.456,437.638V418.746a.478.478,0,0,0-.023-.145c-.427-1.228-6.662-17.235-40.181-13.765a.411.411,0,0,1-.466-.367c-.139-2.073.38-11.3,20.587-11.975a.42.42,0,0,0,.4-.316c.184-.737,1.179-2.584,6.489-2.955a.423.423,0,0,0,.312-.69c-1.142-1.343-2.007-4.316,12.885-4.2,0,0,6.626-.419,4.988,7.877a.421.421,0,0,0,.169.436c.752.485,3.374,1.779,7.719-.16,5.215-2.325.284,5.766,0,9.317a25.906,25.906,0,0,0-.064,4.674.426.426,0,0,0,.658.318,32.733,32.733,0,0,1,17.86-5.042.431.431,0,0,1,.231.788c-2.088,1.354-6.357,4.356-8,7.271a.353.353,0,0,1-.132.137l-7.136,4.363a.428.428,0,0,0,.03.747l7.192,3.622s-13.581-4.01-16.357-.124a.468.468,0,0,0-.085.275v20.867l2.74-1.4a.443.443,0,0,1,.574.156,4.585,4.585,0,0,1-1.283,6.056c-.126.087-.254.171-.389.248,0,0,4.469-2.528,4.17,6.56a.445.445,0,0,1-.248.386c-1.73.8-12.55,5.4-21.243,0a.388.388,0,0,1-.194-.3c-.143-1.708-.92-14.286,8.324-13.346A.424.424,0,0,0,500.456,437.638Z" transform="translate(-4424.303 -1736.61)" fill="#369016" stroke="#262626" stroke-width="2"/><path d="M501.179,402.241a8.188,8.188,0,0,1-.073-4.623.4.4,0,0,0-.1-.406c-1.061-1-6.385-6.31-1.623-7.32a.429.429,0,0,0,.314-.619c-1.219-2.178-5.206-10.081,6.022-1.988a.433.433,0,0,0,.515,0c1.185-.937,6.4-4.627,7.508,2.093a.42.42,0,0,0,.442.369c1.469-.139,6.658-.263,6.173,5.016l3.891,2.614" transform="translate(-4381.548 -1737.299)" fill="#94e044" stroke="#262626" stroke-width="2"/><path d="M522.519,393.763s3.865-3.107,4.873,0a11.9,11.9,0,0,1,12.3,6.306s-17.668,2.859-22.878,6.208" transform="translate(-4359.544 -1727.461)" fill="#fcfcfc" stroke="#262626" stroke-width="2"/><path d="M499.65,410.468V399.774" transform="translate(-4379.026 -1719.069)" fill="#fcfcfc" stroke="#262626" stroke-width="2"/><path d="M508.69,400.086v10.265a.416.416,0,0,0,.656.331c1-.6,3.28-.427,7.638,6.709a.465.465,0,0,1-.09.587,19.471,19.471,0,0,1-21.044,2.377.448.448,0,0,1-.246-.378c-.058-1.106-.045-5.313,3.466-5.541a.424.424,0,0,0,.382-.28c.369-1.168,2.018-5.7,5.016-4.5" transform="translate(-4383.633 -1718.714)" fill="#41c313" stroke="#262626" stroke-width="2"/><path d="M509.694,389.748s-10.517-7.916-20.058,1.217a.4.4,0,0,1-.226.111l-3.387.47" transform="translate(-4394.498 -1734.067)" fill="#fcfcfc" stroke="#262626" stroke-width="2"/><path d="M481.28,393.785l1.627-7.914a.418.418,0,0,0-.175-.438c-.641-.419-2.379-1.691-2.575-3.212a.433.433,0,0,1,.066-.3c.31-.466,1.713-1.856,7.241-1.382a.427.427,0,0,0,.451-.284c.427-1.392,2.631-6.549,10.276,1.555a.426.426,0,0,0,.51.1c1.533-.858,9.176-4.461,13.795,5.859a.406.406,0,0,0,.141.171l4.867,3.41" transform="translate(-4401.163 -1744.521)" fill="#fcfcfc" stroke="#262626" stroke-width="2"/><path d="M495.063,486.1c.331-2.229,2.673-14.653,13.9-16.017a.42.42,0,0,0,.376-.412V433.336a.4.4,0,0,0-.143-.32c-1.725-1.422-19.007-14.76-50.474-5.812a.418.418,0,0,1-.538-.361c-.122-1.587-.179-6.464,3.517-7.651a.392.392,0,0,0,.292-.425c-.26-1.845-1.1-10.734,7.634-7.6a.411.411,0,0,0,.465-.117c1.411-1.772,11.411-13.083,27.442.09a.375.375,0,0,0,.346.083c1.318-.365,9.347-2.082,7.288,11.057a.433.433,0,0,0,.066.307l2.12,3.111s-2.221-10.63,1.469-12.221a.419.419,0,0,0,.241-.6c-1.031-1.751-4.345-8.123,1.572-8.977a.423.423,0,0,0,.369-.53c-.583-1.886-2.191-8.883,5.219-10.961a.423.423,0,0,0,.284-.585c-.53-1.1-1.638-3.95.152-5.616a.49.49,0,0,1,.182-.109c.786-.254,6.128-1.819,9.4,1.77a.415.415,0,0,0,.724-.258c.115-2.5,1.055-7.965,7.145-7.094a.422.422,0,0,1,.173.062c.57.359,3.865,2.7,1.73,7.621a.418.418,0,0,0,.348.6c1.95.051,7.271.863-.365,8.862a.412.412,0,0,0-.041.54c1.061,1.29,5.063,7.141-4.149,12.7a.422.422,0,0,0-.038.717c1.546,1,5.385,4.106,2.535,9.071a.412.412,0,0,1-.263.2c-1.719.4-16.338,4.168-17.294,16.037v33.891a.425.425,0,0,0,.812.182c1.2-2.607,3.5-5.9,5.287,1.762a.411.411,0,0,0,.325.322c.993.158,4.495,1.115,3.8,6.733l0,.015c-.062.3-3.382,16.538-31.616,6.722A.426.426,0,0,1,495.063,486.1Z" transform="translate(-4426.153 -1741.033)" fill="#4db129" stroke="#262626" stroke-width="2"/><path d="M471.5,404.193a10.688,10.688,0,0,1-.07-6.1.4.4,0,0,0-.109-.406c-1.262-1.189-8.593-8.4-1.988-9.628a.424.424,0,0,0,.318-.615c-1.471-2.6-7.188-13.557,7.858-2.684a.416.416,0,0,0,.5,0c1.375-1.108,8.471-6.321,9.9,2.8a.406.406,0,0,0,.431.361c1.7-.182,8.653-.508,8.189,6.28a.43.43,0,0,0,.177.382l4.877,3.282" transform="translate(-4416.543 -1741.48)" fill="#369016" stroke="#262626" stroke-width="2"/><path d="M499.335,393.136s4.775-3.842,6.242-.31a.418.418,0,0,0,.429.267,15.525,15.525,0,0,1,15.721,8.266s-23.043,3.73-29.84,8.1" transform="translate(-4387.84 -1728.653)" fill="#fcfcfc" stroke="#262626" stroke-width="2"/><path d="M469.507,414.925V400.977" transform="translate(-4413.25 -1717.703)" fill="#fcfcfc" stroke="#262626" stroke-width="2"/><path d="M481.295,401.383v13.59a.43.43,0,0,0,.666.367c1.2-.916,4.2-1.166,10.218,8.727a.475.475,0,0,1-.088.583,25.407,25.407,0,0,1-27.615,3.139.428.428,0,0,1-.239-.357c-.079-1.273-.179-7.094,4.6-7.333a.421.421,0,0,0,.389-.28c.431-1.39,2.586-7.536,6.564-5.945" transform="translate(-4419.257 -1717.242)" fill="#72ea46" stroke="#262626" stroke-width="2"/><path d="M482.609,387.9s-13.739-10.339-26.19,1.614a.423.423,0,0,1-.229.113l-4.459.621" transform="translate(-4433.431 -1737.265)" fill="#fcfcfc" stroke="#262626" stroke-width="2"/><path d="M445.554,393.16l2.2-10.7s-3.534-2.052-3.684-4.58c0,0,.972-2.829,10.036-1.941,0,0,2.152-10.485,13.587,1.689a.413.413,0,0,0,.5.092c1.777-1.016,11.988-6.084,18.1,7.628a.406.406,0,0,0,.141.171l6.372,4.467" transform="translate(-4442.128 -1750.896)" fill="#94e044" stroke="#262626" stroke-width="2"/><path d="M461.079,387.808a4.13,4.13,0,0,1,4.467-4.516s-2.646-12.076,5.249-12.368c0,0,3.323-21.2,7.177.925,0,0,6.7.235,3.918,8.178a.434.434,0,0,0,.094.444l5.146,5.118a.418.418,0,0,0,.572.028c1.469-1.26,8.193-6.575,11.757-1.736a.423.423,0,0,0,.574.117l5.377-3.6a.449.449,0,0,1,.382-.056,21.532,21.532,0,0,1,11.1,8.24.438.438,0,0,1-.117.611l-4.083,2.744a.392.392,0,0,0-.164.214c-.29.955-2.453,6.966-10.846,7.775a.407.407,0,0,0-.384.5c.339,1.6.839,6.773-7.6,4.788" transform="translate(-4422.842 -1762.219)" fill="#6abe4b" stroke="#262626" stroke-width="2"/><path d="M428.177,393.285V409.71s-7.346-2.874-6.566,4.914S442.7,418,442.7,418s6.545-9-7.243-7.418V394.137" transform="translate(-4467.696 -1726.436)" fill="#98ed7a" stroke="#262626" stroke-width="2"/><path d="M465.031,417.931l1.67-15.413,3.993-4.99s23.6,1.8,18.616-11.452c0,0-10.865-10.632-20.395-4.209,0,0,1.187-24.2-27.369-24.572,0,0,9.033,17.555,10.835,19,0,0-8.317-19.808-39.248-12.667l3.827,6.071-7.664,2.563s-16.383,2.75-10.713,9.609c0,0,31.777-9.466,47.136,13.378l-6.56,2.283s19.953,11.038,25.866,2.733" transform="translate(-4495.13 -1767.298)" fill="#98ed7a" stroke="#262626" stroke-width="2"/><path d="M425.249,379.256v14.476" transform="translate(-4463.5 -1742.364)" fill="#98ed7a" stroke="#262626" stroke-width="2"/><path d="M445.037,385.519s-13.7-25.276-38.336-22.191" transform="translate(-4484.559 -1760.745)" fill="#98ed7a" stroke="#262626" stroke-width="2"/><path d="M447.687,376.083l-6.8-2.441" transform="translate(-4445.743 -1748.738)" fill="#fcfcfc" stroke="#262626" stroke-width="2"/><path d="M436.362,375.064s-5.012-4.424,8.193-3.489c0,0-1.809-8.313,7.081-3.844,0,0,16.3-15.059,16.921,5.377,0,0,13.9,3.555,9.806,8.5a.425.425,0,0,0,.152.683c1.644.626,6.118,2.565,5.351,4.879" transform="translate(-4451.941 -1761.518)" fill="#94e044" stroke="#262626" stroke-width="2"/><path d="M444.071,368.32v-7.412h8.114s1-5.552,7.809,0c0,0,15.729,6.175,12.389,18.443a.414.414,0,0,0,.024.286l3.515,7.23s-7.974-14.9-12.6-15.633" transform="translate(-4442.129 -1765.998)" fill="#fcfcfc" stroke="#262626" stroke-width="2"/><path d="M454.2,368.09s-2.65-12.255,5.6-10.2c0,0,6.554-11.839,9.033,1.977,0,0,13.957-3.6,7.5,8.221,0,0-8.5,11.029-4.779,17.358" transform="translate(-4431.093 -1771.982)" fill="#4db129" stroke="#262626" stroke-width="2"/><path d="M464.216,366.734l4.32-1.67s3.077-16.948,11.52-5.883c0,0,5.569-7.764,9.477,1.738l3.032,6.953a.424.424,0,0,0,.44.254c1.738-.216,10.017-.952,5.035,5.507a.444.444,0,0,1-.418.164,23.445,23.445,0,0,0-20.271,5.975" transform="translate(-4419.257 -1769.415)" fill="#82ef5a" stroke="#262626" stroke-width="2"/><path d="M453.423,373.884s19.991-21.928,36.067-12.708l9.628-2.917s7.4-10.374-11.441-8.732c0,0-5.823-10.555-12.1,0,0,0-20.213-5.516-20.008,11.651,0,0-13.239,5.189-10.446,12.708" transform="translate(-4441.375 -1781.443)" fill="#94e044" stroke="#262626" stroke-width="2"/><path d="M448.931,390.827l-2.09-14.7-11.807-6.934s-8.969,2.349-11.5-5.452l3.694-4.681s7.576-18.251,15.883-12.1c0,0-.745,7.914,3.724,10.25" transform="translate(-4465.443 -1780.472)" fill="#82ef5a" stroke="#262626" stroke-width="2"/><path d="M439.869,361.466l-13.007-14.734s3.493-15.116,14.439-8.23c0,0,5.535-10.771,10.718-5,0,0,9.129,12.076,6.071,20.942" transform="translate(-4461.668 -1796.244)" fill="#4db129" stroke="#262626" stroke-width="2"/><path d="M478.248,367.743s-9.722-5.516-18.77-1.627l4.226-6.436-8.114-14.307s-2.656-27.591-21.567-13.062c0,0,8.3.942,8.638,3.961" transform="translate(-4453.539 -1800.464)" fill="#fcfcfc" stroke="#262626" stroke-width="2"/><path d="M451.558,364.152s-.293-3.592-6.579-3.658l-6.259-5.1" transform="translate(-4448.205 -1769.46)" fill="#fcfcfc" stroke="#262626" stroke-width="2"/><path d="M446.771,350.828s-4.721,1.2-5.076,5.208c0,0,2.883-7.028,0-8.877" transform="translate(-4444.827 -1778.806)" fill="#fcfcfc" stroke="#262626" stroke-width="2"/><path d="M464.281,378.391l-4.038-2.473s-8.635,11.164-12.155,11.362c0,0-7.918-8.561-5.328-12.178l-5.528,5.11s-20.991-1.826-29.105,1.185c0,0-6.748-14.606,24.179-28.277,0,0-29.361-4.369-39.475,6.229,0,0-6.75-5.014,4.82-12.923l-4.82-3.788s15.71-7.741,24.958,0c0,0-7.367-10.463-18.635-10.06,0,0,10.82-13.547,33.152,6.357v9.3a33.758,33.758,0,0,0-33.152,0" transform="translate(-4502.528 -1800.472)" fill="#82ef5a" stroke="#262626" stroke-width="2"/><path d="M402.957,363.165s11.066-20.333,14.431-21.678" transform="translate(-4488.809 -1785.246)" fill="#fcfcfc" stroke="#262626" stroke-width="2"/><path d="M411.367,358.353a35.462,35.462,0,0,1,1.39-12.629" transform="translate(-4479.361 -1780.436)" fill="#fcfcfc" stroke="#262626" stroke-width="2"/><path d="M445.5,334.148s-26.479,12.772-30.13,32.169" transform="translate(-4474.711 -1793.579)" fill="#fcfcfc" stroke="#262626" stroke-width="2"/><path d="M408.062,386.634V368.056" transform="translate(-4483.013 -1755.08)" fill="#87d633" stroke="#262626" stroke-width="2"/><path d="M411.971,385.465V369.085" transform="translate(-4478.575 -1753.912)" fill="#87d633" stroke="#262626" stroke-width="2"/><path d="M419.206,389.19s2.6-12.308-7.207-12.308" transform="translate(-4478.543 -1745.06)" fill="#87d633" stroke="#262626" stroke-width="2"/><path d="M410.941,375.535c-6.885-.523-6.654,9.054-6.654,9.054s14.659,5.93,23.525,4.941" transform="translate(-4487.3 -1746.612)" fill="#87d633" stroke="#262626" stroke-width="2"/><path d="M401.262,340.709c2.584,13.083-4.785,32.91-4.785,32.91-12.921,6.812,6.914,10.694,6.914,10.694s27.354-3.528,1.625-7.873l1.552-11.055" transform="translate(-4501.131 -1786.13)" fill="#94e044" stroke="#262626" stroke-width="2"/><path d="M400.232,355.478V339.832" transform="translate(-4491.903 -1787.125)" fill="#fcfcfc" stroke="#262626" stroke-width="2"/><path d="M417.089,352.47s3.015-13.173,18.768-15.089a.415.415,0,0,0,.378-.451c-.222-2.063-2.345-10.764-22.5,4.933" transform="translate(-4476.576 -1795.261)" fill="#94e044" stroke="#262626" stroke-width="2"/><path d="M416.82,348.757s3.327-5.148,8.759-.572a.422.422,0,0,0,.709-.261c.508-5.556,3.647-36.075,8.682-3.886,0,0-3.63-28.309,14.615-31.71,0,0,5.456,3.844-2.223,6.406V329.6s19.607-8.8,10.606,2.5c0,0,25.689,5.526-6.536,6.767l2.885,5.172s-9.556,5.432-12.246,14.266" transform="translate(-4473.069 -1818.353)" fill="#94e044" stroke="#262626" stroke-width="2"/><path d="M455.753,374.362s7.062,1.824,7.734-5.338c0,0,1.3-6.363-3.784-6.363l-.058-25.71a11.025,11.025,0,0,0,3.842-9.1l4.674-3.664H483.63l-3.224-8.486s-4.659-7.139-14.706,5.24a10.8,10.8,0,0,0,4.177-10.579s10.25-5.684,0-8.345c0,0,2.742-18.791-6.387-1.708a32.877,32.877,0,0,0-12.338,23.867s-8.6-9.714-18.11-6.325c0,0,5.106,8.665,13.692,9.989L451.151,333v31.226s-3.361-4.386-4.418,3.09" transform="translate(-4454.653 -1840.141)" fill="#4db129" stroke="#262626" stroke-width="2"/><path d="M455.854,410.6s-11.819-25.885-24.4-24.531L449.749,410.6" transform="translate(-4456.451 -1734.685)" fill="#fcfcfc" stroke="#262626" stroke-width="2"/><path d="M438.723,383.746s10.792,7.687,9.291,29.041" transform="translate(-4448.202 -1737.266)" fill="#fcfcfc" stroke="#262626" stroke-width="2"/><path d="M466.26,397.23s12.125-20.175-11.318-9.415" transform="translate(-4429.786 -1736.234)" fill="#a3f052" stroke="#262626" stroke-width="2"/><path d="M485.663,419.282l-7.668-10.416s4.038-2.349,7.668,3.449" transform="translate(-4403.613 -1709.281)" fill="#fcfcfc" stroke="#262626" stroke-width="2"/><path d="M540.872,459.091c8.492-7.463-4.591-6.6-4.591-6.6V408.66C535.869,400.742,546.992,389,546.992,389c-9.488-3.267-6.12-10.2-6.12-10.2,11.1-28.4-4.591-17.95-4.591-17.95-7.909,5.514-12.7,31.945-13.525,36.822a.412.412,0,0,1-.7.207c-16.143-15.332-42.962.7-26.776-.846,16.378-1.567,33.523,14.992,33.523,14.992l-1.559,29.274V452.5s-19.989-.113-8.958,10.438a.451.451,0,0,0,.147.1c1.1.427,13.222,4.958,19.554-.032" transform="translate(-4389.683 -1765.388)" fill="#8eea6d" stroke="#262626" stroke-width="2"/><path d="M526.154,406.161l3.214-29.191s-7.2-6.872-12.112-2.528" transform="translate(-4359.037 -1749.464)" fill="#fcfcfc" stroke="#262626" stroke-width="2"/><path d="M527.776,388.921c-15.247-5.584-12.759,6.412-12.024,9.129a.424.424,0,0,1-.414.532h-7.525a.427.427,0,0,1-.427-.427V381.623s-15.518-.579-20.828-4.365l14.508,1.975a10.92,10.92,0,0,1-9.058-9.06c-1.177-7.978,11.367,5.05,11.367,5.05l-16.195-13.515a.439.439,0,0,1,.154-.754,17.577,17.577,0,0,1,16.041,3.406l-16.562-8.281a.426.426,0,0,1-.235-.421c.132-1.559,1.33-8.428,12.142.295,0,0,6.81-2.114,8.667,23.276" transform="translate(-4393.892 -1773.746)" fill="#4db129" stroke="#262626" stroke-width="2"/><path d="M486.558,358.948s15.629-16.91,26.692-8.68v22.439s7.687-30.017,31.407-28.018l-13.135,8.089,5.936,3.385-5.936,5.08v4.017h10.267s-9.065,8.132,0,9.4" transform="translate(-4393.891 -1781.721)" fill="#4db129" stroke="#262626" stroke-width="2"/><path d="M497.147,369.85s5.473-15.56,30.085-5.622" transform="translate(-4381.868 -1763.193)" fill="#4db129" stroke="#262626" stroke-width="2"/><path d="M500.163,368.373s5.751-8.388,15.6-2.381" transform="translate(-4378.444 -1759.884)" fill="#4db129" stroke="#262626" stroke-width="2"/><path d="M572.148,347.973" transform="translate(-4296.714 -1777.882)" fill="#fcfcfc" stroke="#262626" stroke-width="2"/><path d="M553.163,497.847s15.851,1.478,16.348-9.983c0,0-7.634-12.244-10.2-8.486V438.945l10.2-3.871s7.166-2.831,0-12.535c0,0,7.141-9.383,4.969-14.563a.4.4,0,0,1,.19-.54c2.035-.905-11.236,11.892-22.733,3.645-.109-.079,22.36-17.815,22.36-17.95l-17,2.17c0-.235,17.64-9.908,17.407-9.934-31.745-3.25-17-8.031-.557-12.014,0,0,4.659-17.711-16.85-17.589" transform="translate(-4319.661 -1769.038)" fill="#94e044" stroke="#262626" stroke-width="2"/><path d="M561.943,352.743l-7.032,1.685" transform="translate(-4316.284 -1772.467)" fill="#fcfcfc" stroke="#262626" stroke-width="2"/><path d="M551.553,371.864s9.97-11.036,16.53-3.583a.42.42,0,0,0,.444.13c2.123-.732,16.682-5.264,16.028,8.537a.366.366,0,0,0,.026.152,12.475,12.475,0,0,1-3.726,14.4c-.3.243-.316-.267-.673-.421-6.7-2.878-10.256-15.375-28.631-9.449" transform="translate(-4320.099 -1757.759)" fill="#4db129" stroke="#262626" stroke-width="2"/><path d="M485.584,391.115l1.448-39.9" transform="translate(-4394.997 -1774.196)" fill="#fcfcfc" stroke="#262626" stroke-width="2"/><path d="M493.876,394.728l.826-43.76a.416.416,0,0,0-.22-.382c-1.723-.912-13.051-6.526-22.547-1.982" transform="translate(-4410.493 -1779.158)" fill="#8bd043" stroke="#262626" stroke-width="2"/><path d="M486.081,355.577l-14.307-4.29v-10.98s10.991-3.681,15.048,2.159" transform="translate(-4410.676 -1787.886)" fill="#fcfcfc" stroke="#262626" stroke-width="2"/><path d="M484.189,368.333s-14.4-24.427,7.1-38.292" transform="translate(-4401.942 -1798.242)" fill="#8bd043" stroke="#262626" stroke-width="2"/><path d="M485,334.779a34.812,34.812,0,0,1,3.506,16.176s.5-28.514,27.119-23.839l-6.139,9.464,20.893,7.758s-22.291,1.1-16.374,6.62l11.587,13.94s-27.034-2.72-38.437,12.328" transform="translate(-4395.657 -1802.151)" fill="#94e044" stroke="#262626" stroke-width="2"/><path d="M470.042,343.233" transform="translate(-4412.643 -1783.264)" fill="#fcfcfc" stroke="#262626" stroke-width="2"/><path d="M482.7,320.966s4.741-5.539,8.823-2.394a.461.461,0,0,1,.175.359v5.251a.427.427,0,0,0,.478.423c2.17-.263,10.963-.905,10.666,6.028a.413.413,0,0,0,.094.284l5.727,6.767" transform="translate(-4398.267 -1812.361)" fill="#8bd043" stroke="#262626" stroke-width="2"/><path d="M495.787,307.105" transform="translate(-4383.412 -1824.283)" fill="#fcfcfc" stroke="#262626" stroke-width="2"/><path d="M495.459,305.137" transform="translate(-4383.785 -1826.517)" fill="#fcfcfc" stroke="#262626" stroke-width="2"/><path d="M470.874,327.539s16.171-8.018,11.337,19.857c.2,38.642,18.6-16.207,13.925-28.217" transform="translate(-4411.698 -1810.574)" fill="#8bd043" stroke="#262626" stroke-width="2"/><path d="M429,338.466s1.979-25.411-22.291-14.591l1.458,6.863-12.509-8.183,7.643,12.236" transform="translate(-4497.098 -1808.288)" fill="#fcfcfc" stroke="#262626" stroke-width="2"/><path d="M393.772,338.9l1.96-17.237" transform="translate(-4499.238 -1807.759)" fill="#fcfcfc" stroke="#262626" stroke-width="2"/><path d="M443.388,406.761V394.654l-5.1-6.03a.427.427,0,0,1,.431-.69l5.857,1.48v-7.606a21.388,21.388,0,0,0-15.272-6.193s-9.643-8.667,1.194-11.234h2.629v-2.9s17.995-2.1,20.557,6.479c0,0-12.419-19.344,2.688-12.9l11.764,5.1-.814-9.765-4.081-5.7h-4.162l-5.148-4.279a.421.421,0,0,1-.124-.487c.828-1.96,4.965-13.3-12.955-7.472l-.056.023-5.8,2.738a.426.426,0,0,1-.6-.286l-1.271-5.381-1.177-5.612a.427.427,0,0,1,.278-.491l13.575-4.708a.423.423,0,0,0,.267-.553c-.293-.692-1.636-1.965-7.564-2.005a.422.422,0,0,1-.314-.715c2.1-2.08,7-7.689-5.605-3.878a.418.418,0,0,1-.544-.472c.523-2.372,1.644-9.481-6.669,1.125a.429.429,0,0,1-.764-.175,4.889,4.889,0,0,0-6.784-3.583v-3.69a.412.412,0,0,1,.431-.425c2.5.115,15.061.455,14.871-4.474,0,0,4.484-16.274-4.745-12.507,0,0,5.58-20.986-10.559-20.626l-9.994,1.448,4.01,5.862-3.769,2.407a.416.416,0,0,1-.466,0c-1.473-1.027-9.707-6.449-10.239.16,0,0-4.183,5.362,1.044,7.237a.432.432,0,0,1,.29.474l-2.152,11.311a.427.427,0,0,1-.617.3l-10.545-5.514a.427.427,0,0,1-.228-.361c-.1-2.4-1.072-21.315-6.361-6.141a.522.522,0,0,0-.023.1l-.984,8.826a.421.421,0,0,1-.7.273c-1.826-1.691-7.269-6.246-9.607-2.81l-8.4,3.25a.426.426,0,0,0-.252.532l2.868,8.783a.384.384,0,0,1,.015.2c-.137.76-.91,5.96,3.991,5.4,0,0,11.817,2.727,11.992,7.7l2.056,10.382a.424.424,0,0,1-.577.48c-2.129-.916-8.123-3.083-8.161,1.561l-.867,4.471a.415.415,0,0,1-.431.344c-2.731-.147-20.2-.794-23.658,6.63a.438.438,0,0,0-.024.325c.327,1,2.266,6.353,6.628,7.239a.417.417,0,0,1,.335.51l-.73,2.78a.427.427,0,0,0,.314.525l8.059,1.909a.427.427,0,0,1,.1.792l-14.151,7.617a.425.425,0,0,0,.231.8c4.22-.386,13.126-.7,13.66,3.449a.416.416,0,0,0,.35.382c1.725.2,9.748,1.414,10.184,6.44l-.816,7.818a.425.425,0,0,0,.7.365c1.179-1.04,3.2-2.362,3.2.805v20.568s-8.7,1.922-7.76,6.731l9.746,3.18,8.8,2.87s10.566-7.412-6.257-10.207l1.087-25.439a.415.415,0,0,1,.429-.408c3.327.128,25.815,1.217,28.215,7.092a.4.4,0,0,0,.376.265h7.122s-8.287-21.238-30.974-21.544" transform="translate(-4553.469 -1870.098)" fill="#4db129" stroke="#262626" stroke-width="2"/><path d="M387.365,336.2l-12.605-8.3a.4.4,0,0,1-.19-.31c-.177-2.3-2.278-24.194-18.157-24.822a.446.446,0,0,0-.431.275c-.643,1.584-3.432,9.355,2.08,12.917" transform="translate(-4543.593 -1829.203)" fill="#8bd043" stroke="#262626" stroke-width="2"/><path d="M346.379,300.8s24.309-.162,27.521,5.223" transform="translate(-4553.046 -1831.445)" fill="#fcfcfc" stroke="#262626" stroke-width="2"/><path d="M357.726,297.956l13.583.745a.428.428,0,0,1,.3.7l-3.718,4.354a.425.425,0,0,0,.3.7c3.963.2,19.229,2.234,5.317,22.189" transform="translate(-4540.164 -1834.67)" fill="#94e044" stroke="#262626" stroke-width="2"/><path d="M369.208,324.393l3.267-3.19a.415.415,0,0,0,.047-.557c-1.339-1.7-7.28-10.57,12.53-12.022a14.945,14.945,0,0,1,11.932,12.306l7.8,1.343s-13.519-2.161-5.435-13.649c0,0-2.765-9.449,7.831-4.963,0,0,8.217-2.345,7.151,9.142v5.238l8.608,2.889" transform="translate(-4527.127 -1829.566)" fill="none" stroke="#262626" stroke-width="2"/><path d="M386.753,305.16" transform="translate(-4507.207 -1826.491)" fill="#fcfcfc" stroke="#262626" stroke-width="2"/><path d="M402.792,308.33l-6.919-3.739a.4.4,0,0,1-.207-.258c-.305-1.194-2.46-8.23-10.092-4.482a.422.422,0,0,1-.527-.111c-1.059-1.446-12.471,1.115-18.567,7.388" transform="translate(-4530.225 -1833.755)" fill="#94e044" stroke="#262626" stroke-width="2"/><path d="M373.855,294.617" transform="translate(-4521.851 -1838.461)" fill="#fcfcfc" stroke="#262626" stroke-width="2"/><path d="M376.425,297.956" transform="translate(-4518.933 -1834.67)" fill="#fcfcfc" stroke="#262626" stroke-width="2"/><path d="M391.76,310.325s-21.544-22.187-24.529-22.338" transform="translate(-4529.372 -1845.989)" fill="#fcfcfc" stroke="#262626" stroke-width="2"/><path d="M374.74,288.636" transform="translate(-4520.846 -1845.252)" fill="#fcfcfc" stroke="#262626" stroke-width="2"/><path d="M378.088,296.852" transform="translate(-4517.045 -1835.924)" fill="#fcfcfc" stroke="#262626" stroke-width="2"/><path d="M364.161,312.1a13.747,13.747,0,0,1,5.168,0c2.951.536-4.706-7.121,3.036-6.193,7.341.88,2.718-6.6,2.214-7.382a.392.392,0,0,0-.1-.111l-7.442-5.629a.417.417,0,0,1-.167-.391c.149-.987.32-4.926-5.834-7.373a.433.433,0,0,1-.275-.391v-5.921" transform="translate(-4536.72 -1856.525)" fill="#8bd043" stroke="#262626" stroke-width="2"/><path d="M368.12,299.188s2.2-8.275,7.525-8.275-5.913-16.267,10.861-11.318" transform="translate(-4528.362 -1856.58)" fill="#fcfcfc" stroke="#262626" stroke-width="2"/><path d="M378.718,307.559l3.876-1.627a.431.431,0,0,0,.263-.4v-6.705a.425.425,0,0,1,.243-.386l3.72-1.762a.4.4,0,0,0,.233-.288c.335-1.638,2.731-12.582,4.647.006a.452.452,0,0,0,.179.295l4,2.765" transform="translate(-4516.33 -1843.223)" fill="#fcfcfc" stroke="#262626" stroke-width="2"/><path d="M409.58,310.6l8.328,8.076-12.691.8,4.358,5.5s12.93-.641,12.977,4.307l8.554,3.5s-6.737,11-7.406,15.135" transform="translate(-4486.243 -1820.316)" fill="#94e044" stroke="#262626" stroke-width="2"/><path d="M432.244,347.624h-.126a.409.409,0,0,0,.233-.07l6.934-4.531a.415.415,0,0,0,.194-.342c.028-1.582-.51-11-17.638-7.954l14.177-9.588a.432.432,0,0,1,.239-.073h9.216a.428.428,0,0,0,.4-.568l-1.977-5.68a.427.427,0,0,1,.305-.555l9.349-2.2s-4.5-11.753-25.417.085a.425.425,0,0,1-.606-.542c2.091-4.275,8.106-17.482-1.826-9,0,0-7.993-15.221-13.363,9.462" transform="translate(-4478.156 -1830.13)" fill="#82ef5a" stroke="#262626" stroke-width="2"/><path d="M413.732,325.842s14.363-21.255,3.846-23.741" transform="translate(-4476.576 -1829.964)" fill="#fcfcfc" stroke="#262626" stroke-width="2"/><path d="M416.029,324.7s7.653-27.581,2.285-26.449c0,0-1.858-7.431,4.561-8.678a.416.416,0,0,0,.35-.387c.081-2.122.015-13.314-11.516,1.422" transform="translate(-4478.873 -1851.511)" fill="#fcfcfc" stroke="#262626" stroke-width="2"/><path d="M385.813,270.9a4.769,4.769,0,0,1,5.486-3.925l.1.019s9.4-4.341,9.436,8.155l-4.783,17.47a.427.427,0,0,1-.822.006l-3.812-13.3a.471.471,0,0,0-.055-.12Z" transform="translate(-4508.274 -1870.656)" fill="#fcfcfc" stroke="#262626" stroke-width="2"/><path d="M408.754,286.042c9.2,2.176,12.372,0,12.372,0v7.147a.419.419,0,0,0,.041.184l8.386,17.655a.427.427,0,0,1-.433.606l-9.144-1.006a.413.413,0,0,1-.372-.346c-.239-1.523-1.792-8.189-10.662-8.512a.387.387,0,0,1-.3-.132c-1.251-1.495-12.723-15.595.109-15.6" transform="translate(-4489.065 -1848.197)" fill="#4db129" stroke="#262626" stroke-width="2"/><path d="M425.49,299.765s-11.638,5.584-13.632-11.836,13.632-13.617,13.632-13.617l7.006-5.748a.421.421,0,0,1,.611.07c.553.8,1.518,3.1-.82,7.79a.429.429,0,0,0,.5.613c3.079-.982,12.056-3.169,10.564,5.353a.42.42,0,0,0,.335.5c2.281.327,12.791,2.424,6.626,12.695" transform="translate(-4478.904 -1868.156)" fill="#8bd043" stroke="#262626" stroke-width="2"/><path d="M438.382,298.172s-10.935-9.2-22.752,5.345a.445.445,0,0,0,.229.7l4.132,1.072a.431.431,0,0,1,.248.175l1.992,2.981a.427.427,0,0,0,.671.051l2.883-3.167s-1.582,1.215,12.268,3.566l.043.011,7.745,2.148" transform="translate(-4474.529 -1837.683)" fill="#4db129" stroke="#262626" stroke-width="2"/><path d="M423.814,291.024l5.168,12.005" transform="translate(-4465.129 -1842.541)" fill="#fcfcfc" stroke="#262626" stroke-width="2"/><path d="M449.291,297.375s-6.526-23.346-26.111-15.514c0,0-4.2.658,10.542,8.653a.426.426,0,0,1-.331.782c-9.91-3.365-24.585,10.216.811,5.212.021,0-5.347,8.644-5.33,8.657" transform="translate(-4469.365 -1854.768)" fill="#94e044" stroke="#262626" stroke-width="2"/><path d="M421.35,294.9" transform="translate(-4467.926 -1838.138)" fill="#fcfcfc" stroke="#262626" stroke-width="2"/><path d="M430.665,297.222" transform="translate(-4457.35 -1835.504)" fill="#fcfcfc" stroke="#262626" stroke-width="2"/><path d="M435.745,297.136,435,302.261v10.073" transform="translate(-4452.431 -1835.601)" fill="#fcfcfc" stroke="#262626" stroke-width="2"/><path d="M436.87,301.756s9.283,1.239,12.3-4.471c0,0-1.631-10.692-15.161,0" transform="translate(-4453.556 -1840.828)" fill="#fcfcfc" stroke="#262626" stroke-width="2"/><path d="M434.868,295.428s-3.461-7.9,7.645-8.061" transform="translate(-4453.157 -1846.693)" fill="#fcfcfc" stroke="#262626" stroke-width="2"/><path d="M430.191,299.837v14.014" transform="translate(-4457.889 -1832.535)" fill="#fcfcfc" stroke="#262626" stroke-width="2"/><path d="M438.451,308.209c-4.153,4.209-7.7,2.385-7.7,2.385" transform="translate(-4457.25 -1823.029)" fill="#fcfcfc" stroke="#262626" stroke-width="2"/><path d="M400.059,326.7l-3.1,53.566s8.659-1,6.338,10.186a23.776,23.776,0,0,1-21.234.357s-11.531-7.632-2.5-13.965c0,0,2.793-11.634,10.551-1.719l1.367-52.957H379.561l-3.568-1.952a.426.426,0,0,1-.19-.536l2.268-5.561,12.041,4.294" transform="translate(-4519.676 -1816.317)" fill="#8bd043" stroke="#262626" stroke-width="2"/><path d="M382.99,348.3s-5.358-1.32-5.311-4.847" transform="translate(-4517.51 -1783.012)" fill="#fcfcfc" stroke="#262626" stroke-width="2"/><path d="M382.952,317.993v21.941c-12.62-4.63-2.409,5.317-2.409,5.317-3.3-1.868-6.263,4.074-6.263,4.074l17.143,1.388" transform="translate(-4521.369 -1811.921)" fill="#8bd043" stroke="#262626" stroke-width="2"/><path d="M381.413,342.76V318.246" transform="translate(-4513.27 -1811.634)" fill="#fcfcfc" stroke="#262626" stroke-width="2"/><path d="M386.587,345.561s.839-10.649,6.551-10.649L398,332.749" transform="translate(-4507.396 -1795.167)" fill="#fcfcfc" stroke="#262626" stroke-width="2"/><path d="M474.007,449.016V424.21a.464.464,0,0,0-.019-.132c-.453-1.326-8.4-22.59-52.552-17.969a.412.412,0,0,1-.463-.363c-.211-2.434.032-15,27.3-15.768,0,0-.2-4,9.823-4.316,0,0-9.141-6.5,15.915-6.319,0,0,8.832-.553,6.43,10.634,0,0,3.562,3.032,10.365,0s.372,7.514,0,12.152a33.6,33.6,0,0,0-.066,6.3.433.433,0,0,0,.664.322,42.694,42.694,0,0,1,23.923-6.682.426.426,0,0,1,.224.779c-2.558,1.629-8.586,5.753-10.822,9.748a.4.4,0,0,1-.135.139l-9.534,5.827a.426.426,0,0,0,.032.745l9.588,4.828s-17.809-5.255-21.364-.122a.485.485,0,0,0-.081.269v26.568a.428.428,0,0,0,.624.38l3.058-1.565a.448.448,0,0,1,.579.154,5.971,5.971,0,0,1-2.116,8.326s5.86-3.316,5.437,8.646a.442.442,0,0,1-.25.384c-2.018.942-16.37,7.181-27.845-.013a.361.361,0,0,1-.179-.275c-.175-1.907-1.371-18.853,10.987-17.467A.424.424,0,0,0,474.007,449.016Z" transform="translate(-4468.387 -1742.27)" fill="#59d82b" stroke="#262626" stroke-width="2"/><path d="M519.251,464.965c.3-1.911,2.2-11.39,10.933-12.238v-28.3s-13.305-11.749-38.687-4.583a.427.427,0,0,1-.544-.382c-.081-1.326-.028-4.775,2.62-5.7a.41.41,0,0,0,.3-.436c-.209-1.567-.709-8.061,5.8-5.768a.421.421,0,0,0,.465-.115c1.219-1.505,8.832-9.842,20.952.079a.437.437,0,0,0,.38.083c1.2-.312,7.119-1.382,5.5,8.627l1.708,2.49s-1.854-8.875,1.52-9.487c0,0-4.484-6.784,1.4-7.26,0,0-2.814-7.19,4.271-8.866,0,0-1.834-3.118,0-4.708,0,0,5.255-1.894,7.839,2.054,0,0-.553-7.277,5.552-6.348,0,0,3.417,1.9,1.168,6.348,0,0,7.348-.557,0,7,0,0,5.187,5.313-3.491,10.22,0,0,5.18,2.577,2.323,7.348,0,0-12.6,2.652-13.385,12.323v27.7s2.776-8.7,4.728,0c0,0,3.737.177,3.111,5.193,0-.021-2.387,12.7-24.17,5.174A.422.422,0,0,1,519.251,464.965Z" transform="translate(-4388.922 -1736.944)" fill="#63d63a" stroke="#262626" stroke-width="2"/><line y1="15.191" x2="2.109" transform="translate(-3995.104 -1597.444)" fill="#fcfcfc" stroke="#262626" stroke-width="2"/><path d="M468.5,395.266l-12.4-9.451-2.395,14.65Z" transform="translate(-4431.197 -1734.918)" fill="#a3f052"/><path d="M404.049,392.905l24.6,4.679-2.913-9.46-4.4-2.375V371.3l-10.113-3.166,1.628,16.476Z" transform="translate(-4487.57 -1754.99)" fill="#87d633"/><path d="M425.482,393.3V378.177l9.138.542-.817,12.818Z" transform="translate(-4463.235 -1743.589)" fill="#98ed7a"/><path d="M493.628,382.156l12.543,16.187,6.648,13.236,13.8,4.572V392.036l-15.989-14-19.38-1.24Z" transform="translate(-4388.569 -1745.155)" fill="#94e044"/><path d="M487.677,390.284l-5.625,1.239-8.577-4.42-7.042-4.244-5.223-9.742,28.98,13.986Z" transform="translate(-4422.669 -1749.334)" fill="#6abe4b"/><path d="M336.5,189.167,576.511,362.7a.438.438,0,0,0,.19.077l192.135,29.254L474.972,202.14,336.792,188.4A.427.427,0,0,0,336.5,189.167Z" transform="translate(-4564.467 -1959.065)" fill="none" stroke="#262626" stroke-width="2"/><path d="M405.16,212.053,699.933,403.387l149.873-58.766a.426.426,0,0,0,.034-.779L513.131,177.6l-107.866,33.69A.427.427,0,0,0,405.16,212.053Z" transform="translate(-4486.53 -1971.323)" fill="none" stroke="#262626" stroke-width="2"/></g></svg>