<svg xmlns="http://www.w3.org/2000/svg" width="623.371" height="600.87" viewBox="0 0 623.371 600.87"><g transform="translate(-12674.459 -2993.748)"><path d="M2590.143,1501.453h600.871" transform="translate(10084.316 1792.73)" fill="none" stroke="#262626" stroke-width="2"/><path d="M0,0H600.87" transform="translate(12974.895 2993.748) rotate(90)" fill="none" stroke="#262626" stroke-width="2"/><g transform="translate(12718.479 3029.444)"><g transform="translate(0 0)"><path d="M3002.949,1340.834h0l1.05-.018c6.142-.1,61.272-.88,78.542,2.918,0,0,8.3-9.175,22.48-2.9,0,0,8.952,4.917,22.984,0,0,0,18.222-5.382,22.26,0,0,0,5.112-1.8,5.722,23.159,0,0,1.461,5.4,26.787,0,0,0,2.184-38.55-10.657-44.139,0,0-15.007-10.23-30.985-10.985,0,0-7.668-.087-6.208-18.2l6.208-4.364-.852-4.484s7.253-4.013-1.167-7.41c0,0-12.535.329-12.546-9.752v-6.135s7.027-6.625,20.189-1.255c0,0,10.092,3.427,12.115-4.651v-8.655s-3.445-6.791-21.175-1.681h-7.525l-9.038-6.357h-5.589s-4.912,5.661-8.274,6.357h-8.783s-10.029-5.129-17.686,0c0,0-4.5,8.484,1.076,13.707,0,0,5.329,1.672,15.018,0,0,0,10.768-2.847,13.666,1.28s1.537,3.161,1.537,3.161v6.746s-1.223,5.331-16.014,7.235c0,0-4.156,4.219,2.4,7.41l-1.592,5.619,5.993,3.229s2.087,12.743-6.8,15.931c0,0-2.593,3.1-11.76-2.13,0,0-19.253,1.583-81.739,1.284v32.991" transform="translate(-3002.584 -1235.925)" fill="none" stroke="#262626" stroke-width="2"/><path d="M3145.938,1344.273s-5.759,24.614-12.5,34.049-13.029,15.2-10.449,27.812,14.28,17.965,20.015,19.049,18.969-.558,23.72-8.079S3176.823,1383.625,3145.938,1344.273Z" transform="translate(-2976.378 -1187.85)" fill="none" stroke="#262626" stroke-width="2"/><path d="M2757.583,1341.279h44.071" transform="translate(-2663.413 -1290.663)" fill="none" stroke="#262626" stroke-width="2"/><path d="M2802.116,1399.8s11.012,1.823,26.745-2.544" transform="translate(-2649.06 -1272.622)" fill="none" stroke="#262626" stroke-width="2"/><path d="M2802.116,1398.068s16.559.692,27.716-3.351" transform="translate(-2649.06 -1273.439)" fill="none" stroke="#262626" stroke-width="2"/><path d="M2757.583,1332.616a246.36,246.36,0,0,0,42.557,0" transform="translate(-2663.413 -1293.454)" fill="none" stroke="#262626" stroke-width="2"/><g transform="translate(106.622 1.322)" fill="none" stroke="#262626" stroke-width="2"><circle cx="10.578" cy="10.578" r="10.578" stroke="none"/><circle cx="10.578" cy="10.578" r="9.578" fill="none"/></g><path d="M2769.056,1320.657s5.651,3.023,14.779,0" transform="translate(-2659.716 -1297.309)" fill="none" stroke="#262626" stroke-width="2"/><path d="M2767.917,1319.487l1.991-2.033" transform="translate(-2660.083 -1298.341)" fill="none" stroke="#262626" stroke-width="2"/><path d="M2782.366,1318.55l-1.882-1.343" transform="translate(-2656.031 -1298.421)" fill="none" stroke="#262626" stroke-width="2"/><path d="M2746.945,1393.809s-2.959-20.284,1.261-39.148" transform="translate(-2667.166 -1286.349)" fill="none" stroke="#262626" stroke-width="2"/></g><path d="M2811.839,1457.823c-1.836.266-6.383,7.9-7.766,13.571-1.455,5.953,1.408,7.105,2.768,4.62,2.9-7.563,1.594-7.753,7.153-14.839a4.92,4.92,0,0,0,.365-2.368C2814.369,1458.329,2813.809,1457.537,2811.839,1457.823Z" transform="translate(-2649.881 -1262.868)" fill="none" stroke="#262626" stroke-width="2"/></g><g transform="translate(13014.533 3112.773)"><path d="M3165.25,1306.724l-51.09,116.639h249.62l-51.233-116.639Z" transform="translate(-3114.16 -1306.724)" fill="none" stroke="#262626" stroke-width="2"/><path d="M3281.214,1308.631" transform="translate(-3118.051 -1305.792)" fill="none" stroke="#262626" stroke-width="2"/><path d="M3232.333,1425.143v14.917s-5.17-1.173-5.111,4.18v8.384H3192.75s-3.129.133-3.035,2.517v5.483s.144,2.217,3.035,2.333h96.7s2.126-.009,2.126-2.866v-5.909s-.063-1.609-3.031-1.558h-34.308v-8.384s.68-4.084-5.605-4.18v-14.917" transform="translate(-3115.92 -1308.505)" fill="none" stroke="#262626" stroke-width="2"/></g><path d="M3203.223,1260.554v-71.788" transform="translate(9900.002 1843.452)" fill="none" stroke="#262626" stroke-width="2"/><path d="M3203.223,1202.066l13.3-13.3,13.3,13.3" transform="translate(9886.701 1843.452)" fill="none" stroke="#262626" stroke-width="2"/><path d="M3203.223,1287.847v-99.081" transform="translate(9936.118 1816.159)" fill="none" stroke="#262626" stroke-width="2"/><path d="M3203.223,1202.066l13.3-13.3,13.3,13.3" transform="translate(9922.819 1816.159)" fill="none" stroke="#262626" stroke-width="2"/><path d="M3203.223,1238.306v-49.541" transform="translate(9972.236 1865.699)" fill="none" stroke="#262626" stroke-width="2"/><path d="M3203.223,1202.066l13.3-13.3,13.3,13.3" transform="translate(9958.937 1865.699)" fill="none" stroke="#262626" stroke-width="2"/><path d="M3203.223,1260.554v-71.788" transform="translate(9576.141 2154.939)" fill="none" stroke="#24d80c" stroke-width="4"/><path d="M3203.223,1202.066l13.3-13.3,13.3,13.3" transform="translate(9562.84 2154.939)" fill="none" stroke="#24d80c" stroke-width="4"/><path d="M3203.223,1287.847v-99.081" transform="translate(9612.258 2127.646)" fill="none" stroke="#24d80c" stroke-width="4"/><path d="M3203.223,1202.066l13.3-13.3,13.3,13.3" transform="translate(9598.958 2127.646)" fill="none" stroke="#24d80c" stroke-width="4"/><path d="M3203.223,1238.306v-49.541" transform="translate(9648.375 2177.187)" fill="none" stroke="#24d80c" stroke-width="4"/><path d="M3203.223,1202.066l13.3-13.3,13.3,13.3" transform="translate(9635.075 2177.187)" fill="none" stroke="#24d80c" stroke-width="4"/><g transform="translate(12701.146 3426.773)"><path d="M3117.234,2188.206l4.843,1.938s4.834-5.7,4.907-8.838,7.1-6.6,10.388-6.915c0,0-.764-4.251,2.056-6.669,0,0,6.768-1.573,6.946-13.119,0,0-.636-3.957,5.771-9.073,0,0,5.253-2.092,3.68-13.785a103.16,103.16,0,0,1,8.215-12.12s.854-3.255-3.683-2.419v-6.926s.18-2.453,6.47-1.1V2097.4s5.5-6.872-2.787-9.583v-6.85c0-1.712-3.96-5.684-8.215-4.82l-3.68-5.934s-6.939-2.666-7.262-7.823l8.3-7.661-5.689-3.109s1.04-4.424-8.21-1.648l-1.471-7.062s-2.69,2.4-3.581,0l-1.475-8.427s-2.428,4.59-10.968,1.243c0,0-3.54.087-6.345,7.184,0,0-1.956-5.694-4.681,0,0,0,1.465,6.629-1.483,8.711,0,0-3.419.966-5.959,0,0,0-2.547-4.25-2.791-7.823s-4-3.738-4-3.738a11.428,11.428,0,0,0-6.783,3.738c-3.015,3.376-24.164-2.992-24.164-2.992s.4,4.875-6.677,5.572-7.167,5.242-7.167,5.242a10.39,10.39,0,0,1-3.988,6.832,28.8,28.8,0,0,0-1.491,11.761h2.491l2.117-1.75,2.288,8.358,3.991,4.146h3.63l1.716,1.47h2.284l-1.118,1.694s5.8,5.286,9.961,4.423c0,0,3.01,18.415,16.127,20.617l-6.362,3.343,3.046,9.241,3.316,3.733-2.184,6.252,3.921,1.4-1.737,7.826,3.641,6.409,9.606,5.157,12.509,20.611-8.892-1.5-10.024-18.3s-5.906-4.537-9.024-4.647l-4.178-6.526,1.33-8.436-4.456-.587,3.126-7.653-3.815-3.733-3.23-9.241,6.234-2.239s-12.373-2.381-15.322-20.92c0,0-6.314,1.163-12.728-7.615,0,0-9.444,1.861-10.047-13.279l-5.841,4.535-10.293.824-4.77-4.316s-5.2,7.394-9.736,5.14l-11.506,9.485v8.6l5.995,4.09-.987,17.28-4.318,3.949,4.318,16.346s10.129-14.274,41.412-7.063l3.366,1.545s14.424,13.921,17.147,21.419c0,0,4.091,12.859,15.451,12.384,0,0,10.055,9.689,19.958,10.465l7.664,6.408Z" transform="translate(-3002.33 -2034.486)" fill="none" stroke="#262626" stroke-width="2"/><path d="M3170.553,2199.908l.508,2.247s12.559,3.88,9.942-10.227l-6.03-24.453s12.613-8.791,19.7-54.426c0,0-5.316,30.018-23.83,41.181l-7.669-18.906s6.653-4.732,6.776-23.711c0,0,1.081,9.35-8.4,20.054l-13.41-28.957,12.417,42.364s-9.093-.045-14.742-3.32c0,0,9.519,7.516,15.735,8.671Z" transform="translate(-3057.072 -2060.513)" fill="none" stroke="#262626" stroke-width="2"/><path d="M3104.385,2205.268l-1.473-10.859s-6.806.419-25.154-27.479c0,0,.561-10.684-22.063-31.007,0,0,10.394,13.911,13.269,22.584,0,0-7.688-5.283-14.4-5.283,0,0-7.677-19.557-31.683-18.022,0,0,15.613.386,26.778,17.4,0,0-15.223.718-26.105,4.945,0,0,25.433-4.606,37.791,6.934a177.6,177.6,0,0,1,21.58,24.744S3097.922,2204.957,3104.385,2205.268Z" transform="translate(-3010.169 -2072.875)" fill="none" stroke="#262626" stroke-width="2"/><path d="M3233.852,2084.372a9.449,9.449,0,0,0,5.943,5.143l2.93,5.989s3.538-2.861,8.706,5.24v5.465s-.869,1.761,2.271,2.87c0,0,3.792,3.8,0,8.946v11.082s-5.981-1.812-8.145.681v6.934s5.726.031,1.412,4.942c0,0-5.993,6.9-6.508,8.426s-.666,8.481-.666,8.481,1.042,4.143-5.379,7.385c0,0-3.847,2.085-4.282,8.175,0,0,0,9.094-8.2,13.659a3.107,3.107,0,0,0-1.3,3.07s19.544-15.025,24.93-24.016,11.784-26.534,12-32.968a160.23,160.23,0,0,0,1.387-18.182s.771,17.771-3.47,34.99c0,0,6.682-12.381,8.461-22.273,0,0-3.947,23.178-20.67,47.137,0,0-4.986,8.034-21.333,16l-.859,1.589s-6.1-.372-8.587,2.676a53.577,53.577,0,0,0,25.68-12.079c11.772-10.3,21.232-28.625,21.672-30.853s7.35-17.906,7.782-24.467,8.234-8.911,8.234-8.911a12.74,12.74,0,0,1,5.083.5c2,.825,7.476-2.658,7.476-2.658s2.025-1.776,1.054-7.2a3.964,3.964,0,0,1,3.2-3.931s2.641-2.061,0-6.082c0,0,1.673-1.78,0-4.623s-3.2-2.988-3.2-2.988a12.757,12.757,0,0,1-6.495-8.144c-1.365-5.781-12.671,1.123-12.671,1.123a11.8,11.8,0,0,1-4.71-5.271,8.846,8.846,0,0,0-6.649,1.24s-2.569-3.213-7.513,5.079c0,0-.962-5.584-7.439-5.079,0,0-5.779-2.252-8.529,2.908Z" transform="translate(-3082.503 -2051.861)" fill="none" stroke="#262626" stroke-width="2"/></g><g transform="translate(13011.013 3357.005)"><path d="M4664.659,1145.182l-40.279-24.261-33.263-19.869-32.059-17.791-27.068-17.205,1.829-3.365-29.3-21.034s-8.329-4.742-3.355-13.62l16.623-14.568,5.2-6.773,15.576-13.462,20.5-15.992,13.026-12.425,19.033-20.412" transform="translate(-4475.966 -944.405)" fill="none" stroke="#262626" stroke-width="2"/><path d="M4524.829,1035.8l-21.3-1.561-46.872,1.561" transform="translate(-4447.753 -1003.457)" fill="none" stroke="#262626" stroke-width="2"/><path d="M4470.72,1113.5l-6.838-3.85-33.217-10.37" transform="translate(-4430.665 -1046.21)" fill="none" stroke="#262626" stroke-width="2"/><path d="M4476.539,1254.362l-24.056,21.032" transform="translate(-4445.007 -1148.153)" fill="none" stroke="#262626" stroke-width="2"/><path d="M4548.649,1300.085l-23.521,23.211" transform="translate(-4492.759 -1178.208)" fill="none" stroke="#262626" stroke-width="2"/><path d="M4585.205,1265.167l6.4-7.555,6.909,3.606-8.356,7.32" transform="translate(-4532.25 -1150.289)" fill="none" stroke="#262626" stroke-width="2"/><path d="M4577.6,1189.539l17-17.693-24.293-14.483-16.92-9.518" transform="translate(-4511.331 -1078.134)" fill="none" stroke="#262626" stroke-width="2"/><path d="M4581.271,1101.011l22.392-21.1,19.5-17.906,23,10.624-40.884,42.171,27.771,17.316,26.438,14.358,32.088,16.173,38.041,18.39,25.41,11.752s11.8-45.493,28.126-60.672l-25.912-11.8,1.738-3.077-34.2-12.882-27.042-9.772-25.093-11.166s-25.164,34.716-39.6,46.883-27.771,30.74-27.771,30.74-4.024-.984-15.424,16.748l-20.76,21.518" transform="translate(-4521.66 -1021.708)" fill="none" stroke="#262626" stroke-width="2"/><path d="M4829.063,1158.652c-2.881,2.961-39.3,51.6-39.3,51.6l-22.393,30.967" transform="translate(-4651.993 -1085.238)" fill="none" stroke="#262626" stroke-width="2"/><path d="M4923.2,1188.416l-16.139,27.16-18.151,29.779-19.557,36.664" transform="translate(-4719.032 -1104.803)" fill="none" stroke="#262626" stroke-width="2"/><path d="M5063.959,1229.787l-13.274,32.1-13.659,29.787-1.749,1.95" transform="translate(-4828.102 -1131.999)" fill="none" stroke="#262626" stroke-width="2"/><path d="M4954.972,1101.776l13.369-21.6s-26.072-11.578-34.253-18.865c0,0-26.087-13.924-29.579-17.094l-9.384-3.992-12.793,15.728-9.927,13.854" transform="translate(-4721.039 -1007.392)" fill="none" stroke="#262626" stroke-width="2"/><path d="M4985.223,1128.482s20.209-20.485,24.319-22.046" transform="translate(-4795.199 -1050.915)" fill="none" stroke="#262626" stroke-width="2"/><path d="M4828.4,1063.147l-89.015-39.335-11.23,12.768" transform="translate(-4626.22 -996.603)" fill="none" stroke="#262626" stroke-width="2"/><path d="M4714.382,978.957l16.488,7.411,16.184-15.613-21.589-4.632" transform="translate(-4617.164 -958.682)" fill="none" stroke="#262626" stroke-width="2"/><path d="M4809.729,980.1s12.786,7,15.658,8.2l8.646,5.47,19.641,7.082" transform="translate(-4679.839 -967.868)" fill="none" stroke="#262626" stroke-width="2"/><path d="M4879.236,978.119l23.934-21.9" transform="translate(-4725.53 -952.174)" fill="none" stroke="#262626" stroke-width="2"/><path d="M4966.581,1008.335l21.8-23.326" transform="translate(-4782.944 -971.096)" fill="none" stroke="#262626" stroke-width="2"/><path d="M5056.195,1044.222l21.392-29.709" transform="translate(-4841.852 -990.49)" fill="none" stroke="#262626" stroke-width="2"/><path d="M5093.019,1053.082l33.748,15.425-12.735,19.59,32.662,14.112s4.921-5.04,5.183-9.644" transform="translate(-4866.057 -1015.843)" fill="none" stroke="#262626" stroke-width="2"/><path d="M5123.242,1190.856l27.9,12.7s20.138-.9,14.717-16.287c0,0-2.711-6.818-14.717-11.524" transform="translate(-4885.924 -1096.473)" fill="none" stroke="#262626" stroke-width="2"/><path d="M5107.321,1443.677s4.584,19.91-2.25,31.077" transform="translate(-4873.98 -1272.597)" fill="none" stroke="#262626" stroke-width="2"/><path d="M5003.6,1415.171l-16.761,40.231" transform="translate(-4796.264 -1253.859)" fill="none" stroke="#262626" stroke-width="2"/><path d="M4456.661,1044.494l30.87-24.774,15.935-15.984,21.5-19.12,14.792-12.256-19.391-1.772,7.886-13.528" transform="translate(-4447.753 -952.723)" fill="none" stroke="#262626" stroke-width="2"/><path d="M4609.938,995.664,4594.8,1008.7" transform="translate(-4538.555 -978.1)" fill="none" stroke="#262626" stroke-width="2"/><path d="M4588.08,995.833l-1.541-.656h-26.878" transform="translate(-4515.459 -977.78)" fill="none" stroke="#262626" stroke-width="2"/><path d="M4477.414,1036.517l-13.076,11.587" transform="translate(-4452.799 -1004.954)" fill="none" stroke="#262626" stroke-width="2"/><path d="M4476.386,1223.469l32.959,20.725,9.105,1.918" transform="translate(-4460.719 -1127.845)" fill="none" stroke="#262626" stroke-width="2"/><path d="M4693.9,1396.212s-6.973,6.114-15.469,19l-16.749,24.685" transform="translate(-4582.523 -1241.397)" fill="none" stroke="#262626" stroke-width="2"/><path d="M4817.125,1444.07l-10.4,18.76" transform="translate(-4677.863 -1272.856)" fill="none" stroke="#262626" stroke-width="2"/><path d="M4824.328,1467.626l5.477-9.54,33.265,18.93" transform="translate(-4689.436 -1282.069)" fill="none" stroke="#262626" stroke-width="2"/></g><path d="M2590.143,1501.453h600.871" transform="translate(10084.316 1792.73)" fill="none" stroke="#262626" stroke-width="2"/><path d="M0,0H600.87" transform="translate(12974.895 2993.748) rotate(90)" fill="none" stroke="#262626" stroke-width="2"/><g transform="translate(12718.479 3029.444)"><g transform="translate(0 0)"><path d="M3002.949,1340.834h0l1.05-.018c6.142-.1,61.272-.88,78.542,2.918,0,0,8.3-9.175,22.48-2.9,0,0,8.952,4.917,22.984,0,0,0,18.222-5.382,22.26,0,0,0,5.112-1.8,5.722,23.159,0,0,1.461,5.4,26.787,0,0,0,2.184-38.55-10.657-44.139,0,0-15.007-10.23-30.985-10.985,0,0-7.668-.087-6.208-18.2l6.208-4.364-.852-4.484s7.253-4.013-1.167-7.41c0,0-12.535.329-12.546-9.752v-6.135s7.027-6.625,20.189-1.255c0,0,10.092,3.427,12.115-4.651v-8.655s-3.445-6.791-21.175-1.681h-7.525l-9.038-6.357h-5.589s-4.912,5.661-8.274,6.357h-8.783s-10.029-5.129-17.686,0c0,0-4.5,8.484,1.076,13.707,0,0,5.329,1.672,15.018,0,0,0,10.768-2.847,13.666,1.28s1.537,3.161,1.537,3.161v6.746s-1.223,5.331-16.014,7.235c0,0-4.156,4.219,2.4,7.41l-1.592,5.619,5.993,3.229s2.087,12.743-6.8,15.931c0,0-2.593,3.1-11.76-2.13,0,0-19.253,1.583-81.739,1.284v32.991" transform="translate(-3002.584 -1235.925)" fill="#d9d9d9" stroke="#262626" stroke-width="2"/><path d="M3145.938,1344.273s-5.759,24.614-12.5,34.049-13.029,15.2-10.449,27.812,14.28,17.965,20.015,19.049,18.969-.558,23.72-8.079S3176.823,1383.625,3145.938,1344.273Z" transform="translate(-2976.378 -1187.85)" fill="#5083f4" stroke="#262626" stroke-width="2"/><path d="M2757.583,1341.279h44.071" transform="translate(-2663.413 -1290.663)" fill="none" stroke="#262626" stroke-width="2"/><path d="M2802.116,1399.8s11.012,1.823,26.745-2.544" transform="translate(-2649.06 -1272.622)" fill="none" stroke="#262626" stroke-width="2"/><path d="M2802.116,1398.068s16.559.692,27.716-3.351" transform="translate(-2649.06 -1273.439)" fill="none" stroke="#262626" stroke-width="2"/><path d="M2757.583,1332.616a246.36,246.36,0,0,0,42.557,0" transform="translate(-2663.413 -1293.454)" fill="none" stroke="#262626" stroke-width="2"/><g transform="translate(106.622 1.322)" fill="none" stroke="#262626" stroke-width="2"><circle cx="10.578" cy="10.578" r="10.578" stroke="none"/><circle cx="10.578" cy="10.578" r="9.578" fill="none"/></g><path d="M2769.056,1320.657s5.651,3.023,14.779,0" transform="translate(-2659.716 -1297.309)" fill="none" stroke="#262626" stroke-width="2"/><path d="M2767.917,1319.487l1.991-2.033" transform="translate(-2660.083 -1298.341)" fill="none" stroke="#262626" stroke-width="2"/><path d="M2782.366,1318.55l-1.882-1.343" transform="translate(-2656.031 -1298.421)" fill="none" stroke="#262626" stroke-width="2"/><path d="M2746.945,1393.809s-2.959-20.284,1.261-39.148" transform="translate(-2667.166 -1286.349)" fill="none" stroke="#262626" stroke-width="2"/></g><path d="M2811.839,1457.823c-1.836.266-6.383,7.9-7.766,13.571-1.455,5.953,1.408,7.105,2.768,4.62,2.9-7.563,1.594-7.753,7.153-14.839a4.92,4.92,0,0,0,.365-2.368C2814.369,1458.329,2813.809,1457.537,2811.839,1457.823Z" transform="translate(-2649.881 -1262.868)" fill="#fff" stroke="#262626" stroke-width="2"/></g><g transform="translate(13014.533 3112.773)"><path d="M3165.25,1306.724l-51.09,115.918h249.62l-51.233-115.918Z" transform="translate(-3114.16 -1306.724)" fill="#d9d9d9" stroke="#696969" stroke-width="2"/><path d="M3281.214,1308.631" transform="translate(-3118.051 -1305.792)" fill="none" stroke="#262626" stroke-width="2"/><path d="M3184.561,1383.88H3139l-15.137,35.862h53.113Z" transform="translate(-3114.192 -1307.417)" fill="#313883"/><path d="M3186.292,1378.814l6.1-26.905h-39.68l-11.2,26.905Z" transform="translate(-3114.603 -1306.672)" fill="#313883"/><path d="M3193.256,1348.819l4.585-20.563h-34.9l-8.754,20.563Z" transform="translate(-3114.898 -1306.122)" fill="#313883"/><path d="M3198.658,1324.976l3.663-16.476h-31.239l-6.561,16.476Z" transform="translate(-3115.139 -1305.661)" fill="#313883"/><path d="M3204.639,1324.98l3.217-16.323h30.551v16.323Z" transform="translate(-3116.073 -1305.665)" fill="#313883"/><path d="M3245.232,1324.983v-16.2h30.41l3.21,16.2Z" transform="translate(-3117.017 -1305.668)" fill="#313883"/><path d="M3284.7,1324.98l-3.747-16.34h31.269l6.762,16.34Z" transform="translate(-3117.85 -1305.664)" fill="#313883"/><path d="M3285.248,1328.253l4.612,20.743h39.057l-8.793-20.743Z" transform="translate(-3117.95 -1306.121)" fill="#313883"/><path d="M3245.232,1352.091h39.086l5.534,26.888h-44.62Z" transform="translate(-3117.017 -1306.676)" fill="#313883"/><path d="M3290.916,1352.091h39.251l11.111,26.833h-44.721Z" transform="translate(-3118.082 -1306.676)" fill="#313883"/><path d="M3245.232,1383.88h45.39l7.312,35.4h-52.7Z" transform="translate(-3117.017 -1307.417)" fill="#313883"/><path d="M3297.779,1383.88h45.458l14.786,35.412h-52.214Z" transform="translate(-3118.241 -1307.417)" fill="#313883"/><path d="M3192.887,1383.88l-6.944,35.452h52V1383.88Z" transform="translate(-3115.637 -1307.417)" fill="#313883"/><path d="M3194.039,1378.813l5.259-26.907h38.777v26.907Z" transform="translate(-3115.826 -1306.672)" fill="#313883"/><path d="M3204.028,1328.255h34.081V1349h-38.377Z" transform="translate(-3115.958 -1306.122)" fill="#313883"/><path d="M3245.232,1328.255v20.529h38.522l-4.161-20.529Z" transform="translate(-3117.017 -1306.122)" fill="#313883"/><path d="M3232.333,1425.143v14.917s-5.17-1.173-5.111,4.18v8.384H3192.75s-3.129.133-3.035,2.517v5.483s.144,2.217,3.035,2.333h96.7s2.126-.009,2.126-2.866v-5.909s-.063-1.609-3.031-1.558h-34.308v-8.384s.68-4.084-5.605-4.18v-14.917" transform="translate(-3115.92 -1308.505)" fill="#d9d9d9" stroke="#696969" stroke-width="2"/></g><path d="M3203.223,1260.554v-71.788" transform="translate(9900.002 1843.452)" fill="none" stroke="#f7d742" stroke-width="4"/><path d="M3203.223,1202.066l13.3-13.3,13.3,13.3" transform="translate(9886.701 1843.452)" fill="none" stroke="#f7d742" stroke-width="4"/><path d="M3203.223,1287.847v-99.081" transform="translate(9936.118 1816.159)" fill="none" stroke="#f7d742" stroke-width="4"/><path d="M3203.223,1202.066l13.3-13.3,13.3,13.3" transform="translate(9922.819 1816.159)" fill="none" stroke="#f7d742" stroke-width="4"/><path d="M3203.223,1238.306v-49.541" transform="translate(9972.236 1865.699)" fill="none" stroke="#f7d742" stroke-width="4"/><path d="M3203.223,1202.066l13.3-13.3,13.3,13.3" transform="translate(9958.937 1865.699)" fill="none" stroke="#f7d742" stroke-width="4"/><path d="M3203.223,1260.554v-71.788" transform="translate(9576.141 2154.939)" fill="none" stroke="#24d80c" stroke-width="4"/><path d="M3203.223,1287.847v-99.081" transform="translate(9612.258 2127.646)" fill="none" stroke="#24d80c" stroke-width="4"/><path d="M3203.223,1238.306v-49.541" transform="translate(9648.375 2177.187)" fill="none" stroke="#24d80c" stroke-width="4"/><g transform="translate(12701.146 3426.773)"><path d="M3117.234,2188.206l4.843,1.938s4.834-5.7,4.907-8.838,7.1-6.6,10.388-6.915c0,0-.764-4.251,2.056-6.669,0,0,6.768-1.573,6.946-13.119,0,0-.636-3.957,5.771-9.073,0,0,5.253-2.092,3.68-13.785a103.16,103.16,0,0,1,8.215-12.12s.854-3.255-3.683-2.419v-6.926s.18-2.453,6.47-1.1V2097.4s5.5-6.872-2.787-9.583v-6.85c0-1.712-3.96-5.684-8.215-4.82l-3.68-5.934s-6.939-2.666-7.262-7.823l8.3-7.661-5.689-3.109s1.04-4.424-8.21-1.648l-1.471-7.062s-2.69,2.4-3.581,0l-1.475-8.427s-2.428,4.59-10.968,1.243c0,0-3.54.087-6.345,7.184,0,0-1.956-5.694-4.681,0,0,0,1.465,6.629-1.483,8.711,0,0-3.419.966-5.959,0,0,0-2.547-4.25-2.791-7.823s-4-3.738-4-3.738a11.428,11.428,0,0,0-6.783,3.738c-3.015,3.376-24.164-2.992-24.164-2.992s.4,4.875-6.677,5.572-7.167,5.242-7.167,5.242a10.39,10.39,0,0,1-3.988,6.832,28.8,28.8,0,0,0-1.491,11.761h2.491l2.117-1.75,2.288,8.358,3.991,4.146h3.63l1.716,1.47h2.284l-1.118,1.694s5.8,5.286,9.961,4.423c0,0,3.01,18.415,16.127,20.617l-6.362,3.343,3.046,9.241,3.316,3.733-2.184,6.252,3.921,1.4-1.737,7.826,3.641,6.409,9.606,5.157,12.509,20.611-8.892-1.5-10.024-18.3s-5.906-4.537-9.024-4.647l-4.178-6.526,1.33-8.436-4.456-.587,3.126-7.653-3.815-3.733-3.23-9.241,6.234-2.239s-12.373-2.381-15.322-20.92c0,0-6.314,1.163-12.728-7.615,0,0-9.444,1.861-10.047-13.279l-5.841,4.535-10.293.824-4.77-4.316s-5.2,7.394-9.736,5.14l-11.506,9.485v8.6l5.995,4.09-.987,17.28-4.318,3.949,4.318,16.346a19.673,19.673,0,0,1,6.179-4.906c5.683-3.187,16.775-6.412,35.232-2.158l3.366,1.545s14.424,13.921,17.147,21.419c0,0,4.091,12.859,15.451,12.384,0,0,10.055,9.689,19.958,10.465l7.664,6.408Z" transform="translate(-3002.33 -2034.486)" fill="#81d825" stroke="#262626" stroke-width="2"/><path d="M3170.553,2199.908l.508,2.247s12.559,3.88,9.942-10.227l-6.03-24.453s12.613-8.791,19.7-54.426c0,0-5.316,30.018-23.83,41.181l-7.669-18.906s6.653-4.732,6.776-23.711c0,0,1.081,9.35-8.4,20.054l-13.41-28.957,12.417,42.364s-9.093-.045-14.742-3.32c0,0,9.519,7.516,15.735,8.671Z" transform="translate(-3057.072 -2060.513)" fill="#fff" stroke="#262626" stroke-width="2"/><path d="M3104.385,2205.268l-1.473-10.859s-6.806.419-25.154-27.479c0,0,.561-10.684-22.063-31.007,0,0,10.394,13.911,13.269,22.584,0,0-7.688-5.283-14.4-5.283,0,0-7.677-19.557-31.683-18.022,0,0,15.613.386,26.778,17.4,0,0-15.223.718-26.105,4.945,0,0,25.433-4.606,37.791,6.934a177.6,177.6,0,0,1,21.58,24.744S3097.922,2204.957,3104.385,2205.268Z" transform="translate(-3010.169 -2072.875)" fill="#fff" stroke="#262626" stroke-width="2"/><path d="M3233.852,2084.372a9.449,9.449,0,0,0,5.943,5.143l2.93,5.989s3.538-2.861,8.706,5.24v5.465s-.869,1.761,2.271,2.87c0,0,3.792,3.8,0,8.946v11.082s-5.981-1.812-8.145.681v6.934s5.726.031,1.412,4.942c0,0-5.993,6.9-6.508,8.426s-.666,8.481-.666,8.481,1.042,4.143-5.379,7.385c0,0-3.847,2.085-4.282,8.175,0,0,0,9.094-8.2,13.659a3.107,3.107,0,0,0-1.3,3.07s19.544-15.025,24.93-24.016,11.784-26.534,12-32.968a160.23,160.23,0,0,0,1.387-18.182,147.048,147.048,0,0,1-2.086,28.448c-.337,1.917-.815,4.234-1.384,6.542,0,0,6.682-12.381,8.461-22.273,0,0-3.947,23.178-20.67,47.137,0,0-4.986,8.034-21.333,16l-.859,1.589s-6.1-.372-8.587,2.676a53.577,53.577,0,0,0,25.68-12.079c11.772-10.3,21.232-28.625,21.672-30.853s7.35-17.906,7.782-24.467,8.234-8.911,8.234-8.911a12.74,12.74,0,0,1,5.083.5c2,.825,7.476-2.658,7.476-2.658s2.025-1.776,1.054-7.2a3.964,3.964,0,0,1,3.2-3.931s2.641-2.061,0-6.082c0,0,1.673-1.78,0-4.623s-3.2-2.988-3.2-2.988a12.757,12.757,0,0,1-6.495-8.144c-1.365-5.781-12.671,1.123-12.671,1.123a11.8,11.8,0,0,1-4.71-5.271,8.846,8.846,0,0,0-6.649,1.24s-2.569-3.213-7.513,5.079c0,0-.962-5.584-7.439-5.079,0,0-5.779-2.252-8.529,2.908Z" transform="translate(-3082.503 -2051.861)" fill="#4db129" stroke="#262626" stroke-width="2"/></g><path d="M13041.654,3390.747l27.059,15.147,39.057-52.067-26.578-11.276-26.234,34.623Z" transform="translate(80.273 76.252)" fill="#92581d"/><path d="M13097.573,3335.369l-23.138,29.682L13058.1,3385.1l-12.052,11.572-26.871-16.678,40.528-41.957-22.414-10.831,11.274-13.142Z" transform="translate(75.359 70.025)" fill="#ad7b49"/><path d="M13044.2,3316.757l47.451,21.381,12.11-15.188-19.847-7.9-8.3-5.351-16.161-7.953Z" transform="translate(80.827 67.331)" fill="#d69067"/><path d="M13063.758,3403.9l38.914-52.213,27.389,10.442-34.657,57.643Z" transform="translate(85.106 78.249)" fill="#a4642f"/><path d="M13051.5,3428.72l-32.628-17.5,19.145-21.9,8.86-7.716,26.905,15.308-20.664,28.391Z" transform="translate(75.295 84.788)" fill="#d4bbae"/><path d="M13023.945,3368.541l-17.956,18.62-8.631,6.55v3.932l26.587,16.875,12.83-16.875,13.847-12.942Z" transform="translate(70.59 81.934)" fill="#c49470"/><path d="M12999.588,3364.237l41.873-39.523,22.444,10.971-41.13,42.8Z" transform="translate(71.077 72.353)" fill="#686a37"/><path d="M13080.5,3447.3l-35.718-21.287,23.345-32.016,31.744,16.493Z" transform="translate(80.956 87.499)" fill="#c19073"/><path d="M13089.984,3417.983l34.959-58.128,31.991,12.218-7.488,18.982-20.706,46.161Z" transform="translate(90.839 80.035)" fill="#a78b39"/><path d="M13114.594,3467.256h-3.481l-37.533-23.48,20.175-36.424,38.106,18.808Z" transform="translate(87.252 90.418)" fill="#b1692a"/><path d="M13113.228,3360.737l-38.009-15.514,9.867-13.8,39.768,18.054Z" transform="translate(87.611 73.82)" fill="#c8ad9b"/><path d="M13095.229,3318.952l9.877,3.588,30.721,17.777-12.8,11.823-39.8-17.809Z" transform="translate(89.357 71.093)" fill="#bd8d7d"/><path d="M12984.79,3357.867l18.182,10.181,52.991-52.171-16.532-7.687-14.673,14.369-18.556,14-12.3,10.693-7.437,7.682Z" transform="translate(67.843 68.741)" fill="#909964"/><path d="M12971.23,3364.031l16.852-15.292,41.016,24.417-16.68,17.711-6.836-4.474-6.213,7.878-28.139-21.115-1.594-5.492Z" transform="translate(64.531 77.605)" fill="#dfbea9"/><path d="M13130.691,3336.195l-23.994,23.636,43.77,16.245,13.2-21.277-22.418-10.507Z" transform="translate(94.492 74.863)" fill="#dfbea9"/><path d="M13016.426,3321.133l-19.889-1.7,15.322-13.366,19.863,2.171Z" transform="translate(70.408 68.277)" fill="#a4642f"/><path d="M13041.8,3297.843l-11.856,12.49,16.781,7.958,16.19-15.981Z" transform="translate(77.715 66.479)" fill="#d0b3a0"/><path d="M12994.785,3387.4l4.2,3.522,7.634-6.99-6.535-3.76Z" transform="translate(70.027 84.477)" fill="#a1ea54"/><path d="M13149.857,3373.088l24.408,11.31-8.478,10.948-6.806,13.226-6.681,17.78-5.884,18.919-24.058-11.544s7.268-16.939,14.938-33.511c.395-.853,6.41-14.812,10.153-22.9a22.139,22.139,0,0,1,2.405-4.229" transform="translate(97.916 82.928)" fill="#909964"/><path d="M13145.454,3375.069l1.6-1.355,26.571,12.26,9.771-2.437,5.941-4.844v-6.617l-2.766-5.869-7.135-5.725-22.885-9.41-14.057,22.641Z" transform="translate(102.319 78.116)" fill="#ad7b49"/><path d="M13159.407,3357.422l13.5-19.956-34.125-15.43-12.621,17.336,9.8,6.975Z" transform="translate(98.747 71.767)" fill="#dfbea9"/><g transform="translate(13011.013 3357.005)" style="isolation:isolate"><path d="M4664.659,1145.182l-40.279-24.261-33.263-19.869-32.059-17.791-27.068-17.205,1.829-3.365-29.3-21.034s-8.329-4.742-3.355-13.62l16.623-14.568,5.2-6.773,15.576-13.462,20.5-15.992,13.026-12.425,19.033-20.412" transform="translate(-4475.966 -944.405)" fill="none" stroke="#000" stroke-width="2"/><path d="M4524.829,1035.8l-21.3-1.561-46.872,1.561" transform="translate(-4447.753 -1003.457)" fill="none" stroke="#000" stroke-width="2"/><path d="M4470.72,1113.5l-6.838-3.85-33.217-10.37" transform="translate(-4430.665 -1046.21)" fill="none" stroke="#000" stroke-width="2"/><path d="M4476.539,1254.362l-24.056,21.032" transform="translate(-4445.007 -1148.153)" fill="none" stroke="#000" stroke-width="2"/><path d="M4548.649,1300.085l-23.521,23.211" transform="translate(-4492.759 -1178.208)" fill="none" stroke="#000" stroke-width="2"/><path d="M4585.205,1265.167l6.4-7.555,6.909,3.606-8.356,7.32" transform="translate(-4532.25 -1150.289)" fill="#313e34" stroke="#000" stroke-width="2"/><path d="M4577.6,1189.539l17-17.693-24.293-14.483-16.92-9.518" transform="translate(-4511.331 -1078.134)" fill="none" stroke="#000" stroke-width="2"/><path d="M4581.271,1101.011l22.392-21.1,19.5-17.906,23,10.624-40.884,42.171,27.771,17.316,26.438,14.358,32.088,16.173,38.041,18.39,25.41,11.752s11.8-45.493,28.126-60.672l-25.912-11.8,1.738-3.077-34.2-12.882-27.042-9.772-25.093-11.166s-25.164,34.716-39.6,46.883-27.771,30.74-27.771,30.74-4.024-.984-15.424,16.748l-20.76,21.518" transform="translate(-4521.66 -1021.708)" fill="none" stroke="#000" stroke-width="2"/><path d="M4829.063,1158.652c-2.881,2.961-39.3,51.6-39.3,51.6l-22.393,30.967" transform="translate(-4651.993 -1085.238)" fill="none" stroke="#000" stroke-width="2"/><path d="M4923.2,1188.416l-16.139,27.16-18.151,29.779-19.557,36.664" transform="translate(-4719.032 -1104.803)" fill="none" stroke="#000" stroke-width="2"/><path d="M5063.959,1229.787l-13.274,32.1-13.659,29.787-1.749,1.95" transform="translate(-4828.102 -1131.999)" fill="none" stroke="#000" stroke-width="2"/><path d="M4954.972,1101.776l13.369-21.6s-26.072-11.578-34.253-18.865c0,0-26.087-13.924-29.579-17.094l-9.384-3.992-12.793,15.728-9.927,13.854" transform="translate(-4721.039 -1007.392)" fill="none" stroke="#000" stroke-width="2"/><path d="M4985.223,1128.482s20.209-20.485,24.319-22.046" transform="translate(-4795.199 -1050.915)" fill="none" stroke="#000" stroke-width="2"/><path d="M4828.4,1063.147l-89.015-39.335-11.23,12.768" transform="translate(-4626.22 -996.603)" fill="none" stroke="#000" stroke-width="2"/><path d="M4714.382,978.957l16.488,7.411,16.184-15.613-21.589-4.632" transform="translate(-4617.164 -958.682)" fill="none" stroke="#000" stroke-width="2"/><path d="M4809.729,980.1s12.786,7,15.658,8.2l8.646,5.47,19.641,7.082" transform="translate(-4679.839 -967.868)" fill="none" stroke="#000" stroke-width="2"/><path d="M4879.236,978.119l23.934-21.9" transform="translate(-4725.53 -952.174)" fill="none" stroke="#000" stroke-width="2"/><path d="M4966.581,1008.335l21.8-23.326" transform="translate(-4782.944 -971.096)" fill="none" stroke="#000" stroke-width="2"/><path d="M5056.195,1044.222l21.392-29.709" transform="translate(-4841.852 -990.49)" fill="none" stroke="#000" stroke-width="2"/><path d="M5093.019,1053.082l33.748,15.425-12.735,19.59,32.662,14.112s4.921-5.04,5.183-9.644" transform="translate(-4866.057 -1015.843)" fill="none" stroke="#000" stroke-width="2"/><path d="M5123.242,1190.856l27.9,12.7s20.138-.9,14.717-16.287c0,0-2.711-6.818-14.717-11.524" transform="translate(-4885.924 -1096.473)" fill="none" stroke="#000" stroke-width="2"/><path d="M5107.321,1443.677s4.584,19.91-2.25,31.077" transform="translate(-4873.98 -1272.597)" fill="none" stroke="#000" stroke-width="2"/><path d="M5003.6,1415.171l-16.761,40.231" transform="translate(-4796.264 -1253.859)" fill="none" stroke="#000" stroke-width="2"/><path d="M4456.661,1044.494l30.87-24.774,15.935-15.984,21.5-19.12,14.792-12.256-19.391-1.772,7.886-13.528" transform="translate(-4447.753 -952.723)" fill="none" stroke="#000" stroke-width="2"/><path d="M4609.938,995.664,4594.8,1008.7" transform="translate(-4538.555 -978.1)" fill="none" stroke="#000" stroke-width="2"/><path d="M4588.08,995.833l-1.541-.656h-26.878" transform="translate(-4515.459 -977.78)" fill="none" stroke="#000" stroke-width="2"/><path d="M4477.414,1036.517l-13.076,11.587" transform="translate(-4452.799 -1004.954)" fill="none" stroke="#000" stroke-width="2"/><path d="M4476.386,1223.469l32.959,20.725,9.105,1.918" transform="translate(-4460.719 -1127.845)" fill="none" stroke="#000" stroke-width="2"/><path d="M4693.9,1396.212s-6.973,6.114-15.469,19l-16.749,24.685" transform="translate(-4582.523 -1241.397)" fill="none" stroke="#000" stroke-width="2"/><path d="M4817.125,1444.07l-10.4,18.76" transform="translate(-4677.863 -1272.856)" fill="none" stroke="#000" stroke-width="2"/><path d="M4824.328,1467.626l5.477-9.54,33.265,18.93" transform="translate(-4689.436 -1282.069)" fill="none" stroke="#000" stroke-width="2"/></g></g></svg>