<svg xmlns="http://www.w3.org/2000/svg" width="774.83" height="423.494" viewBox="0 0 774.83 423.494"><g transform="translate(1.421 1.827)"><path d="M8824.484-3909.132l-12.033-10.82-121.732-4.5-7.516,4.5v-14.866s-5.991-9.18-21.21-7.739l-2.24-6.037s16.281-2.146,11.333-27.847c0,0-12.645-27.8-22.444-31.649l-15.765-.958s-15.431,41,7.2,60.454v8.019s-14.452,1.424-14.521,12.749v14.738l-17.187,8.183,23.284,113.579s7.692,4.145,14.041,0l1.347-2.664-11.816-72.331s-1-4.746,1.871-5.162l14.9,17.775,21.766-1.935,4.4-23.981,8.87-3.715,122.488,8.727-13.438,14.36,2.82,23.068,12.32,24.092h9.362l23.91,10.75s-14.693,8.324-12.31,38.125l12.31,6.789h3.675s-1.424,4.221,0,7.078c0,0,.957,2.435,5.709,4.457l35.167,10.609,21-1.783,15.386,1.783a11.3,11.3,0,0,0,8.916-4.284l17.121-19.756v-4.893l26.153,6.789,8.569-4.4s74.886,1.874,104.764-7.11l19.078-5.314,12.711,9.389v16.809s-4.123,3.494,26.882,21l-2.7,85.3s.518,6.394,7.785,6.848c0,0,14.954,2.854,27.054-5.836l9.86-95.49-2.489-23.871v-36.787s-.413-4.667-4.533-4.8v-3.406s38.21-6.1,48.146-8.51c0,0,25.636-4.923,44.058-4.637,0,0,40.753-2.155,65.748-12.093l-6.29-6.452s-76.845,3.725-135.366,20.336a44.478,44.478,0,0,1-16.3,2.846s.116-6.286-9.258-6.416c0,0-11.544.228-10.5,6.416v4.762h-13.131s-.177-8.367-8.578-7.608c0,0-7.157-.866-9.7,3.836l-67.464-39.925a23.645,23.645,0,0,1,16.136-12.106s6.75-1.97,11.512,6.294c0,0,9.474-.709,13.863,4.773l18.916,1.039s13.382-6.2,28.306-7.166l107.346-3.2s1.3-8.437,14.764-8.629c0,0,9.3,8.463,20.144,8.629h16.873s29.642,33.48,49,39.828h17.207s-25.559-74.248-41.751-81.7l-6.537-4.751s-3.529-16.683-21.773-16.475v-10.532l-5.229-3.841s-1.962-23.124-52.569-64.276c0,0-11.782-3.778-13.125-1.385,0,0,1.858,22.822,50.843,73.141V-3926s-12.82-1.877-13.077,7.457v13.77l-128.127,0s-16.893,5.131-22.288-4.436l2.525-4.852v-10.616s-15.568-19.288-27.839-26.636a111.414,111.414,0,0,1-8.321-28.349s-59.46-22.618-90.38-20.48c0,0-50.021,22.679-61.579,37.962l-45.786-34.089v-8.37s.848-18.646-7.1-20.27v-3s24.911-8.618,38.828-8.849c0,0,79.452-6.126,95.385-18.088,0,0-90.578,11.389-134.213,22.875,0,0,.58-5.636-7.186-5.875h-3.956s-7.762-.321-5.726,9.938l-9.558,1.49s-.563-6.347-7.781-5.552c0,0-8.105-1.144-9.717,5.552,0,0-31.2-4.81-45.454,1.515l-95.38,31.168,4.77,7.314s111.638,1.078,134.3-26.293v30.726s2.727,9.783,10.346,9.895h19.492s7.589,1.778,6.845,13.2l26.278,22.607s-37.138,4.109-55.164,21.613l-6.037,5.551Z" transform="translate(-8608.372 4054.851)" fill="none" stroke="#707070" stroke-width="2.5"/><path d="M8900.016-3822.2h-14.77l-12.752-14.011s114.317-36.593,134.194-37.275c0,0,26.869-.253,38.672,3.92v-3.92" transform="translate(-8520.327 4115.308)" fill="none" stroke="#707070" stroke-width="2.5"/><path d="M8983.029-3839.737s16.644-7.333,25.482-16.6" transform="translate(-8483.481 4121.026)" fill="none" stroke="#707070" stroke-width="2.5"/><path d="M8788-3826.417v-14.937s.741-5.925,6.531-3.336,35.627,9.905,35.627,9.905,4.7,1.054,4.76,6.947v21.986" transform="translate(-8548.494 4124.69)" fill="none" stroke="#707070" stroke-width="2.5"/><path d="M8835.794-3850.439s21.391,5.159,26.761,5.314,21.054-8.373,21.054-8.373,3.771-13.076-2.151-15.478-45.663,6.228-45.663,6.228Z" transform="translate(-8532.562 4116.672)" fill="none" stroke="#707070" stroke-width="2.5"/><path d="M8954.477-3854.863l-40.549-22.7v-22.265s.51-3.448,6.861-3.355,43.162,0,43.162,0" transform="translate(-8506.516 4105.408)" fill="none" stroke="#707070" stroke-width="2.5"/><path d="M9136.758-3958.674s-7.852-.893-7.6,7.749v12.079l2.662,7.164s-6,18.939,7.4,35.418" transform="translate(-8434.772 4086.903)" fill="none" stroke="#707070" stroke-width="2.5"/><path d="M8638.255-3962.971l2.171,9.543s-12.094,1.319-11.991,27.481,2.219,25.185,2.219,25.185" transform="translate(-8601.685 4085.479)" fill="none" stroke="#707070" stroke-width="2.5"/><path d="M8664.372-3908.271s1.846-43.731-3.455-50.581-9.656-3.528-9.656-3.528" transform="translate(-8594.075 4085.408)" fill="none" stroke="#707070" stroke-width="2.5"/><path d="M8784.9-3860.632l66.048,16.561s20.761,6.206,24.057,6.344,8.664,1.38,14.746-1.93,42.24-21.236,42.24-21.236l32.109-19.88" transform="translate(-8549.525 4112.88)" fill="none" stroke="#707070" stroke-width="2.5"/><path d="M8915.686-3853.633v-5.118l16.873-16.808" transform="translate(-8505.93 4114.618)" fill="none" stroke="#707070" stroke-width="2.5"/><path d="M8876.631-3854.622l50.122-39.524" transform="translate(-8518.948 4108.422)" fill="none" stroke="#707070" stroke-width="2.5"/><path d="M8942.489-3875.126l-12.66-10.3s9.112-1.795,5.065-13.436-9.639-17.708-9.639-17.708-6.31-9.078-1.736-14.076,59.389-56.724,59.389-56.724" transform="translate(-8503.873 4077.347)" fill="none" stroke="#707070" stroke-width="2.5"/><path d="M8831.172-3808.416v-15.9s173.327-171.249,181.847-173.662" transform="translate(-8534.103 4073.809)" fill="none" stroke="#707070" stroke-width="2.5"/><path d="M8856-3819.457s-76.536-14.921-99.3-29.058c0,0,82.693-89.4,117.184-116.272,0,0-34.658-37.924-51.445-38.768s-24.007-2.364-29.442-9.627" transform="translate(-8558.929 4068.741)" fill="none" stroke="#707070" stroke-width="2.5"/><path d="M8815.66-3835.024s6.218,2.324,7.693,6.228a19.153,19.153,0,0,1,1.3,8.685c-.179,1.638-1.844,4.214-6.429,3.828s-9.919-3.828-9.919-3.828-4.53-3.619-4.9-6.178a19.33,19.33,0,0,1,0-7.72c.671-2.425,3.341-2.794,4.9-2.542S8815.66-3835.024,8815.66-3835.024Z" transform="translate(-8543.49 4127.599)" fill="none" stroke="#707070" stroke-width="2.5"/><path d="M8790.841-3835.523l6.933,1.578-.893,3.525-6.04-1.971" transform="translate(-8547.547 4127.963)" fill="none" stroke="#707070" stroke-width="2.5"/><path d="M8790.451-3842.176c-.078,1.2,0,19.518,0,19.518a5.272,5.272,0,0,0,2.989,3.1c2.234.782,35.213,10.655,35.213,10.655s3.219.452,3.256-2.278,0-18.677,0-18.677a4.108,4.108,0,0,0-3.256-2.972c-2.7-.484-36.69-10.4-36.69-10.4S8790.529-3843.372,8790.451-3842.176Z" transform="translate(-8547.688 4125.392)" fill="none" stroke="#707070" stroke-width="2.5"/><path d="M8623.521-3947.028l-11.275,5.857s-.09,7.887,4.994,7.887S8624.064-3939.052,8623.521-3947.028Z" transform="translate(-8607.079 4090.794)" fill="none" stroke="#707070" stroke-width="2.5"/><path d="M8798.83-4023.262v-5.29l9.788-1.94.673,5.847S8802.836-4021.8,8798.83-4023.262Z" transform="translate(-8544.884 4062.971)" fill="none" stroke="#707070" stroke-width="2.5"/><path d="M8955.315-3968.177l15.471-15.733s2.26.376,1.963,6.613l-15.657,17.528Z" transform="translate(-8492.72 4078.499)" fill="none" stroke="#707070" stroke-width="2.5"/><path d="M8965.361-3901.177s-3.938-21.444,3.314-23.472,19.7-2.013,24.677-5.308a28.84,28.84,0,0,0,7.688-7.512l7.628-9.695" transform="translate(-8489.727 4090.749)" fill="none" stroke="#707070" stroke-width="2.5"/><path d="M9137.876-3922.865s-25.558-.575-29.91-14.973" transform="translate(-8441.834 4093.857)" fill="none" stroke="#707070" stroke-width="2.5"/><path d="M9135.592-3936.634s-19.614.686-22.372-12.888c0,0,1.2-7.819,9.889-6.913l1.815,6.913,9.314,9.554" transform="translate(-8440.082 4087.634)" fill="none" stroke="#707070" stroke-width="2.5"/><path d="M9154.323-3941.519l-9.41-3.983-3.444-11.535" transform="translate(-8430.666 4087.458)" fill="none" stroke="#707070" stroke-width="2.5"/><path d="M9035.8-3856.924s-6.759-1.9-7.085-3.837a17.5,17.5,0,0,1,0-4.372l-12.9.89v9.41S9028.132-3854.564,9035.8-3856.924Z" transform="translate(-8472.555 4118.093)" fill="none" stroke="#707070" stroke-width="2.5"/><path d="M9021.588-3830.3s.222,9.677,4.729,10.426l22.546-2.518a106.2,106.2,0,0,0-3.886-9.962Z" transform="translate(-8470.628 4129.021)" fill="none" stroke="#707070" stroke-width="2.5"/><path d="M8835.236-3808.008s-7.293-22.382.822-35.031" transform="translate(-8533.751 4125.458)" fill="none" stroke="#707070" stroke-width="2.5"/><path d="M8845.72-3804.442s-5.968-18.1,1.184-30.6,10.293-12.981,10.293-12.981" transform="translate(-8530.031 4123.795)" fill="none" stroke="#707070" stroke-width="2.5"/><path d="M8786.234-3823.022s-2.521-28.722,6.42-34.695" transform="translate(-8549.191 4120.566)" fill="none" stroke="#707070" stroke-width="2.5"/><path d="M8622.988-3945.353c-2.074.213,1.563,6.015,5.7,5.866C8628.692-3939.486,8625.063-3945.566,8622.988-3945.353Z" transform="translate(-8603.7 4091.35)" fill="none" stroke="#707070" stroke-width="2.5"/><path d="M8661.328-3939.9s5.522-3.043,5.522-8.038-4,7.864-5.522,4.27" transform="translate(-8590.72 4090.1)" fill="none" stroke="#707070" stroke-width="2.5"/><path d="M8661.6-3956.35s7.534-10.445-10.76-12.213" transform="translate(-8594.215 4083.615)" fill="none" stroke="#707070" stroke-width="2.5"/><path d="M8638.066-3950.779s-17.471-3.549-11.939-10.883a15.608,15.608,0,0,1,9.422-5.558" transform="translate(-8602.815 4084.063)" fill="none" stroke="#707070" stroke-width="2.5"/><path d="M8786.291-4021.175s29.523,9.625,44.773-8.921" transform="translate(-8549.064 4063.104)" fill="none" stroke="#707070" stroke-width="2.5"/></g></svg>