<svg xmlns="http://www.w3.org/2000/svg" width="580.007" height="316.54" viewBox="0 0 580.007 316.54"><g transform="translate(-8607.804 4055.582)"><path d="M8770.455-3945.563l-9.025-8.115-91.3-3.375-5.637,3.375v-11.149s-4.493-6.885-15.907-5.8l-1.681-4.527s12.211-1.61,8.5-20.885c0,0-9.483-20.851-16.833-23.737l-11.823-.719s-11.573,30.747,5.4,45.34v6.014s-10.839,1.068-10.891,9.561v11.053l-12.89,6.137,17.463,85.183s5.77,3.108,10.531,0l1.01-2-8.862-54.248s-.746-3.559,1.4-3.871L8641.089-3904l16.324-1.451,3.3-17.986,6.652-2.787,91.865,6.545-10.079,10.77,2.115,17.3,9.24,18.069h7.021l17.933,8.062s-11.02,6.243-9.232,28.594l9.232,5.091h2.756s-1.067,3.166,0,5.309c0,0,.718,1.826,4.282,3.343l26.375,7.957,15.747-1.337,11.539,1.337a8.472,8.472,0,0,0,6.688-3.213l12.841-14.817v-3.67l19.614,5.091,6.427-3.3s56.164,1.405,78.572-5.333l14.309-3.986,9.533,7.042v12.606s-3.093,2.62,20.161,15.75l-2.023,63.974a5.838,5.838,0,0,0,5.839,5.136s11.216,2.14,20.29-4.377l7.4-71.616-1.867-17.9v-27.59s-.31-3.5-3.4-3.6v-2.555s28.657-4.572,36.109-6.383c0,0,19.227-3.692,33.043-3.478,0,0,30.564-1.616,49.311-9.07l-4.718-4.839s-57.633,2.794-101.523,15.252a33.352,33.352,0,0,1-12.222,2.135s.087-4.715-6.943-4.812c0,0-8.658.171-7.879,4.812v3.571h-9.848s-.133-6.275-6.434-5.706c0,0-5.368-.65-7.276,2.877l-50.6-29.943a17.733,17.733,0,0,1,12.1-9.08s5.063-1.478,8.634,4.721c0,0,7.105-.532,10.4,3.58l14.187.779a67.461,67.461,0,0,1,21.229-5.374l80.508-2.4s.974-6.327,11.073-6.471c0,0,6.974,6.347,15.107,6.471h12.654s22.231,25.11,36.747,29.871h12.905s-19.169-55.685-31.313-61.272l-4.9-3.564s-2.647-12.512-16.33-12.356v-7.9l-3.922-2.881s-1.472-17.343-39.427-48.207c0,0-8.837-2.834-9.844-1.039,0,0,1.394,17.116,38.132,54.855v5.17s-9.615-1.408-9.808,5.593v10.327H9013.6s-12.669,3.848-16.716-3.327l1.895-3.638v-7.962s-11.677-14.466-20.879-19.976a83.557,83.557,0,0,1-6.241-21.261s-44.595-16.963-67.784-15.36c0,0-37.515,17.009-46.184,28.471l-34.34-25.567v-6.277s.636-13.984-5.323-15.2v-2.253s18.683-6.464,29.12-6.637c0,0,59.589-4.594,71.538-13.566,0,0-67.933,8.542-100.658,17.156,0,0,.435-4.227-5.39-4.406h-2.967s-5.821-.241-4.294,7.453l-7.168,1.117s-.423-4.76-5.836-4.164c0,0-6.079-.858-7.288,4.164,0,0-23.4-3.608-34.09,1.136l-71.534,23.376,3.577,5.485s83.728.809,100.728-19.72v23.044s2.045,7.337,7.759,7.421h14.619s5.691,1.334,5.134,9.9l19.708,16.955s-27.853,3.082-41.372,16.209l-4.528,4.163Z" fill="none" stroke="#707070" stroke-width="1"/><path d="M8893.135-3835.022h-11.077l-9.563-10.508s85.737-27.444,100.645-27.956c0,0,20.151-.19,29,2.94v-2.94" fill="none" stroke="#707070" stroke-width="1"/><path d="M8983.029-3843.886s12.482-5.5,19.111-12.448" fill="none" stroke="#707070" stroke-width="1"/><path d="M8788-3831.149v-11.2s.556-4.444,4.9-2.5,26.72,7.429,26.72,7.429,3.523.791,3.569,5.21v16.49" fill="none" stroke="#707070" stroke-width="1"/><path d="M8835.794-3855.179s16.043,3.869,20.07,3.986,15.79-6.279,15.79-6.279,2.828-9.807-1.613-11.608-34.247,4.671-34.247,4.671Z" fill="none" stroke="#707070" stroke-width="1"/><path d="M8944.339-3866.945l-30.411-17.026v-16.7s.383-2.586,5.146-2.516,32.371,0,32.371,0" fill="none" stroke="#707070" stroke-width="1"/><path d="M9134.856-3958.681s-5.89-.67-5.7,5.812v9.059l2,5.373s-4.5,14.2,5.552,26.564" fill="none" stroke="#707070" stroke-width="1"/><path d="M8635.8-3962.971l1.628,7.158s-9.07.989-8.993,20.611,1.664,18.888,1.664,18.888" fill="none" stroke="#707070" stroke-width="1"/><path d="M8661.095-3922s1.384-32.8-2.592-37.936-7.242-2.646-7.242-2.646" fill="none" stroke="#707070" stroke-width="1"/><path d="M8784.9-3865.668l49.535,12.421s15.57,4.655,18.042,4.758,6.5,1.035,11.06-1.448,31.68-15.927,31.68-15.927l24.082-14.909" fill="none" stroke="#707070" stroke-width="1"/><path d="M8915.686-3859.115v-3.839l12.654-12.606" fill="none" stroke="#707070" stroke-width="1"/><path d="M8876.631-3864.5l37.591-29.643" fill="none" stroke="#707070" stroke-width="1"/><path d="M8937.331-3903.187l-9.5-7.724s6.834-1.346,3.8-10.077-7.229-13.28-7.229-13.28-4.732-6.809-1.3-10.557,44.541-42.542,44.541-42.542" fill="none" stroke="#707070" stroke-width="1"/><path d="M8831.172-3855.809v-11.928s129.994-128.435,136.384-130.245" fill="none" stroke="#707070" stroke-width="1"/><path d="M8831.172-3867.89s-57.4-11.191-74.475-21.793c0,0,62.02-67.048,87.887-87.2,0,0-25.993-28.443-38.584-29.076s-18-1.773-22.081-7.22" fill="none" stroke="#707070" stroke-width="1"/><path d="M8812.5-3835.423s4.663,1.743,5.77,4.671a14.352,14.352,0,0,1,.973,6.514c-.134,1.228-1.383,3.16-4.821,2.871s-7.439-2.871-7.439-2.871-3.4-2.714-3.673-4.634a14.5,14.5,0,0,1,0-5.79c.5-1.819,2.506-2.1,3.673-1.906S8812.5-3835.423,8812.5-3835.423Z" fill="none" stroke="#707070" stroke-width="1"/><path d="M8790.841-3835.523l5.2,1.183-.669,2.644-4.53-1.478" fill="none" stroke="#707070" stroke-width="1"/><path d="M8790.442-3842.441c-.059.9,0,14.638,0,14.638a3.955,3.955,0,0,0,2.242,2.322c1.676.586,26.409,7.991,26.409,7.991s2.414.339,2.441-1.709,0-14.008,0-14.008a3.08,3.08,0,0,0-2.441-2.229c-2.024-.363-27.518-7.8-27.518-7.8S8790.5-3843.339,8790.442-3842.441Z" fill="none" stroke="#707070" stroke-width="1"/><path d="M8620.7-3947.028l-8.456,4.393s-.068,5.915,3.745,5.915S8621.11-3941.046,8620.7-3947.028Z" fill="none" stroke="#707070" stroke-width="1"/><path d="M8798.83-4025.07v-3.968l7.341-1.455.5,4.385S8801.834-4023.971,8798.83-4025.07Z" fill="none" stroke="#707070" stroke-width="1"/><path d="M8955.315-3972.11l11.6-11.8s1.7.282,1.473,4.96l-11.743,13.146Z" fill="none" stroke="#707070" stroke-width="1"/><path d="M8965.095-3912.674s-2.954-16.083,2.485-17.6,14.773-1.51,18.508-3.981a21.638,21.638,0,0,0,5.766-5.634l5.721-7.271" fill="none" stroke="#707070" stroke-width="1"/><path d="M9130.4-3926.608s-19.168-.431-22.433-11.23" fill="none" stroke="#707070" stroke-width="1"/><path d="M9130-3941.6s-14.71.514-16.778-9.666a6.373,6.373,0,0,1,7.416-5.185l1.361,5.185,6.986,7.166" fill="none" stroke="#707070" stroke-width="1"/><path d="M9151.109-3945.4l-7.058-2.987-2.583-8.651" fill="none" stroke="#707070" stroke-width="1"/><path d="M9030.8-3858.976s-5.069-1.422-5.313-2.878a13.11,13.11,0,0,1,0-3.279l-9.678.668v7.057S9025.051-3857.207,9030.8-3858.976Z" fill="none" stroke="#707070" stroke-width="1"/><path d="M9021.588-3830.812s.166,7.258,3.547,7.82l16.909-1.888a79.6,79.6,0,0,0-2.914-7.471Z" fill="none" stroke="#707070" stroke-width="1"/><path d="M8834.483-3816.766s-5.47-16.786.616-26.273" fill="none" stroke="#707070" stroke-width="1"/><path d="M8845.136-3815.338s-4.476-13.575.888-22.952,7.72-9.736,7.72-9.736" fill="none" stroke="#707070" stroke-width="1"/><path d="M8786.152-3831.7s-1.891-21.541,4.814-26.021" fill="none" stroke="#707070" stroke-width="1"/><path d="M8622.838-3945.354c-1.556.16,1.173,4.511,4.278,4.4C8627.116-3940.955,8624.394-3945.514,8622.838-3945.354Z" fill="none" stroke="#707070" stroke-width="1"/><path d="M8661.328-3942.2s4.142-2.282,4.142-6.029-3,5.9-4.142,3.2" fill="none" stroke="#707070" stroke-width="1"/><path d="M8658.91-3959.4s5.65-7.834-8.069-9.16" fill="none" stroke="#707070" stroke-width="1"/><path d="M8634.811-3954.889s-13.1-2.662-8.955-8.162a11.709,11.709,0,0,1,7.067-4.169" fill="none" stroke="#707070" stroke-width="1"/><path d="M8786.29-4023.405s22.144,7.219,33.58-6.69" fill="none" stroke="#707070" stroke-width="1"/></g></svg>