<svg xmlns="http://www.w3.org/2000/svg" width="381.983" height="163.275" viewBox="0 0 381.983 163.275"><g transform="translate(-1255.21 -6366.916)"><g transform="translate(1255.431 6367.442)"><path d="M159.309,3723.809l131.342,64.881,32.016-27.369L186.6,3707.751" transform="translate(-159.309 -3651.672)" fill="none" stroke="#262626" stroke-width="1"/><path d="M432.516,3737.7l23.877-20.542-136.326-39.323-22.455,13.886Z" transform="translate(-216.326 -3639.483)" fill="none" stroke="#262626" stroke-width="1"/><path d="M370.175,3819.894l31.306-27.047" transform="translate(-245.891 -3686.344)" fill="none" stroke="#262626" stroke-width="1"/><path d="M358.129,3814.825l31.166-26.459" transform="translate(-240.984 -3684.518)" fill="none" stroke="#262626" stroke-width="1"/><path d="M346.875,3809.45l30.72-26.11" transform="translate(-236.398 -3682.47)" fill="none" stroke="#262626" stroke-width="1"/><path d="M335.537,3804.064l30.816-25.6" transform="translate(-231.778 -3680.484)" fill="none" stroke="#262626" stroke-width="1"/><path d="M325.106,3799.183l30.4-24.931" transform="translate(-227.528 -3678.768)" fill="none" stroke="#262626" stroke-width="1"/><path d="M314.65,3794.647l29.9-24.111" transform="translate(-223.268 -3677.254)" fill="none" stroke="#262626" stroke-width="1"/><path d="M304.326,3789.825l29.922-23.984" transform="translate(-219.061 -3675.341)" fill="none" stroke="#262626" stroke-width="1"/><path d="M294.191,3785.37l30.384-23.567" transform="translate(-214.932 -3673.695)" fill="none" stroke="#262626" stroke-width="1"/><path d="M284.948,3781.254l29.675-23.093" transform="translate(-211.166 -3672.212)" fill="none" stroke="#262626" stroke-width="1"/><path d="M275.829,3776.928l29.53-22.76" transform="translate(-207.45 -3670.584)" fill="none" stroke="#262626" stroke-width="1"/><path d="M267.176,3772.726l29.058-22.4" transform="translate(-203.924 -3669.018)" fill="none" stroke="#262626" stroke-width="1"/><path d="M276.085,3742.8l-28.056,20.951" transform="translate(-196.123 -3665.952)" fill="none" stroke="#262626" stroke-width="1"/><path d="M267.625,3739.716l-28.888,19.976" transform="translate(-192.337 -3664.696)" fill="none" stroke="#262626" stroke-width="1"/><path d="M259.709,3736.04l-27.837,20" transform="translate(-189.54 -3663.198)" fill="none" stroke="#262626" stroke-width="1"/><path d="M251.7,3732.826l-27.961,19.4" transform="translate(-186.228 -3661.889)" fill="none" stroke="#262626" stroke-width="1"/><path d="M243.357,3729.714l-27.636,18.867" transform="translate(-182.959 -3660.62)" fill="none" stroke="#262626" stroke-width="1"/><path d="M235.264,3726.413l-27.631,18.323" transform="translate(-179.709 -3659.135)" fill="none" stroke="#262626" stroke-width="1"/><path d="M228.977,3724.039l-28.038,18.182" transform="translate(-178.073 -3659.026)" fill="none" stroke="#262626" stroke-width="1"/><path d="M221.753,3720.827l-27.615,17.765" transform="translate(-175.35 -3657.587)" fill="none" stroke="#262626" stroke-width="1"/><path d="M215.439,3718.467,188.244,3736" transform="translate(-174.292 -3657.016)" fill="none" stroke="#262626" stroke-width="1"/><path d="M203.857,3713.884l-27.37,16.94" transform="translate(-166.973 -3654.17)" fill="none" stroke="#262626" stroke-width="1"/><path d="M195.945,3710.9l-27.083,16.549" transform="translate(-163.866 -3652.956)" fill="none" stroke="#262626" stroke-width="1"/><path d="M188.109,3707.679l-27.362,16.169" transform="translate(-160.56 -3651.642)" fill="none" stroke="#262626" stroke-width="1"/><path d="M255.361,3766.961l28.5-20.978" transform="translate(-199.11 -3667.249)" fill="none" stroke="#262626" stroke-width="1"/><path d="M286.891,3747.522l-28.785,21.084" transform="translate(-200.229 -3667.876)" fill="none" stroke="#262626" stroke-width="1"/><path d="M316.612,3780.93,182.3,3721.691" transform="translate(-169.341 -3657.352)" fill="none" stroke="#262626" stroke-width="1"/><path d="M319.742,3778.508l-134.33-58.515" transform="translate(-170.61 -3656.66)" fill="none" stroke="#262626" stroke-width="1"/><path d="M512.241,3760.845l23.833-20.018" transform="translate(-303.776 -3665.148)" fill="none" stroke="#262626" stroke-width="1"/><path d="M500.192,3756.948l24.27-20" transform="translate(-298.867 -3663.567)" fill="none" stroke="#262626" stroke-width="1"/><path d="M488.463,3753.558l23.742-19.775" transform="translate(-294.088 -3662.278)" fill="none" stroke="#262626" stroke-width="1"/><path d="M477.482,3749.663l23.424-19.069" transform="translate(-289.614 -3660.979)" fill="none" stroke="#262626" stroke-width="1"/><path d="M464.968,3745.7l24.339-18.608" transform="translate(-284.515 -3659.553)" fill="none" stroke="#262626" stroke-width="1"/><path d="M455.838,3742.594l23.567-18.063" transform="translate(-280.795 -3658.509)" fill="none" stroke="#262626" stroke-width="1"/><path d="M444.621,3739.034l24.03-17.781" transform="translate(-276.225 -3657.173)" fill="none" stroke="#262626" stroke-width="1"/><path d="M433.713,3735.847l24.033-17.638" transform="translate(-271.78 -3655.933)" fill="none" stroke="#262626" stroke-width="1"/><path d="M424.039,3732.562l23.808-17.161" transform="translate(-267.838 -3654.789)" fill="none" stroke="#262626" stroke-width="1"/><path d="M414.29,3729.166l23.7-16.96" transform="translate(-263.866 -3653.487)" fill="none" stroke="#262626" stroke-width="1"/><path d="M405.279,3726.32l23.259-16.906" transform="translate(-260.195 -3652.35)" fill="none" stroke="#262626" stroke-width="1"/><path d="M396.142,3723.44l23.665-16.3" transform="translate(-256.472 -3651.422)" fill="none" stroke="#262626" stroke-width="1"/><path d="M393.539,3723.2l23.677-16.657" transform="translate(-255.411 -3651.178)" fill="none" stroke="#262626" stroke-width="1"/><path d="M384.694,3720.166l23.288-16.4" transform="translate(-251.807 -3650.05)" fill="none" stroke="#262626" stroke-width="1"/><path d="M375.969,3717.143l23.4-16.3" transform="translate(-248.252 -3648.857)" fill="none" stroke="#262626" stroke-width="1"/><path d="M367.709,3713.875l22.906-15.5" transform="translate(-244.887 -3647.853)" fill="none" stroke="#262626" stroke-width="1"/><path d="M358.106,3711.682l23.17-16.01" transform="translate(-240.974 -3646.75)" fill="none" stroke="#262626" stroke-width="1"/><path d="M350.432,3708.79l22.77-15.259" transform="translate(-237.847 -3645.878)" fill="none" stroke="#262626" stroke-width="1"/><path d="M342.489,3706.052l23.018-15.109" transform="translate(-234.611 -3644.823)" fill="none" stroke="#262626" stroke-width="1"/><path d="M335.072,3703.5l22.22-14.676" transform="translate(-231.589 -3643.962)" fill="none" stroke="#262626" stroke-width="1"/><path d="M327.4,3701.317l22.3-14.744" transform="translate(-228.463 -3643.043)" fill="none" stroke="#262626" stroke-width="1"/><path d="M319.491,3698.979l22.306-14.836" transform="translate(-225.24 -3642.053)" fill="none" stroke="#262626" stroke-width="1"/><path d="M311.919,3696.58l22.559-14.291" transform="translate(-222.155 -3641.298)" fill="none" stroke="#262626" stroke-width="1"/><path d="M304.245,3694.29l22.228-14.244" transform="translate(-218.595 -3640.569)" fill="none" stroke="#262626" stroke-width="1"/><path d="M535.5,3701.177l19.586-18.919-137.235-30.343-18.433,13.69Z" transform="translate(-257.805 -3628.921)" fill="none" stroke="#262626" stroke-width="1"/><path d="M615.255,3719.132l19.579-18.716" transform="translate(-345.75 -3648.683)" fill="none" stroke="#262626" stroke-width="1"/><path d="M604.259,3716.23l18.9-18.523" transform="translate(-341.269 -3647.579)" fill="none" stroke="#262626" stroke-width="1"/><path d="M592.693,3713.291l18.778-18.056" transform="translate(-336.557 -3646.572)" fill="none" stroke="#262626" stroke-width="1"/><path d="M580.742,3710.353l19.031-18.122" transform="translate(-331.687 -3645.348)" fill="none" stroke="#262626" stroke-width="1"/><path d="M570.625,3707.539l18.226-17.532" transform="translate(-327.565 -3644.442)" fill="none" stroke="#262626" stroke-width="1"/><path d="M559.3,3705.409l18.617-17.675" transform="translate(-322.951 -3643.516)" fill="none" stroke="#262626" stroke-width="1"/><path d="M549.523,3702.843l18.534-17.337" transform="translate(-318.967 -3642.608)" fill="none" stroke="#262626" stroke-width="1"/><path d="M539.467,3700.071l18.149-16.908" transform="translate(-314.87 -3641.653)" fill="none" stroke="#262626" stroke-width="1"/><path d="M529.142,3697.641l18.244-16.933" transform="translate(-310.663 -3640.653)" fill="none" stroke="#262626" stroke-width="1"/><path d="M0,16.306,18.611,0" transform="matrix(1, -0.017, 0.017, 1, 212.099, 38.991)" fill="none" stroke="#262626" stroke-width="1"/><path d="M509.421,3692.787l17.81-16.54" transform="translate(-302.628 -3638.835)" fill="none" stroke="#262626" stroke-width="1"/><path d="M487.627,3687.485l18.5-15.968" transform="translate(-293.747 -3636.908)" fill="none" stroke="#262626" stroke-width="1"/><path d="M479.179,3685.363l17.749-15.8" transform="translate(-290.305 -3636.111)" fill="none" stroke="#262626" stroke-width="1"/><path d="M471.554,3682.967l17.463-15.293" transform="translate(-287.199 -3635.342)" fill="none" stroke="#262626" stroke-width="1"/><path d="M462.887,3681.458l17.744-15.667" transform="translate(-283.667 -3634.575)" fill="none" stroke="#262626" stroke-width="1"/><path d="M454.288,3679.369l17.671-15.47" transform="translate(-280.164 -3633.804)" fill="none" stroke="#262626" stroke-width="1"/><path d="M446.553,3677.029l17.378-14.816" transform="translate(-277.012 -3633.117)" fill="none" stroke="#262626" stroke-width="1"/><path d="M437.517,3674.97,455.44,3660.4" transform="translate(-273.33 -3632.377)" fill="none" stroke="#262626" stroke-width="1"/><path d="M429.181,3673.087l18.808-14.652" transform="translate(-269.934 -3631.578)" fill="none" stroke="#262626" stroke-width="1"/><path d="M422.659,3671.415l18.022-14.48" transform="translate(-267.276 -3630.967)" fill="none" stroke="#262626" stroke-width="1"/><path d="M414.29,3669.372l17.823-14.018" transform="translate(-263.866 -3630.323)" fill="none" stroke="#262626" stroke-width="1"/><path d="M406.366,3667.313l18.106-14.019" transform="translate(-260.638 -3629.089)" fill="none" stroke="#262626" stroke-width="1"/><path d="M551.11,3697.135,414.4,3663.93" transform="translate(-263.911 -3633.817)" fill="none" stroke="#262626" stroke-width="1"/><path d="M553.082,3695.188,416.3,3662.647" transform="translate(-264.685 -3633.294)" fill="none" stroke="#262626" stroke-width="1"/><path d="M451.48,3732.76l-136.331-42.151" transform="translate(-223.471 -3644.688)" fill="none" stroke="#262626" stroke-width="1"/><path d="M317.846,3688.829l136.5,41.672" transform="translate(-224.57 -3643.962)" fill="none" stroke="#262626" stroke-width="1"/><path d="M620.614,3669.454l16.025-14.581-136.971-22.91-14.31,10.247Z" transform="translate(-292.823 -3620.792)" fill="none" stroke="#262626" stroke-width="1"/><path d="M702.12,3682.937l15.425-14.289" transform="translate(-381.143 -3635.739)" fill="none" stroke="#262626" stroke-width="1"/><path d="M690.258,3680.915l15.573-14.132" transform="translate(-376.31 -3634.979)" fill="none" stroke="#262626" stroke-width="1"/><path d="M678.388,3678.531l15.723-13.933" transform="translate(-371.473 -3634.09)" fill="none" stroke="#262626" stroke-width="1"/><path d="M666.682,3676.374l15.579-13.719" transform="translate(-366.703 -3633.298)" fill="none" stroke="#262626" stroke-width="1"/><path d="M655.642,3674.291l15.656-13.466" transform="translate(-362.205 -3632.552)" fill="none" stroke="#262626" stroke-width="1"/><path d="M645.435,3672.5l15.311-13.29" transform="translate(-358.047 -3631.895)" fill="none" stroke="#262626" stroke-width="1"/><path d="M634.848,3670.481l15.185-13.145" transform="translate(-353.733 -3631.13)" fill="none" stroke="#262626" stroke-width="1"/><path d="M624.4,3668.338l15.367-12.729" transform="translate(-349.475 -3630.426)" fill="none" stroke="#262626" stroke-width="1"/><path d="M614.266,3666.553l15.671-12.6" transform="translate(-345.347 -3629.751)" fill="none" stroke="#262626" stroke-width="1"/><path d="M604.037,3664.653l15.648-12.313" transform="translate(-341.179 -3629.095)" fill="none" stroke="#262626" stroke-width="1"/><path d="M595.551,3663.069l14.809-12.293" transform="translate(-337.721 -3628.457)" fill="none" stroke="#262626" stroke-width="1"/><path d="M585.551,3661.138l15.333-12.022" transform="translate(-333.647 -3627.781)" fill="none" stroke="#262626" stroke-width="1"/><path d="M582.833,3660.653l15.594-11.964" transform="translate(-332.539 -3627.607)" fill="none" stroke="#262626" stroke-width="1"/><path d="M574.88,3659.051l14.741-11.874" transform="translate(-329.299 -3626.991)" fill="none" stroke="#262626" stroke-width="1"/><path d="M566.462,3657.418l14.365-11.668" transform="translate(-325.869 -3626.409)" fill="none" stroke="#262626" stroke-width="1"/><path d="M557.326,3655.917l14.656-11.653" transform="translate(-322.146 -3625.804)" fill="none" stroke="#262626" stroke-width="1"/><path d="M548.936,3654.2l14.611-11.586" transform="translate(-318.728 -3625.133)" fill="none" stroke="#262626" stroke-width="1"/><path d="M540.648,3652.464l14.444-11.35" transform="translate(-315.351 -3624.521)" fill="none" stroke="#262626" stroke-width="1"/><path d="M531.718,3651.168l14.43-11.074" transform="translate(-311.712 -3624.105)" fill="none" stroke="#262626" stroke-width="1"/><path d="M524.235,3649.648l14.089-10.977" transform="translate(-308.663 -3623.525)" fill="none" stroke="#262626" stroke-width="1"/><path d="M516.338,3648.07l14.334-10.944" transform="translate(-305.446 -3622.895)" fill="none" stroke="#262626" stroke-width="1"/><path d="M508.481,3646.486l14.093-10.556" transform="translate(-302.244 -3622.408)" fill="none" stroke="#262626" stroke-width="1"/><path d="M499.937,3645.217l14.206-10.439" transform="translate(-298.763 -3621.939)" fill="none" stroke="#262626" stroke-width="1"/><path d="M492.832,3643.6l14.107-10.307" transform="translate(-295.868 -3621.335)" fill="none" stroke="#262626" stroke-width="1"/><path d="M497.116,3641.114l135.651,25.178" transform="translate(-297.614 -3624.521)" fill="none" stroke="#262626" stroke-width="1"/><path d="M634.505,3665.008l-136.187-24.852" transform="translate(-298.103 -3624.13)" fill="none" stroke="#262626" stroke-width="1"/><path d="M689.193,3644.93l12.535-13.695L566.572,3613.11l-12.1,10.673Z" transform="translate(-320.982 -3613.11)" fill="none" stroke="#262626" stroke-width="1"/><path d="M769.393,3655.662l12.773-13.136" transform="translate(-408.553 -3625.096)" fill="none" stroke="#262626" stroke-width="1"/><path d="M757.573,3653.792l12.6-13.406" transform="translate(-403.737 -3624.224)" fill="none" stroke="#262626" stroke-width="1"/><path d="M746.8,3652.092l12.228-13.137" transform="translate(-399.347 -3623.641)" fill="none" stroke="#262626" stroke-width="1"/><path d="M735.174,3650.522l12.457-12.91" transform="translate(-394.611 -3623.094)" fill="none" stroke="#262626" stroke-width="1"/><path d="M724.68,3649.161l12.589-12.827" transform="translate(-390.335 -3622.573)" fill="none" stroke="#262626" stroke-width="1"/><path d="M714.374,3647.472l12.375-12.718" transform="translate(-386.483 -3621.929)" fill="none" stroke="#262626" stroke-width="1"/><path d="M703.4,3645.932l12.853-12.552" transform="translate(-381.664 -3621.369)" fill="none" stroke="#262626" stroke-width="1"/><path d="M693.584,3644.4l12.63-12.312" transform="translate(-377.665 -3620.841)" fill="none" stroke="#262626" stroke-width="1"/><path d="M683.41,3642.825l12.857-12.352" transform="translate(-373.519 -3620.185)" fill="none" stroke="#262626" stroke-width="1"/><path d="M673.984,3641.451,686.4,3629.38" transform="translate(-369.679 -3619.74)" fill="none" stroke="#262626" stroke-width="1"/><path d="M664.279,3640.191l12.539-12.092" transform="translate(-365.724 -3619.217)" fill="none" stroke="#262626" stroke-width="1"/><path d="M654.539,3638.935l12.682-11.8" transform="translate(-361.756 -3618.824)" fill="none" stroke="#262626" stroke-width="1"/><path d="M652.587,3638.432l12.612-11.744" transform="translate(-360.96 -3618.643)" fill="none" stroke="#262626" stroke-width="1"/><path d="M643.595,3637.324l12.472-11.87" transform="translate(-357.297 -3618.14)" fill="none" stroke="#262626" stroke-width="1"/><path d="M634.848,3635.574l12.289-11.4" transform="translate(-353.733 -3617.617)" fill="none" stroke="#262626" stroke-width="1"/><path d="M625.875,3634.395l12.416-11.748" transform="translate(-350.077 -3616.996)" fill="none" stroke="#262626" stroke-width="1"/><path d="M616.5,3633.217l12.373-11.484" transform="translate(-346.256 -3616.624)" fill="none" stroke="#262626" stroke-width="1"/><path d="M608.521,3632.056l12.3-11.494" transform="translate(-343.006 -3616.147)" fill="none" stroke="#262626" stroke-width="1"/><path d="M600.855,3630.63l11.782-11.158" transform="translate(-339.882 -3615.702)" fill="none" stroke="#262626" stroke-width="1"/><path d="M593.572,3629.467l11.741-11.09" transform="translate(-337.507 -3615.256)" fill="none" stroke="#262626" stroke-width="1"/><path d="M584.141,3628.425l12.248-10.889" transform="translate(-333.072 -3614.914)" fill="none" stroke="#262626" stroke-width="1"/><path d="M577.076,3627.254l11.883-11.088" transform="translate(-330.194 -3614.355)" fill="none" stroke="#262626" stroke-width="1"/><path d="M569.693,3626.249l11.733-10.971" transform="translate(-327.185 -3613.994)" fill="none" stroke="#262626" stroke-width="1"/><path d="M561.762,3624.72l11.967-10.532" transform="translate(-323.954 -3613.549)" fill="none" stroke="#262626" stroke-width="1"/><path d="M699.181,3642.318l-134.336-20.229" transform="translate(-325.21 -3616.769)" fill="none" stroke="#262626" stroke-width="1"/><path d="M700.269,3641.025,565.5,3621.2" transform="translate(-325.475 -3616.407)" fill="none" stroke="#262626" stroke-width="1"/><path d="M291.058,3774.095l254.684-114.625" transform="translate(-165.791 -3631.999)" fill="none" stroke="#262626" stroke-width="1"/><path d="M592.4,3642.469,338.284,3757.3" transform="translate(-212.447 -3612.9)" fill="none" stroke="#262626" stroke-width="1"/><path d="M350.09,3798.591,603.8,3675.639" transform="translate(-223.943 -3638.588)" fill="none" stroke="#262626" stroke-width="1"/><path d="M605.141,3678.673l-253.482,123.45" transform="translate(-225.3 -3639.824)" fill="none" stroke="#262626" stroke-width="1"/><path d="M385.384,3837.628,399,3827.069v-1.384l-16.759,11.5" transform="translate(-250.809 -3699.724)" fill="none" stroke="#262626" stroke-width="1"/><path d="M431.821,3811.655l-16.217,2.731-.351-2.233,12.449-13.989" transform="translate(-264.259 -3688.511)" fill="none" stroke="#262626" stroke-width="1"/><path d="M402.281,3836.394l6.1-4.33v1.663" transform="translate(-258.973 -3702.323)" fill="none" stroke="#262626" stroke-width="1"/><path d="M416.819,3830.937v-1.975l6.568-1.054" transform="translate(-264.897 -3700.63)" fill="none" stroke="#262626" stroke-width="1"/><path d="M419.815,3836.67l8.88,9.625" transform="translate(-266.117 -3704.2)" fill="none" stroke="#262626" stroke-width="1"/><path d="M437.355,3840.853l5.117-16.413" transform="translate(-273.264 -3699.217)" fill="none" stroke="#262626" stroke-width="1"/><path d="M451.405,3822.1l8.059,9.729" transform="translate(-278.989 -3698.263)" fill="none" stroke="#262626" stroke-width="1"/><path d="M467.633,3825.621l5.9-16.07" transform="translate(-285.601 -3693.15)" fill="none" stroke="#262626" stroke-width="1"/><path d="M480.669,3808.636l8.107,9.537" transform="translate(-290.913 -3692.778)" fill="none" stroke="#262626" stroke-width="1"/><path d="M496.453,3812.723l4.459-15.107" transform="translate(-297.344 -3688.287)" fill="none" stroke="#262626" stroke-width="1"/><path d="M508.427,3795.934l7.265,9.31" transform="translate(-302.222 -3687.602)" fill="none" stroke="#262626" stroke-width="1"/><path d="M524.114,3800.24l3.791-14.722" transform="translate(-308.614 -3683.358)" fill="none" stroke="#262626" stroke-width="1"/><path d="M534.27,3784.675l7.43,8.619" transform="translate(-312.752 -3683.014)" fill="none" stroke="#262626" stroke-width="1"/><path d="M553.947,3786l4.656-14.449" transform="translate(-320.769 -3677.666)" fill="none" stroke="#262626" stroke-width="1"/><path d="M566.223,3769.9l6.289,8.954" transform="translate(-325.771 -3676.992)" fill="none" stroke="#262626" stroke-width="1"/><path d="M578.76,3774.742l3.45-13.088" transform="translate(-330.879 -3673.635)" fill="none" stroke="#262626" stroke-width="1"/><path d="M589.066,3759.156l4.922,9.2" transform="translate(-335.079 -3672.617)" fill="none" stroke="#262626" stroke-width="1"/><path d="M599.3,3764.764l3.59-13.286" transform="translate(-339.249 -3669.489)" fill="none" stroke="#262626" stroke-width="1"/><path d="M609.378,3750.469l4.679,8.514" transform="translate(-343.355 -3669.077)" fill="none" stroke="#262626" stroke-width="1"/><path d="M618.814,3756.1l3.429-12.706" transform="translate(-347.2 -3666.195)" fill="none" stroke="#262626" stroke-width="1"/><path d="M628.127,3741.573l4,8.879" transform="translate(-350.994 -3665.453)" fill="none" stroke="#262626" stroke-width="1"/><path d="M659,3736.439l3.567-11.972" transform="translate(-363.572 -3658.482)" fill="none" stroke="#262626" stroke-width="1"/><path d="M666.682,3724.467l4.358,7.455" transform="translate(-366.703 -3658.482)" fill="none" stroke="#262626" stroke-width="1"/><path d="M677.766,3728.2l3.573-11.875" transform="translate(-371.22 -3655.164)" fill="none" stroke="#262626" stroke-width="1"/><path d="M685.4,3715.382l4.44,8.005" transform="translate(-374.328 -3654.781)" fill="none" stroke="#262626" stroke-width="1"/><path d="M694.718,3720.351l3.311-11.585" transform="translate(-378.127 -3652.085)" fill="none" stroke="#262626" stroke-width="1"/><path d="M702.12,3707.626l4.76,7.131" transform="translate(-381.143 -3651.621)" fill="none" stroke="#262626" stroke-width="1"/><path d="M712.155,3712.324l2.552-10.671" transform="translate(-385.232 -3649.187)" fill="none" stroke="#262626" stroke-width="1"/><path d="M718.844,3700.417l3.31,7.539" transform="translate(-387.957 -3648.683)" fill="none" stroke="#262626" stroke-width="1"/><path d="M734.67,3701.99l1.638-9.855" transform="translate(-394.405 -3645.309)" fill="none" stroke="#262626" stroke-width="1"/><path d="M739.176,3691.286l3.153,7.588" transform="translate(-396.241 -3644.963)" fill="none" stroke="#262626" stroke-width="1"/><path d="M745.925,3695.981l3.066-10.517" transform="translate(-398.991 -3642.591)" fill="none" stroke="#262626" stroke-width="1"/><path d="M753.472,3684.323l2.391,8.024" transform="translate(-402.066 -3642.126)" fill="none" stroke="#262626" stroke-width="1"/><path d="M759.385,3690.071l3.834-11.079" transform="translate(-404.475 -3639.954)" fill="none" stroke="#262626" stroke-width="1"/><path d="M768.208,3678.1l2.819,6.873" transform="translate(-408.07 -3639.59)" fill="none" stroke="#262626" stroke-width="1"/><path d="M774.723,3682.946l2.493-9.819" transform="translate(-410.725 -3637.564)" fill="none" stroke="#262626" stroke-width="1"/><path d="M780.171,3672.218l3.033,7.118" transform="translate(-412.945 -3637.194)" fill="none" stroke="#262626" stroke-width="1"/><path d="M787.16,3677.16l2.008-9.374" transform="translate(-415.793 -3635.389)" fill="none" stroke="#262626" stroke-width="1"/><path d="M794.3,3666.119l3.275,6.292" transform="translate(-418.701 -3634.709)" fill="none" stroke="#262626" stroke-width="1"/><path d="M637.258,3748.08l2.8-12.329" transform="translate(-354.715 -3663.08)" fill="none" stroke="#262626" stroke-width="1"/><path d="M649.627,3732l4.285,8.476" transform="translate(-358.931 -3662.056)" fill="none" stroke="#262626" stroke-width="1"/><path d="M545.944,3838.755l-.245-35.815" transform="translate(-317.409 -3690.457)" fill="none" stroke="#262626" stroke-width="1"/><path d="M548.5,3799.757v37.432l1.157,1.154V3842s-3.151,2.844-5.828,0v-3.659l1.33-1.154" transform="translate(-316.646 -3689.16)" fill="none" stroke="#262626" stroke-width="1"/><path d="M549.748,3789.413l.3-11.912" transform="translate(-318.014 -3680.858)" fill="none" stroke="#262626" stroke-width="1"/><path d="M545.224,3780.029v9.738l1.153,1.707" transform="translate(-317.216 -3681.121)" fill="none" stroke="#262626" stroke-width="1"/><path d="M536.8,3771.477v-4.665l-11.248,7.733" transform="translate(-309.201 -3675.736)" fill="none" stroke="#262626" stroke-width="1"/><path d="M551.377,3760.669v-6.608l.765-.881h0l7.94-9" transform="translate(-319.722 -3666.516)" fill="none" stroke="#262626" stroke-width="1"/><path d="M632.7,3731.23l4.427-4.053-7.583,4.71" transform="translate(-351.571 -3659.587)" fill="none" stroke="#262626" stroke-width="1"/><path d="M658.41,3713.657H648.8l7.709-10.19" transform="translate(-359.418 -3649.927)" fill="none" stroke="#262626" stroke-width="1"/><path d="M643.374,3735.127l.6,9.047.553.847" transform="translate(-355.941 -3663.749)" fill="none" stroke="#262626" stroke-width="1"/><path d="M649.319,3743.057l-.449-10.779" transform="translate(-358.622 -3662.566)" fill="none" stroke="#262626" stroke-width="1"/><path d="M414.213,3853.6l-.451-14.228" transform="translate(-264.356 -3705.302)" fill="none" stroke="#262626" stroke-width="1"/><path d="M420,3850.445l-1-13.971" transform="translate(-265.787 -3704.121)" fill="none" stroke="#262626" stroke-width="1"/><path d="M407.027,3840.239l-6.424,17.654" transform="translate(-258.289 -3705.654)" fill="none" stroke="#262626" stroke-width="1"/><path d="M391.683,3863.967,380.4,3854.3" transform="translate(-250.057 -3711.385)" fill="none" stroke="#262626" stroke-width="1"/><path d="M273.781,3702.359l-37.985,10.35" transform="translate(-191.139 -3649.475)" fill="none" stroke="#262626" stroke-width="1"/><path d="M277.578,3703.691l-37.646,10.183" transform="translate(-192.824 -3650.018)" fill="none" stroke="#262626" stroke-width="1"/><path d="M305.711,3713.6l-39,10.7" transform="translate(-203.735 -3654.054)" fill="none" stroke="#262626" stroke-width="1"/><path d="M310.255,3714.6l-38.577,10.947" transform="translate(-205.759 -3654.461)" fill="none" stroke="#262626" stroke-width="1"/><path d="M361.913,3680.907l22.764-5.94" transform="translate(-242.525 -3638.314)" fill="none" stroke="#262626" stroke-width="1"/><path d="M386.061,3676.431l-22.474,5.638" transform="translate(-243.207 -3638.911)" fill="none" stroke="#262626" stroke-width="1"/><path d="M393.539,3690.324l22.6-5.852" transform="translate(-255.411 -3642.187)" fill="none" stroke="#262626" stroke-width="1"/><path d="M396.142,3691.379l22.581-6.244" transform="translate(-256.472 -3642.457)" fill="none" stroke="#262626" stroke-width="1"/><path d="M459.39,3655.24l17.8-4.646" transform="translate(-282.242 -3628.384)" fill="none" stroke="#262626" stroke-width="1"/><path d="M491.08,3661.841l19.6-4.486" transform="translate(-295.154 -3631.138)" fill="none" stroke="#262626" stroke-width="1"/><path d="M534.317,3634.36,547.4,3632.1" transform="translate(-312.771 -3620.848)" fill="none" stroke="#262626" stroke-width="1"/><path d="M567.264,3640.045l13.764-2.832" transform="translate(-326.195 -3622.931)" fill="none" stroke="#262626" stroke-width="1"/><path d="M499.736,3690.142l18.33-16.054" transform="translate(-298.681 -3637.956)" fill="none" stroke="#262626" stroke-width="1"/><path d="M515.74,3673.7l-18.124,15.913" transform="translate(-297.623 -3637.568)" fill="none" stroke="#262626" stroke-width="1"/><path d="M725.286,3706.638v-9.454" transform="translate(-390.582 -3647.366)" fill="none" stroke="#262626" stroke-width="1"/><path d="M730.921,3695.234v8.927" transform="translate(-392.878 -3646.572)" fill="none" stroke="#262626" stroke-width="1"/><path d="M727.87,3713.859v30.433l.869,1.434v3.136s-3.08,1.22-4.232,0v-3.136l.848-1.434v-29" transform="translate(-390.264 -3654.16)" fill="none" stroke="#262626" stroke-width="1"/><path d="M730.665,3682.882l-.372-3.518,6.245-8.425" transform="translate(-392.622 -3636.673)" fill="none" stroke="#262626" stroke-width="1"/><path d="M714.309,3691.794l6.366-3.7v3.253" transform="translate(-386.109 -3643.664)" fill="none" stroke="#262626" stroke-width="1"/><path d="M791.493,3675.779l-.5-8.194" transform="translate(-417.355 -3635.306)" fill="none" stroke="#262626" stroke-width="1"/><path d="M793.721,3666.119l.557,7.832" transform="translate(-418.466 -3634.709)" fill="none" stroke="#262626" stroke-width="1"/><path d="M784.9,3663.8l2.224-3.511L782.5,3663.8" transform="translate(-413.893 -3632.331)" fill="none" stroke="#262626" stroke-width="1"/><path d="M797.142,3653.506l-3.359-.623,5.349-8.875" transform="translate(-418.491 -3625.7)" fill="none" stroke="#262626" stroke-width="1"/><path d="M866.929,7671.993l-4.334.583v1.558" transform="translate(-572.741 -7606.29)" fill="none" stroke="#262626" stroke-width="1"/><path d="M853.855,7678.417l2.131-2.3.3,1.125" transform="translate(-569.18 -7607.968)" fill="none" stroke="#262626" stroke-width="1"/><path d="M1003.549,7611.741l.423-.722v.722" transform="translate(-630.173 -7581.445)" fill="none" stroke="#262626" stroke-width="1"/><path d="M1006.721,7610.4v-.895l.741.331" transform="translate(-631.466 -7580.827)" fill="none" stroke="#262626" stroke-width="1"/><path d="M319.432,3734.654l-2.194-26.554" transform="translate(-220.182 -3650.922)" fill="none" stroke="#262626" stroke-width="1"/><path d="M322.059,3709.415l2.142,26.6" transform="translate(-222.739 -3651.458)" fill="none" stroke="#262626" stroke-width="1"/><path d="M494.871,3651.006l.577,8.758" transform="translate(-292.559 -3627.659)" fill="none" stroke="#262626" stroke-width="1"/><path d="M499.158,3652.4l.33,8.686" transform="translate(-294.305 -3628.225)" fill="none" stroke="#262626" stroke-width="1"/><path d="M717.457,7650.648l.4,4.649-.8.918.405,1.526h3.27V7655.8l-1-.687-.186-3.815" transform="translate(-513.44 -7597.593)" fill="none" stroke="#262626" stroke-width="1"/></g></g></svg>