<svg xmlns="http://www.w3.org/2000/svg" width="82.546" height="82.546" viewBox="0 0 82.546 82.546"><path d="M41.273,0C30.06,0,28.661.052,24.258.248A30.434,30.434,0,0,0,14.239,2.167a20.212,20.212,0,0,0-7.312,4.76,20.138,20.138,0,0,0-4.76,7.312A30.345,30.345,0,0,0,.248,24.258C.041,28.661,0,30.06,0,41.273S.052,53.885.248,58.288A30.453,30.453,0,0,0,2.167,68.307a20.241,20.241,0,0,0,4.76,7.312,20.183,20.183,0,0,0,7.312,4.76A30.471,30.471,0,0,0,24.258,82.3c4.4.206,5.8.248,17.015.248s12.612-.052,17.015-.248a30.542,30.542,0,0,0,10.019-1.919A21.093,21.093,0,0,0,80.379,68.307,30.452,30.452,0,0,0,82.3,58.288c.206-4.4.248-5.8.248-17.015s-.052-12.612-.248-17.015a30.523,30.523,0,0,0-1.919-10.019,20.256,20.256,0,0,0-4.76-7.312,20.109,20.109,0,0,0-7.312-4.76A30.364,30.364,0,0,0,58.288.248C53.885.041,52.485,0,41.273,0Zm0,7.429c11.016,0,12.33.055,16.681.244A22.74,22.74,0,0,1,65.614,9.1a13.582,13.582,0,0,1,7.835,7.832,22.788,22.788,0,0,1,1.42,7.66c.2,4.354.241,5.661.241,16.681s-.052,12.33-.255,16.681a23.227,23.227,0,0,1-1.448,7.66,13.1,13.1,0,0,1-3.092,4.753,12.876,12.876,0,0,1-4.746,3.082,22.955,22.955,0,0,1-7.687,1.42c-4.382.2-5.672.241-16.712.241s-12.334-.052-16.712-.255a23.4,23.4,0,0,1-7.691-1.448,12.781,12.781,0,0,1-4.743-3.092,12.532,12.532,0,0,1-3.1-4.746,23.423,23.423,0,0,1-1.445-7.687c-.155-4.334-.21-5.672-.21-16.661s.055-12.334.21-16.719a23.4,23.4,0,0,1,1.445-7.684,12.235,12.235,0,0,1,3.1-4.75A12.208,12.208,0,0,1,16.767,8.98a22.843,22.843,0,0,1,7.639-1.448c4.385-.155,5.675-.206,16.712-.206l.155.1Zm0,12.65A21.194,21.194,0,1,0,62.467,41.273,21.192,21.192,0,0,0,41.273,20.079Zm0,34.951A13.758,13.758,0,1,1,55.031,41.273,13.754,13.754,0,0,1,41.273,55.031ZM68.259,19.244a4.953,4.953,0,1,1-4.953-4.949A4.956,4.956,0,0,1,68.259,19.244Z" transform="translate(0 0)" fill="#fcfcfc"/></svg>