<svg xmlns="http://www.w3.org/2000/svg" width="219.072" height="235.79" viewBox="0 0 219.072 235.79"><g transform="translate(-1377.381 -1534.635)"><g transform="translate(1378.726 1534.635)"><text transform="translate(81.552 58.163)" font-size="2" font-family="SourceSansPro-Bold, Source Sans Pro" font-weight="700"><tspan x="0" y="0">Panel rotation</tspan></text><g transform="translate(0 34.954)"><path d="M-1302.185,5565.211l14.431-48.055h-35.054" transform="translate(1337.225 -5517.156)" fill="none" stroke="#262626" stroke-width="2"/><path d="M-1308.378,5517.156l-14.431,48.055h35.054" transform="translate(1322.809 -5517.156)" fill="none" stroke="#262626" stroke-width="2"/></g><text transform="translate(16.926 39.698)" font-size="2" font-family="SourceSansPro-Bold, Source Sans Pro" font-weight="700"><tspan x="0" y="0">Geographical data</tspan></text><text transform="translate(14.618 47.392)" font-size="2" font-family="SourceSansPro-Bold, Source Sans Pro" font-weight="700"><tspan x="0" y="0">System/mod. data</tspan></text><text transform="translate(12.31 54.316)" font-size="2" font-family="SourceSansPro-Bold, Source Sans Pro" font-weight="700"><tspan x="0" y="0">Plant species data</tspan></text><text transform="translate(10.002 62.01)" font-size="2" font-family="SourceSansPro-Bold, Source Sans Pro" font-weight="700"><tspan x="0" y="0">Temporal data</tspan></text><text transform="translate(7.694 69.703)" font-size="2" font-family="SourceSansPro-Bold, Source Sans Pro" font-weight="700"><tspan x="0" y="0">Simulation args.</tspan></text><text transform="translate(5.385 76.628)" font-size="2" font-family="SourceSansPro-Bold, Source Sans Pro" font-weight="700"><tspan x="0" y="0">Weather/solar data</tspan></text><g transform="translate(56.578 57.419) rotate(90)"><path d="M0,2.1,2.1,0l2.1,2.1" transform="translate(0 0)" fill="none" stroke="#262626" stroke-width="2"/><path d="M0,14.469V0" transform="translate(2.096 0)" fill="none" stroke="#262626" stroke-width="2"/></g><g transform="translate(56.163 0)" fill="none" stroke="#262626" stroke-width="2"><rect width="70.781" height="116.173" stroke="none"/><rect x="1" y="1" width="68.781" height="114.173" fill="none"/></g><line x2="70.538" transform="translate(56.587 10.022)" fill="none" stroke="#262626" stroke-width="2"/><text transform="translate(61.549 5.077)" font-size="2" font-family="SourceSansPro-Bold, Source Sans Pro" font-weight="700"><tspan x="0" y="0">3D spatial representation</tspan></text><g transform="translate(87.585 20.834) rotate(135)"><path d="M0,2.1,2.1,0l2.1,2.1" transform="translate(0 0)" fill="none" stroke="#262626" stroke-width="2"/><path d="M0,17.259V0" transform="translate(2.096 0)" fill="none" stroke="#262626" stroke-width="2"/></g><g transform="translate(99.042 23.798) rotate(-135)"><path d="M0,2.1,2.1,0l2.1,2.1" transform="translate(0 0)" fill="none" stroke="#262626" stroke-width="2"/><path d="M0,17.394V0" transform="translate(2.096 0)" fill="none" stroke="#262626" stroke-width="2"/></g><g transform="translate(91.793 16.809) rotate(45)" fill="none" stroke="#262626" stroke-width="2"><rect width="16.014" height="16.014" stroke="none"/><rect x="1" y="1" width="14.014" height="14.014" fill="none"/></g><text transform="translate(84.629 27.389)" font-size="2" font-family="SourceSansPro-Bold, Source Sans Pro" font-weight="700"><tspan x="0" y="0">Panel tilt°</tspan></text><text transform="translate(64.626 43.545)" font-size="2" font-family="SourceSansPro-Bold, Source Sans Pro" font-weight="700"><tspan x="0" y="0">Backtracking</tspan></text><g transform="translate(73.858 72.32)" fill="none" stroke="#262626" stroke-width="2"><path d="M0,0H30.39a5,5,0,0,1,5,5v5a0,0,0,0,1,0,0H0a0,0,0,0,1,0,0V0A0,0,0,0,1,0,0Z" stroke="none"/><path d="M1,1H30.39a4,4,0,0,1,4,4V9a0,0,0,0,1,0,0H1A0,0,0,0,1,1,9V1A0,0,0,0,1,1,1Z" fill="none"/></g><text transform="translate(78.474 76.628)" font-size="2" font-family="SourceSansPro-Regular, Source Sans Pro"><tspan x="0" y="0">Planar projections</tspan></text><g transform="translate(93.888 53.771) rotate(180)"><path d="M0,2.1,2.1,0l2.1,2.1" transform="translate(0 0)" fill="none" stroke="#262626" stroke-width="2"/><path d="M0,14.749V0" transform="translate(2.096 0)" fill="none" stroke="#262626" stroke-width="2"/></g><g transform="translate(141.827 57.112) rotate(90)"><path d="M0,2.1,2.1,0l2.1,2.1" transform="translate(0 0)" fill="none" stroke="#262626" stroke-width="2"/><path d="M0,14.913V0" transform="translate(2.096 0)" fill="none" stroke="#262626" stroke-width="2"/></g><g transform="translate(93.888 71.945) rotate(180)"><path d="M0,2.1,2.1,0l2.1,2.1" transform="translate(0 0)" fill="none" stroke="#262626" stroke-width="2"/><path d="M0,8.311V0" transform="translate(2.096 0)" fill="none" stroke="#262626" stroke-width="2"/></g><line x2="70.538" transform="translate(56.587 10.022)" fill="none" stroke="#262626" stroke-width="2"/><g transform="translate(91.793 16.809) rotate(45)" fill="none" stroke="#262626" stroke-width="2"><rect width="16.014" height="16.014" stroke="none"/><rect x="1" y="1" width="14.014" height="14.014" fill="none"/></g><g transform="translate(91.793 90.12) rotate(45)" fill="none" stroke="#262626" stroke-width="2"><rect width="16.014" height="16.014" stroke="none"/><rect x="1" y="1" width="14.014" height="14.014" fill="none"/></g><g transform="translate(60.779 39.237)" fill="none" stroke="#262626" stroke-width="2"><path d="M0,0H22.7a5,5,0,0,1,5,5v5a0,0,0,0,1,0,0H0a0,0,0,0,1,0,0V0A0,0,0,0,1,0,0Z" stroke="none"/><path d="M1,1H22.7a4,4,0,0,1,4,4V9a0,0,0,0,1,0,0H1A0,0,0,0,1,1,9V1A0,0,0,0,1,1,1Z" fill="none"/></g><g transform="translate(85.044 32.777) rotate(45)"><path d="M0,2.1,2.1,0l2.1,2.1" transform="translate(0 0)" fill="none" stroke="#262626" stroke-width="2"/><path d="M0,7.092V0" transform="translate(2.096 0)" fill="none" stroke="#262626" stroke-width="2"/></g><g transform="translate(95.4 39.237)" fill="none" stroke="#262626" stroke-width="2"><path d="M0,0H22.7a5,5,0,0,1,5,5v5a0,0,0,0,1,0,0H0a0,0,0,0,1,0,0V0A0,0,0,0,1,0,0Z" stroke="none"/><path d="M1,1H22.7a4,4,0,0,1,4,4V9a0,0,0,0,1,0,0H1A0,0,0,0,1,1,9V1A0,0,0,0,1,1,1Z" fill="none"/></g><text transform="translate(98.478 43.545)" font-size="2" font-family="SourceSansPro-Bold, Source Sans Pro" font-weight="700"><tspan x="0" y="0">Gradient desc.</tspan></text><g transform="translate(103.556 37.792) rotate(135)"><path d="M0,0,2.1,2.1,4.192,0" transform="translate(0 4.997)" fill="none" stroke="#262626" stroke-width="2"/><path d="M0,0V7.092" transform="translate(2.096 0)" fill="none" stroke="#262626" stroke-width="2"/></g><g transform="translate(99.16 49.051)"><g transform="translate(18.344 30.277) rotate(45)"><path d="M0,25.942V0" transform="translate(0 0)" fill="none" stroke="#262626" stroke-width="2"/></g><g transform="translate(20.439 30.378) rotate(180)"><path d="M0,0,2.1,2.1,4.191,0" transform="translate(0 28.282)" fill="none" stroke="#262626" stroke-width="2"/><path d="M0,0V30.378" transform="translate(2.096 0)" fill="none" stroke="#262626" stroke-width="2"/></g></g><text transform="translate(85.883 100.862)" font-size="2" font-family="SourceSansPro-Bold, Source Sans Pro" font-weight="700"><tspan x="0" y="0">∫(PAR)dt</tspan></text><g transform="translate(141.562 43.853)" fill="none" stroke="#262626" stroke-width="2"><rect width="35.39" height="30.774" rx="6" stroke="none"/><rect x="1" y="1" width="33.39" height="28.774" rx="5" fill="none"/></g><text transform="translate(146.178 49.7)" font-size="2" font-family="SourceSansPro-Bold, Source Sans Pro" font-weight="700"><tspan x="0" y="0">Optimal system</tspan></text><text transform="translate(146.178 55.855)" font-size="2" font-family="SourceSansPro-Bold, Source Sans Pro" font-weight="700"><tspan x="0" y="0">Tilt behavior</tspan></text><text transform="translate(146.178 62.01)" font-size="2" font-family="SourceSansPro-Bold, Source Sans Pro" font-weight="700"><tspan x="0" y="0">Panel distribution</tspan></text><text transform="translate(146.178 67.395)" font-size="2" font-family="SourceSansPro-Bold, Source Sans Pro" font-weight="700"><tspan x="0" y="0">Module type</tspan></text><g transform="translate(77.705 53.855)" fill="none" stroke="#262626" stroke-width="2"><path d="M0,0H24.466a4,4,0,0,1,4,4v6a0,0,0,0,1,0,0H0a0,0,0,0,1,0,0V0A0,0,0,0,1,0,0Z" stroke="none"/><path d="M1,1H24.466a3,3,0,0,1,3,3V9a0,0,0,0,1,0,0H1A0,0,0,0,1,1,9V1A0,0,0,0,1,1,1Z" fill="none"/></g><g transform="translate(93.888 90.12) rotate(180)"><path d="M0,2.1,2.1,0l2.1,2.1" transform="translate(0 0)" fill="none" stroke="#262626" stroke-width="2"/><path d="M0,8.311V0" transform="translate(2.096 0)" fill="none" stroke="#262626" stroke-width="2"/></g><text transform="translate(78.474 76.628)" font-size="2" font-family="SourceSansPro-Bold, Source Sans Pro" font-weight="700"><tspan x="0" y="0">Planar projections</tspan></text></g><g transform="translate(1453.759 1646.454)"><text transform="translate(13.718 26.091)" font-size="2" font-family="SourceSansPro-Bold, Source Sans Pro" font-weight="700"><tspan x="0" y="0">Farm energy usage</tspan></text><text transform="translate(10.922 32.7)" font-size="2" font-family="SourceSansPro-Bold, Source Sans Pro" font-weight="700"><tspan x="0" y="0">Optimized system size </tspan></text><text transform="translate(8.507 39.309)" font-size="2" font-family="SourceSansPro-Bold, Source Sans Pro" font-weight="700"><tspan x="0" y="0">Financial incentives</tspan></text><text transform="translate(6.346 45.918)" font-size="2" font-family="SourceSansPro-Bold, Source Sans Pro" font-weight="700"><tspan x="0" y="0">System pricing </tspan></text><g transform="translate(0 21.65)"><path d="M-643.233,5768.516h40.916l-10.748,29.793" transform="translate(653.998 -5768.424)" fill="none" stroke="#262626" stroke-width="2"/><path d="M-602.317,5798.309h-40.916l10.748-29.794" transform="translate(643.233 -5768.515)" fill="none" stroke="#262626" stroke-width="2"/></g><g transform="translate(60.651 36.039) rotate(90)"><path d="M0,2.1,2.1,0l2.1,2.1" transform="translate(0 0)" fill="none" stroke="#262626" stroke-width="2"/><path d="M0,14.913V0" transform="translate(2.096 0)" fill="none" stroke="#262626" stroke-width="2"/></g><g transform="translate(88.251 0)" fill="none" stroke="#262626" stroke-width="2"><rect width="27.071" height="9.786" rx="4.893" stroke="none"/><rect x="1" y="1" width="25.071" height="7.786" rx="3.893" fill="none"/></g><text transform="translate(92.699 4.288)" font-size="2" font-family="SourceSansPro-Bold, Source Sans Pro" font-weight="700"><tspan x="0" y="0">Solar panels</tspan></text><g transform="translate(71.833 33.151) rotate(180)"><path d="M0,2.1,2.1,0l2.1,2.1" transform="translate(0 0)" fill="none" stroke="#262626" stroke-width="2"/><path d="M0,28.4V0" transform="translate(2.096 0)" fill="none" stroke="#262626" stroke-width="2"/></g><path d="M0,18.64V0" transform="translate(69.611 4.83) rotate(-90)" fill="none" stroke="#262626" stroke-width="2"/><g transform="translate(133.836 4.824)"><path d="M0,0V28.327" transform="translate(0 0)" fill="none" stroke="#262626" stroke-width="2"/></g><path d="M0,0V18.64" transform="translate(115.322 4.83) rotate(-90)" fill="none" stroke="#262626" stroke-width="2"/><path d="M0,0,2.1,2.1,4.191,0" transform="translate(131.74 31.055)" fill="none" stroke="#262626" stroke-width="2"/><g transform="translate(99.691 9.873)"><path d="M3203.223,1190.861l2.1-2.1,2.1,2.1" transform="translate(-3203.223 -1188.766)" fill="none" stroke="#262626" stroke-width="2"/><path d="M3203.223,1203.679v-14.913" transform="translate(-3201.127 -1188.766)" fill="none" stroke="#262626" stroke-width="2"/></g><g transform="translate(85.455 24.784)" fill="none" stroke="#262626" stroke-width="2"><path d="M0,0H21.664a11,11,0,0,1,11,11V25.546a0,0,0,0,1,0,0H0a0,0,0,0,1,0,0V0A0,0,0,0,1,0,0Z" stroke="none"/><path d="M1,1H21.664a10,10,0,0,1,10,10V24.546a0,0,0,0,1,0,0H1a0,0,0,0,1,0,0V1A0,0,0,0,1,1,1Z" fill="none"/></g><text transform="translate(89.776 30.469)" font-size="2" font-family="SourceSansPro-Bold, Source Sans Pro" font-weight="700"><tspan x="0" y="0">PPA profits</tspan></text><text transform="translate(89.776 37.078)" font-size="2" font-family="SourceSansPro-Bold, Source Sans Pro" font-weight="700"><tspan x="0" y="0">Tax credits</tspan></text><text transform="translate(89.776 43.687)" font-size="2" font-family="SourceSansPro-Bold, Source Sans Pro" font-weight="700"><tspan x="0" y="0">Client payments</tspan></text><g transform="translate(99.691 50.416)"><path d="M3203.223,1190.861l2.1-2.1,2.1,2.1" transform="translate(-3203.223 -1188.766)" fill="none" stroke="#262626" stroke-width="2"/><path d="M3203.223,1203.679v-14.913" transform="translate(-3201.127 -1188.766)" fill="none" stroke="#262626" stroke-width="2"/></g><text transform="translate(64.99 37.897)" font-size="2" font-family="SourceSansPro-Bold, Source Sans Pro" font-weight="700"><tspan x="0" y="0">Client</tspan></text><g transform="translate(95.68 65.329)"><ellipse cx="6.094" cy="6.094" rx="6.094" ry="6.094" transform="translate(0.024 0.024)" fill="#306ef6"/><g transform="translate(0.024 0.024)"><path d="M11.194,5.4a6.3,6.3,0,0,0-2.443.508,1.856,1.856,0,0,1,.169.822A1.992,1.992,0,0,1,6.938,8.713a1.844,1.844,0,0,1-1.016-.29A5.951,5.951,0,0,0,5.1,11.494,6.094,6.094,0,1,0,11.194,5.4Z" transform="translate(-5.1 -5.4)" fill="none"/><path d="M11.575,8.322a2.266,2.266,0,0,0-.169-.822A5.914,5.914,0,0,0,8.6,10.015a2.07,2.07,0,0,0,1.016.29A1.971,1.971,0,0,0,11.575,8.322Z" transform="translate(-7.754 -6.992)" fill="#fadf5f"/></g><path d="M7.66,16.4a15.131,15.131,0,0,1,9.359-3.628,6.515,6.515,0,0,0,.169-1.378A6.094,6.094,0,1,0,7.66,16.4Z" transform="translate(-5 -5.3)" fill="none"/><path d="M19.534,40.992A6.1,6.1,0,0,0,25.459,36.3,15.076,15.076,0,0,0,16.1,39.928,5.96,5.96,0,0,0,19.534,40.992Z" transform="translate(-13.416 -28.803)" fill="#94e044"/><path d="M23.453,19.828H17.6L18.712,17.7h5.877Z" transform="translate(-14.553 -14.701)" fill="#fff"/><path d="M21.082,31.528H17.6L18.712,29.4h3.507Z" transform="translate(-14.553 -23.572)" fill="#fff"/></g><g transform="translate(60.374 33.589)" fill="none" stroke="#262626" stroke-width="2"><rect width="18.465" height="9.232" rx="4.616" stroke="none"/><rect x="1" y="1" width="16.465" height="7.232" rx="3.616" fill="none"/></g><g transform="translate(71.833 33.151) rotate(180)"><path d="M0,2.1,2.1,0l2.1,2.1" transform="translate(0 0)" fill="none" stroke="#262626" stroke-width="2"/><path d="M0,28.4V0" transform="translate(2.096 0)" fill="none" stroke="#262626" stroke-width="2"/></g><g transform="translate(69.738 71.436) rotate(180)"><path d="M0,0V28.407" transform="translate(0 0)" fill="none" stroke="#262626" stroke-width="2"/></g><g transform="translate(95.553 69.34) rotate(90)"><path d="M0,2.076,2.1,0l2.1,2.076" transform="translate(0 0)" fill="none" stroke="#262626" stroke-width="2"/><path d="M0,25.942V0" transform="translate(2.096 0)" fill="none" stroke="#262626" stroke-width="2"/></g><g transform="translate(134.021 43.028)"><path d="M0,28.4V0" transform="translate(0 0)" fill="none" stroke="#262626" stroke-width="2"/></g><g transform="translate(134.144 69.34) rotate(90)"><path d="M0,0,2.1,2.1,4.191,0" transform="translate(0 23.971)" fill="none" stroke="#262626" stroke-width="2"/><path d="M0,0V26.066" transform="translate(2.096 0)" fill="none" stroke="#262626" stroke-width="2"/></g><g transform="translate(125 33.589)" fill="none" stroke="#262626" stroke-width="2"><rect width="17.695" height="9.232" rx="4.616" stroke="none"/><rect x="1" y="1" width="15.695" height="7.232" rx="3.616" fill="none"/></g><text transform="translate(129.616 37.897)" font-size="2" font-family="SourceSansPro-Bold, Source Sans Pro" font-weight="700"><tspan x="0" y="0">Utility</tspan></text></g><g transform="translate(1386.182 1722.417)"><g transform="translate(129.489 21.483)" fill="none" stroke="#262626" stroke-width="2"><rect width="40.007" height="9.232" rx="4.616" stroke="none"/><rect x="1" y="1" width="38.007" height="7.232" rx="3.616" fill="none"/></g><text transform="translate(133.336 25.791)" font-size="2" font-family="SourceSansPro-Bold, Source Sans Pro" font-weight="700"><tspan x="0" y="0">Crop-yield prediction</tspan></text><text transform="translate(64.863 5.018)" font-size="2" font-family="SourceSansPro-Bold, Source Sans Pro" font-weight="700"><tspan x="0" y="0">Microclimate modeling</tspan></text><text transform="translate(70.249 35.023)" font-size="2" font-family="SourceSansPro-Bold, Source Sans Pro" font-weight="700"><tspan x="0" y="0">Temperature modeling</tspan></text><g transform="translate(67.171 30.715)" fill="none" stroke="#262626" stroke-width="2"><path d="M0,0H36.545a5,5,0,0,1,5,5V9.232a0,0,0,0,1,0,0H0a0,0,0,0,1,0,0V0A0,0,0,0,1,0,0Z" stroke="none"/><path d="M1,1H36.545a4,4,0,0,1,4,4V8.232a0,0,0,0,1,0,0H1a0,0,0,0,1,0,0V1A0,0,0,0,1,1,1Z" fill="none"/></g><text transform="translate(70.249 19.636)" font-size="2" font-family="SourceSansPro-Bold, Source Sans Pro" font-weight="700"><tspan x="0" y="0">Humidity modeling</tspan></text><g transform="translate(67.171 15.328)" fill="none" stroke="#262626" stroke-width="2"><path d="M0,0H30.16a6,6,0,0,1,6,6v4a0,0,0,0,1,0,0H0a0,0,0,0,1,0,0V0A0,0,0,0,1,0,0Z" stroke="none"/><path d="M1,1H30.16a5,5,0,0,1,5,5V9a0,0,0,0,1,0,0H1A0,0,0,0,1,1,9V1A0,0,0,0,1,1,1Z" fill="none"/></g><g transform="translate(60.967)" fill="none" stroke="#262626" stroke-width="2"><rect width="53.412" height="48.008" stroke="none"/><rect x="1" y="1" width="51.412" height="46.008" fill="none"/></g><line x2="53.412" transform="translate(61.03 9.723)" fill="none" stroke="#262626" stroke-width="2"/><g transform="translate(129.355 24.004) rotate(90)"><path d="M0,2.1,2.1,0l2.1,2.1" transform="translate(0 0)" fill="none" stroke="#262626" stroke-width="2"/><path d="M0,14.913V0" transform="translate(2.096 0)" fill="none" stroke="#262626" stroke-width="2"/></g><g transform="translate(60.93 24.005) rotate(90)"><path d="M0,2.1,2.1,0l2.1,2.1" transform="translate(0 0)" fill="none" stroke="#262626" stroke-width="2"/><path d="M0,14.913V0" transform="translate(2.096 0)" fill="none" stroke="#262626" stroke-width="2"/></g><text transform="translate(13.718 15.074)" font-size="2" font-family="SourceSansPro-Bold, Source Sans Pro" font-weight="700"><tspan x="0" y="0">Climate/weather data</tspan></text><text transform="translate(10.922 21.683)" font-size="2" font-family="SourceSansPro-Bold, Source Sans Pro" font-weight="700"><tspan x="0" y="0">Crop/plant data</tspan></text><text transform="translate(8.507 28.292)" font-size="2" font-family="SourceSansPro-Bold, Source Sans Pro" font-weight="700"><tspan x="0" y="0">Soil data</tspan></text><text transform="translate(6.346 34.901)" font-size="2" font-family="SourceSansPro-Bold, Source Sans Pro" font-weight="700"><tspan x="0" y="0">Temporal resolution</tspan></text><g transform="translate(0 10.633)"><path d="M-643.233,5768.516h40.916l-10.748,29.793" transform="translate(653.998 -5768.424)" fill="none" stroke="#262626" stroke-width="2"/><path d="M-602.317,5798.309h-40.916l10.748-29.794" transform="translate(643.233 -5768.515)" fill="none" stroke="#262626" stroke-width="2"/></g></g></g></svg>