<svg xmlns="http://www.w3.org/2000/svg" width="58.709" height="58.709" viewBox="0 0 58.709 58.709"><g transform="translate(0 0)"><g transform="translate(0 0)"><circle cx="29.297" cy="29.297" r="29.297" transform="translate(0.116 0.116)" fill="#306ef6"/><g transform="translate(0.116 0.116)"><path d="M34.4,5.4A30.294,30.294,0,0,0,22.655,7.841a8.922,8.922,0,0,1,.814,3.953,9.576,9.576,0,0,1-9.533,9.533,8.866,8.866,0,0,1-4.883-1.4A28.605,28.605,0,0,0,5.1,34.7,29.3,29.3,0,1,0,34.4,5.4Z" transform="translate(-5.1 -5.4)" fill="none"/><path d="M22.9,11.453A10.894,10.894,0,0,0,22.086,7.5,28.431,28.431,0,0,0,8.6,19.591a9.949,9.949,0,0,0,4.883,1.4A9.477,9.477,0,0,0,22.9,11.453Z" transform="translate(-4.531 -5.059)" fill="#fadf5f"/></g><path d="M17.788,58.662A72.736,72.736,0,0,1,62.779,41.223a31.32,31.32,0,0,0,.814-6.627,29.3,29.3,0,1,0-45.8,24.065Z" transform="translate(-5 -5.3)" fill="none"/><path d="M32.608,58.854A29.3,29.3,0,0,0,61.091,36.3,72.47,72.47,0,0,0,16.1,53.738,28.649,28.649,0,0,0,32.608,58.854Z" transform="translate(-3.196 -0.261)" fill="#94e044"/><path d="M45.734,27.931H17.6L22.948,17.7H51.2Z" transform="translate(-2.952 -3.284)" fill="#fff"/><path d="M34.341,39.631H17.6L22.948,29.4H39.8Z" transform="translate(-2.952 -1.382)" fill="#fff"/></g></g></svg>