<svg xmlns="http://www.w3.org/2000/svg" width="408.307" height="99.48" viewBox="0 0 408.307 99.48">
<g transform="translate(-583.285 -228.996)">
<g transform="translate(583.285 228.996)">
<text transform="translate(128.307 65.589)" fill="#fcfcfc" font-size="58" font-family="SourceSansPro-Semibold, Source Sans Pro" font-weight="600"><tspan x="0" y="0">FUNDUSOL</tspan></text><g transform="translate(0 0)"><g transform="translate(0 0)"><g transform="translate(0 0)"><circle cx="49.642" cy="49.642" r="49.642" transform="translate(0.197 0.197)" fill="#306ef6"/><g transform="translate(0.197 0.197)"><path d="M54.742,5.4a51.332,51.332,0,0,0-19.9,4.137,15.117,15.117,0,0,1,1.379,6.7A16.226,16.226,0,0,1,20.071,32.388,15.024,15.024,0,0,1,11.8,30.024,48.47,48.47,0,0,0,5.1,55.042,49.642,49.642,0,1,0,54.742,5.4Z" transform="translate(-5.1 -5.4)" fill="none"/><path d="M32.83,14.2a18.46,18.46,0,0,0-1.379-6.7A48.175,48.175,0,0,0,8.6,27.987a16.858,16.858,0,0,0,8.274,2.364A16.058,16.058,0,0,0,32.83,14.2Z" transform="translate(-1.705 -3.363)" fill="#fadf5f"/></g><path d="M26.669,95.719A123.247,123.247,0,0,1,102.9,66.17a53.071,53.071,0,0,0,1.379-11.228A49.642,49.642,0,1,0,26.669,95.719Z" transform="translate(-5 -5.3)" fill="none"/><path d="M44.073,74.516A49.644,49.644,0,0,0,92.335,36.3,122.8,122.8,0,0,0,16.1,65.849,48.545,48.545,0,0,0,44.073,74.516Z" transform="translate(5.766 24.767)" fill="#94e044"/><path d="M65.272,35.035H17.6L26.662,17.7H74.53Z" transform="translate(7.221 6.727)" fill="#fff"/><path d="M45.967,46.735H17.6L26.662,29.4H55.225Z" transform="translate(7.221 18.075)" fill="#fff"/></g></g></g></g></g></svg>