<svg xmlns="http://www.w3.org/2000/svg" class="footer-logo" width="239.721" height="58.709" viewBox="0 0 239.721 58.709">
                        <defs>
                          <style>
                            <!-- @import url('https://fonts.googleapis.com/css2?family=Source+Sans+Pro:ital,wght@0,600;&display=swap'); -->
                            <!-- @font-face {
                              font-family: myFirstFont;
                              src: url('/assets/SourceSansPro-SemiBold.ttf');
                            } -->
                            .cls-1 {
                              font-size: 34px;
                              font-family: 'Source Sans Pro', sans-serif;
                              font-weight: 600;
                              text-decoration: none !important;
                            }
                            a {
                              text-decoration: none		
                            }
                      
                            .cls-2 {
                              fill: #306ef6;
                            }
                      
                            .cls-3 {
                              fill: none;
                            }
                      
                            .cls-4 {
                              fill: #fadf5f;
                            }
                      
                            .cls-5 {
                              fill: #94e044;
                            }
                      
                            .cls-6 {
                              fill: #fff;
                            }
                          </style>
                        </defs>
                        <g id="Group_19" data-name="Group 19" transform="translate(-583.285 -228.996)">
                          <g id="Group_16" data-name="Group 16" transform="translate(583.285 228.996)">
                            <text id="FUNDUSOL" class="cls-1" transform="translate(75.721 38.888)"><tspan text-decoration = "none" x="0" y="0">FUNDUSOL</tspan></text>
                            <g id="Group_15" data-name="Group 15" transform="translate(0 0)">
                              <g id="Group_9" data-name="Group 9" transform="translate(0 0)">
                                <g id="Group_6" data-name="Group 6">
                                  <g id="Group_5" data-name="Group 5">
                                    <circle id="Ellipse_1" data-name="Ellipse 1" class="cls-2" cx="29.297" cy="29.297" r="29.297" transform="translate(0.116 0.116)"/>
                                    <g id="Group_3" data-name="Group 3" transform="translate(0.116 0.116)">
                                      <path id="Path_9" data-name="Path 9" class="cls-3" d="M34.4,5.4A30.294,30.294,0,0,0,22.655,7.841a8.922,8.922,0,0,1,.814,3.953,9.576,9.576,0,0,1-9.533,9.533,8.866,8.866,0,0,1-4.883-1.4A28.605,28.605,0,0,0,5.1,34.7,29.3,29.3,0,1,0,34.4,5.4Z" transform="translate(-5.1 -5.4)"/>
                                      <path id="Path_10" data-name="Path 10" class="cls-4" d="M22.9,11.453A10.894,10.894,0,0,0,22.086,7.5,28.431,28.431,0,0,0,8.6,19.591a9.949,9.949,0,0,0,4.883,1.4A9.477,9.477,0,0,0,22.9,11.453Z" transform="translate(-4.531 -5.059)"/>
                                    </g>
                                    <g id="Group_4" data-name="Group 4">
                                      <path id="Path_11" data-name="Path 11" class="cls-3" d="M17.788,58.662A72.736,72.736,0,0,1,62.779,41.223a31.32,31.32,0,0,0,.814-6.627,29.3,29.3,0,1,0-45.8,24.065Z" transform="translate(-5 -5.3)"/>
                                      <path id="Path_12" data-name="Path 12" class="cls-5" d="M32.608,58.854A29.3,29.3,0,0,0,61.091,36.3,72.47,72.47,0,0,0,16.1,53.738,28.649,28.649,0,0,0,32.608,58.854Z" transform="translate(-3.196 -0.261)"/>
                                    </g>
                                  </g>
                                  <path id="Path_13" data-name="Path 13" class="cls-6" d="M45.734,27.931H17.6L22.948,17.7H51.2Z" transform="translate(-2.952 -3.284)"/>
                                  <path id="Path_14" data-name="Path 14" class="cls-6" d="M34.341,39.631H17.6L22.948,29.4H39.8Z" transform="translate(-2.952 -1.382)"/>
                                </g>
                              </g>
                            </g>
                          </g>
                        </g>
                                  </svg>