<svg xmlns="http://www.w3.org/2000/svg" width="558.438" height="442.726" viewBox="0 0 558.438 442.726"><g transform="translate(-7805.813 4156.952)"><path d="M10080.526-3078.118l23.519,1.723,157.636-169.689,278.677,129.5,1.327,5.171-76.308,58.295-10.4,10.512h10.4" transform="translate(-2178 -910.261)" fill="none" stroke="#707070" stroke-width="1"/><path d="M10460.279-3033.631l-20.378-1.649-71.34,57.844-125.329,11.052-151.056,12.255-.785,150.143" transform="translate(-2178 -910.261)" fill="none" stroke="#707070" stroke-width="1"/><path d="M10052.15-2803.986v-114.366h-3.67v-3.422h3.67v-29.611l-67.144,2.849,50.521-54.442v-32.566h16.622v-19.819h-2.235v-5.243h10.258v-3.273l-37.567-3.239" transform="translate(-2178 -910.261)" fill="none" stroke="#707070" stroke-width="1"/><path d="M10047.668-3081.666l13.657,1.477s.023-2.826,3.975-3.333a65.506,65.506,0,0,1,10.407,0,6.037,6.037,0,0,1,4.135,5.669" transform="translate(-2178 -910.261)" fill="none" stroke="#707070" stroke-width="1"/><path d="M10080.526-3063l28.746,2.08,8.89.966s-.8,2.912,7.071,0l214.583,17.493,2.348-1.416h4.181l1.514,2.958,92.346,5.41" transform="translate(-2178 -910.261)" fill="none" stroke="#707070" stroke-width="1"/><path d="M10455.387-3051.644l-11.362,9.052-96.088-8.549-9.388-1.01-213.566-21.6s-2.068-.568-1.432-3.614l17.894-18.01s189.681,27.866,210.019,29.862l-12.273,12.631" transform="translate(-2178 -910.261)" fill="none" stroke="#707070" stroke-width="1"/><path d="M10349.014-3051.241l14.342-12,92.082,11.522" transform="translate(-2178 -910.261)" fill="none" stroke="#707070" stroke-width="1"/><path d="M10108.555-3060.771l-3.589,3.693,216.146,16.575,5.843-2.827" transform="translate(-2178 -910.261)" fill="none" stroke="#707070" stroke-width="1"/><path d="M10437.455-3033.37l-100.136-6.5,2.584-2.522" transform="translate(-2178 -910.261)" fill="none" stroke="#707070" stroke-width="1"/><path d="M10147.791-3100.074l209.779,30.855,92.778-80.392-182.631-80.336-121.653,129.873Z" transform="translate(-2178 -910.261)" fill="none" stroke="#707070" stroke-width="1"/><path d="M10035.757-3002.984h38.764v-32.074h-17.555v-4.891h-2.27s-.8-9.119-4.334-12.249-7.956-10.625-8.544-14.8" transform="translate(-2178 -910.261)" fill="none" stroke="#707070" stroke-width="1"/><path d="M10035.757-3067.118s.232,9.008,5.381,15.733,5.83,10.512,5.83,10.512h-2.436v5.221h4.523v-5.221h-1.6" transform="translate(-2178 -910.261)" fill="none" stroke="#707070" stroke-width="1"/><path d="M10054.793-3039.833h-2.776" transform="translate(-2178 -910.261)" fill="none" stroke="#707070" stroke-width="1"/><path d="M10051.989-2951.105l-.559-51.848H10065l-1.42,198.985" transform="translate(-2178 -910.261)" fill="none" stroke="#707070" stroke-width="1"/><path d="M10092.283-2953.7l-.933-101.241-.984-7.25" transform="translate(-2178 -910.261)" fill="none" stroke="#707070" stroke-width="1"/><path d="M10091.392-3055.818l3.438.946,4.66-6.75" transform="translate(-2178 -910.261)" fill="none" stroke="#707070" stroke-width="1"/><path d="M10091.734-3039.487l6.092-7.155h3.929l-10.021,11.485" transform="translate(-2178 -910.261)" fill="none" stroke="#707070" stroke-width="1"/><path d="M10050.659-3000.711l-41.365,46.558,41.365-2.13" transform="translate(-2177.223 -910.261)" fill="none" stroke="#707070" stroke-width="1"/><path d="M10045.443-3002.953l-47.948,51.042,54.181-2.5" transform="translate(-2178 -910.261)" fill="none" stroke="#707070" stroke-width="1"/><path d="M10092.283-2957.138l147.626-11.072,77.441-65.838-215.523-12.452" transform="translate(-2178 -910.261)" fill="none" stroke="#707070" stroke-width="1"/><path d="M10051.437-2992.771l-36.112,38.5" transform="translate(-2178 -910.261)" fill="none" stroke="#707070" stroke-width="1"/><path d="M10327.514-3033.37l-74.6,61.29,114.3-8.8,61.312-48.911Z" transform="translate(-2178 -910.261)" fill="none" stroke="#707070" stroke-width="1"/><path d="M10126.963-3044.885l-35.115,35.954v10.518l181.455-2.32-13.366,11.84-168.089,4.631.295,12.982,156.572-7.99-11.652,9.97-144.684,10.339" transform="translate(-2178 -910.261)" fill="none" stroke="#707070" stroke-width="1"/><path d="M10091.734-3030.52l207.455,7.276-12.132,12.1-195.323-2.942" transform="translate(-2178 -910.261)" fill="none" stroke="#707070" stroke-width="1"/><path d="M10149.975-3043.5l-57.988,57.07.278,20.777,79.134-76.768,19.837,1.152-85.182,81.231,20.417-1.487,83.794-78.775,17.605,1.084-82.787,76.453,18.277-1.175,80.786-74.368,14.965.917-80.308,72.248,16.129-1.108,78.991-70.239,13.182.735-77.042,68.407,14.428-1.081,76.025-66.55" transform="translate(-2178 -910.261)" fill="none" stroke="#707070" stroke-width="1"/><path d="M10173.557-3096.2l118.469-123,19.472,8.428L10196.038-3093l21.031,3.188,113.021-112.684,16.467,7.2-109.763,108.279,18.288,2.6,107.267-103.692,14.385,6.156-104.86,100.052,15.545,2.332,102.794-96.22,12.608,5.351-101.17,92.831,14.137,2.23,98.739-89.944,10.386,4.648-96.646,87.242,12.828,1.782,94.584-84.239" transform="translate(-2178 -910.261)" fill="none" stroke="#707070" stroke-width="1"/><path d="M10444.953-3151.977l-78.428,69.181L10352-3069.984" transform="translate(-2178 -910.261)" fill="none" stroke="#707070" stroke-width="1"/><path d="M10366.117-3082.369l-197.2-36.8,19.974-20.545,191.771,44.276,15.643-13.6-189.5-51.415,21.046-21.739,183.983,59.272,16.186-13.864-180.175-67.988" transform="translate(-2178 -910.261)" fill="none" stroke="#707070" stroke-width="1"/><path d="M10270.539-3228.5l-120.166,128.717" transform="translate(-2178 -910.261)" fill="none" stroke="#707070" stroke-width="1"/><path d="M10367.37-3067.85l90.168-76.039,2.275-1.774,75.243,33.215-71.635,56.753Z" transform="translate(-2178 -910.261)" fill="none" stroke="#707070" stroke-width="1"/><path d="M10367.611-3067.919l-1.886,1.743-.27.249,97.562,12.351,75.136-58.816.954-.792-273.219-124.9-152,162.2-10.17-.348" transform="translate(-2178 -910.261)" fill="none" stroke="#707070" stroke-width="1"/><path d="M10261.585-3246.084l4.469,8.183" transform="translate(-2178 -910.261)" fill="none" stroke="#707070" stroke-width="1"/><path d="M10365.878-3066.652l-2.067-.706,93.373-79.581,2.918,1.363" transform="translate(-2178 -910.261)" fill="none" stroke="#707070" stroke-width="1"/><path d="M10443.021-3131.394l79.117,29.024-12.787,10.317-82.32-25.74-15.39,12.639,85.655,22.516-12.114,9.678-88.86-19.06-13.9,11.682,91.395,16.36" transform="translate(-2178 -910.261)" fill="none" stroke="#707070" stroke-width="1"/><path d="M10377.983-3066.652l89.745-75.335,7.106,2.971-87.513,73.639,10.087,1.258,85.309-71,7.1,2.776-83.772,69.292,8.612,1.133,81.437-67.681,6.527,2.842-79.986,65.963,7.845.967,78.851-63.938,5.721,2.45-77.432,62.386,7.455.868,75.458-60.672,4.94,2.057-74.209,59.327,7.224,1.042,71.8-58.09" transform="translate(-2178 -910.261)" fill="none" stroke="#707070" stroke-width="1"/><path d="M10326.955-3033.37h-3.5l-75.662,63.632,119.868-9.53,64.208-51.3-102.886-6.352-5.036,3.066" transform="translate(-2178 -910.261)" fill="none" stroke="#707070" stroke-width="1"/><path d="M10335.3-3032.919l-70.009,59.83,11.5-.89,69.381-58.94,10.291.663-69.289,57.74,11.053-1.045,67.911-56.362,9.31.413-67.173,55.235,10.6-.955,65.807-53.956,7.883.358-64.946,52.969,9.417-.608,63.238-52.361,8.713.328-64.431,51.443,8.094-.7,63.056-50.3h6.51l-61.3,49.6" transform="translate(-2178 -910.261)" fill="none" stroke="#707070" stroke-width="1"/><path d="M10316.046-3023.612l101.779,2.429-10.98,8.789-104.013-.537-12.922,10.463,106.6-1.834-10.68,8.5-108.993,3.977-11.5,9.593,110.826-5.75" transform="translate(-2178 -910.261)" fill="none" stroke="#707070" stroke-width="1"/><path d="M10458.093-3042.6a8.975,8.975,0,0,1,8.656-5.594c6.591.157,5.511,5.594,5.511,5.594l-1.443,13.112v122.966l-6.971,4.38-16.064-.524.5-23.541,3.35-1.5.521-106.517" transform="translate(-2178 -910.261)" fill="none" stroke="#707070" stroke-width="1"/></g></svg>