<svg xmlns="http://www.w3.org/2000/svg" width="746.643" height="591.019" viewBox="0 0 746.643 591.019"><g transform="translate(2.983 1.517)"><path d="M10080.527-3022.127l31.357,2.3,210.184-226.254,371.572,172.673,1.77,6.9-101.744,77.727-13.873,14.016h13.873" transform="translate(-9953.167 3246.084)" fill="none" stroke="#707070" stroke-width="2.5"/><path d="M10583.247-3033.081l-27.171-2.2-95.12,77.126-167.107,14.736-201.41,16.34-1.047,200.193" transform="translate(-9949.544 3316.354)" fill="none" stroke="#707070" stroke-width="2.5"/><path d="M10074.532-2716.272v-152.49h-4.893v-4.562h4.893v-39.481l-89.525,3.8,67.363-72.59v-43.421h22.162v-26.426h-2.98v-6.991h13.678v-4.365l-50.091-4.318" transform="translate(-9985.007 3305.741)" fill="none" stroke="#707070" stroke-width="2.5"/><path d="M10047.668-3080.972l18.21,1.969s.031-3.768,5.3-4.444,13.876,0,13.876,0a8.05,8.05,0,0,1,5.514,7.559" transform="translate(-9964.119 3300.198)" fill="none" stroke="#707070" stroke-width="2.5"/><path d="M10080.527-3063l38.328,2.774,11.852,1.289s-1.07,3.883,9.43,0l286.113,23.324,3.131-1.888h5.574l2.018,3.944,123.129,7.213" transform="translate(-9953.167 3307.113)" fill="none" stroke="#707070" stroke-width="2.5"/><path d="M10566.044-3037.065,10550.895-3025l-128.119-11.4-12.517-1.348-284.759-28.8s-2.758-.758-1.908-4.818l23.858-24.014s252.91,37.156,280.027,39.816l-16.364,16.841" transform="translate(-9938.865 3296.322)" fill="none" stroke="#707070" stroke-width="2.5"/><path d="M10349.014-3047.241l19.123-16,122.777,15.362" transform="translate(-9863.666 3307.033)" fill="none" stroke="#707070" stroke-width="2.5"/><path d="M10109.751-3060.771l-4.785,4.924,288.2,22.1,7.79-3.769" transform="translate(-9945.019 3307.857)" fill="none" stroke="#707070" stroke-width="2.5"/><path d="M10470.835-3030.362l-133.516-8.667,3.445-3.363" transform="translate(-9867.564 3313.984)" fill="none" stroke="#707070" stroke-width="2.5"/><path d="M10148.366-3056.781l279.709,41.141,123.706-107.19-243.511-107.116-162.206,173.166Z" transform="translate(-9931.318 3251.462)" fill="none" stroke="#707070" stroke-width="2.5"/><path d="M10035.758-2981.646h51.684v-42.766h-23.406v-6.521h-3.025s-1.07-12.159-5.779-16.332-10.607-14.167-11.391-19.731" transform="translate(-9968.091 3305.782)" fill="none" stroke="#707070" stroke-width="2.5"/><path d="M10035.758-3067.118s.309,12.01,7.174,20.977,7.773,14.017,7.773,14.017h-3.248v6.962h6.031v-6.962h-2.137" transform="translate(-9968.091 3305.741)" fill="none" stroke="#707070" stroke-width="2.5"/><path d="M10055.718-3039.833h-3.7" transform="translate(-9962.669 3314.837)" fill="none" stroke="#707070" stroke-width="2.5"/><path d="M10052.175-2933.822l-.744-69.131h18.09l-1.894,265.316" transform="translate(-9962.864 3327.13)" fill="none" stroke="#707070" stroke-width="2.5"/><path d="M10092.923-2917.538l-1.244-134.99-1.312-9.667" transform="translate(-9949.886 3307.383)" fill="none" stroke="#707070" stroke-width="2.5"/><path d="M10091.392-3053.883l4.585,1.261,6.214-9" transform="translate(-9949.544 3307.573)" fill="none" stroke="#707070" stroke-width="2.5"/><path d="M10091.734-3037.1l8.123-9.54h5.238l-13.361,15.313" transform="translate(-9949.43 3312.567)" fill="none" stroke="#707070" stroke-width="2.5"/><path d="M10064.447-3000.711l-55.154,62.079,55.154-2.84" transform="translate(-9975.873 3327.878)" fill="none" stroke="#707070" stroke-width="2.5"/><path d="M10061.427-3002.953,9997.5-2934.9l72.241-3.337" transform="translate(-9980.844 3327.13)" fill="none" stroke="#707070" stroke-width="2.5"/><path d="M10092.283-2927.35l196.836-14.763,103.257-87.785-287.368-16.6" transform="translate(-9949.246 3312.614)" fill="none" stroke="#707070" stroke-width="2.5"/><path d="M10063.475-2992.771l-48.15,51.329" transform="translate(-9974.9 3330.525)" fill="none" stroke="#707070" stroke-width="2.5"/><path d="M10352.38-3033.37l-99.463,81.721,152.407-11.733,81.75-65.215Z" transform="translate(-9895.699 3316.991)" fill="none" stroke="#707070" stroke-width="2.5"/><path d="M10138.669-3044.885l-46.821,47.94v14.024l241.942-3.094-17.821,15.786-224.121,6.175.394,17.309,208.765-10.654-15.536,13.294-192.914,13.785" transform="translate(-9949.392 3313.153)" fill="none" stroke="#707070" stroke-width="2.5"/><path d="M10091.734-3030.52l276.61,9.7-16.176,16.139-260.435-3.923" transform="translate(-9949.43 3317.941)" fill="none" stroke="#707070" stroke-width="2.5"/><path d="M10169.306-3043.5l-77.319,76.094.371,27.7,105.514-102.358,26.449,1.536-113.577,108.309,27.224-1.982,111.726-105.034,23.475,1.445-110.384,101.938,24.37-1.567,107.716-99.158,19.953,1.222-107.078,96.332,21.506-1.478,105.322-93.653,17.576.98-102.724,91.211,19.237-1.441,101.368-88.734" transform="translate(-9949.346 3313.616)" fill="none" stroke="#707070" stroke-width="2.5"/><path d="M10173.557-3055.193l157.96-164.005,25.963,11.237-153.947,157.03,28.042,4.25,150.7-150.247,21.956,9.595-146.353,144.373,24.385,3.469,143.023-138.257,19.18,8.208-139.814,133.4,20.727,3.11,137.06-128.295,16.812,7.135-134.895,123.776,18.85,2.974,131.653-119.927,13.848,6.2-128.863,116.324,17.1,2.376,126.113-112.32" transform="translate(-9922.154 3255.046)" fill="none" stroke="#707070" stroke-width="2.5"/><path d="M10475.938-3151.977l-104.571,92.243L10352-3042.652" transform="translate(-9862.67 3277.454)" fill="none" stroke="#707070" stroke-width="2.5"/><path d="M10431.853-3041.563l-262.935-49.072,26.632-27.394,255.7,59.036,20.857-18.14-252.664-68.554,28.062-28.986,245.313,79.03,21.581-18.485-240.235-90.651" transform="translate(-9923.7 3259.852)" fill="none" stroke="#707070" stroke-width="2.5"/><path d="M10310.6-3228.5l-160.223,171.625" transform="translate(-9929.883 3251.945)" fill="none" stroke="#707070" stroke-width="2.5"/><path d="M10367.37-3041.911,10487.6-3143.3l3.033-2.366,100.325,44.287-95.514,75.671Z" transform="translate(-9857.547 3279.558)" fill="none" stroke="#707070" stroke-width="2.5"/><path d="M10455.577-3011.2l-2.514,2.324-.359.332,130.083,16.469,100.183-78.422,1.271-1.056-364.295-166.535-202.663,216.263-13.56-.464" transform="translate(-9945.433 3248.75)" fill="none" stroke="#707070" stroke-width="2.5"/><path d="M10261.584-3246.084l5.959,10.912" transform="translate(-9892.81 3246.084)" fill="none" stroke="#707070" stroke-width="2.5"/><path d="M10366.567-3039.888l-2.757-.942,124.5-106.109,3.891,1.817" transform="translate(-9858.733 3279.133)" fill="none" stroke="#707070" stroke-width="2.5"/><path d="M10463.223-3131.394l105.49,38.7-17.049,13.756-109.762-34.321-20.52,16.853,114.207,30.021-16.152,12.9-118.482-25.413-18.537,15.576,121.861,21.814" transform="translate(-9852.531 3284.315)" fill="none" stroke="#707070" stroke-width="2.5"/><path d="M10377.983-3041.539l119.661-100.449,9.476,3.961-116.685,98.187,13.449,1.677,113.746-94.666,9.463,3.7-111.7,92.39,11.483,1.511,108.583-90.243,8.7,3.79-106.649,87.952,10.46,1.29,105.135-85.252,7.628,3.267-103.243,83.182,9.939,1.158,100.612-80.9,6.587,2.743-98.946,79.1,9.632,1.389,95.734-77.455" transform="translate(-9854.009 3280.784)" fill="none" stroke="#707070" stroke-width="2.5"/><path d="M10353.343-3032.187h-4.664l-100.884,84.844,159.826-12.706,85.611-68.4-137.183-8.47-6.715,4.088" transform="translate(-9897.407 3315.809)" fill="none" stroke="#707070" stroke-width="2.5"/><path d="M10358.64-3032.919l-93.347,79.774,15.331-1.187,92.509-78.587,13.722.885-92.387,76.987,14.737-1.394,90.549-75.15,12.413.551-89.564,73.648,14.136-1.273,87.743-71.943,10.51.478-86.6,70.626,12.557-.811,84.318-69.816,11.617.438-85.908,68.592,10.791-.931,84.075-67.065h8.68l-81.74,66.135" transform="translate(-9891.574 3317.142)" fill="none" stroke="#707070" stroke-width="2.5"/><path d="M10332.951-3023.612l135.707,3.239-14.641,11.719-138.686-.717-17.229,13.951,142.136-2.445L10426-2986.538l-145.326,5.3-15.339,12.791,147.77-7.667" transform="translate(-9891.561 3320.244)" fill="none" stroke="#707070" stroke-width="2.5"/><path d="M10461.53-3040.737a11.967,11.967,0,0,1,11.542-7.458c8.788.21,7.348,7.458,7.348,7.458l-1.925,17.483V-2859.3l-9.294,5.84-21.42-.7.66-31.388,4.467-2,.693-142.024" transform="translate(-9830.742 3312.048)" fill="none" stroke="#707070" stroke-width="2.5"/></g></svg>