<svg xmlns="http://www.w3.org/2000/svg" width="95.91" height="67.437" viewBox="0 0 95.91 67.437"><path d="M94.956,15.052a12.051,12.051,0,0,0-8.479-8.534C79,4.5,49,4.5,49,4.5s-29.992,0-37.471,2.017a12.051,12.051,0,0,0-8.479,8.534c-2,7.528-2,23.235-2,23.235s0,15.707,2,23.235a11.872,11.872,0,0,0,8.479,8.4C19.013,71.937,49,71.937,49,71.937s29.992,0,37.471-2.017a11.872,11.872,0,0,0,8.479-8.4c2-7.528,2-23.235,2-23.235s0-15.707-2-23.235ZM39.2,52.547V24.026L64.263,38.287,39.2,52.547Z" transform="translate(-1.05 -4.5)" fill="#fcfcfc"/></svg>